<svg id="undraw_travelers_re_y25a" xmlns="http://www.w3.org/2000/svg" xmlns:xlink="http://www.w3.org/1999/xlink" width="1500" height="1500" viewBox="0 0 1500 1500">
  <defs>
    <clipPath id="clip-path">
      <rect id="Rectangle_2508" data-name="Rectangle 2508" width="1115" height="770" transform="translate(192 365)" fill="#fff"/>
    </clipPath>
  </defs>
  <g id="undraw_travelers_re_y25a-2" data-name="undraw_travelers_re_y25a">
    <rect id="Rectangle_2507" data-name="Rectangle 2507" width="1500" height="1500" fill="#fff" opacity="0"/>
    <g id="Group_601" data-name="Group 601" clip-path="url(#clip-path)">
      <path id="Path_24244" data-name="Path 24244" d="M302.134,1078.52a191.225,191.225,0,0,0,8.939,52.88c.121.4.255.79.385,1.18h33.357c-.035-.35-.071-.75-.106-1.18-2.224-25.56,10.482-179.28,25.814-205.884C369.18,927.674,299.547,997.3,302.134,1078.52Z" fill="#e6e6e6"/>
      <path id="Path_24245" data-name="Path 24245" d="M304.637,1131.4c.279.39.569.79.866,1.18h25.025c-.19-.33-.409-.73-.664-1.18-4.134-7.46-16.37-29.76-27.728-52.88-12.2-24.84-23.4-50.63-22.461-59.96C279.383,1020.66,270.937,1084.83,304.637,1131.4Z" fill="#e6e6e6"/>
      <path id="Path_24246" data-name="Path 24246" d="M710.263,1105.12a97.091,97.091,0,0,0,4.541,26.86c.062.21.13.4.2.61h16.948c-.018-.18-.037-.39-.054-.61-1.13-12.98,5.325-91.08,13.115-104.6C744.326,1028.48,708.949,1063.86,710.263,1105.12Z" fill="#e6e6e6"/>
      <path id="Path_24247" data-name="Path 24247" d="M711.534,1131.98q.213.3.44.6h12.715c-.1-.17-.208-.37-.338-.6-2.1-3.79-8.317-15.12-14.087-26.86-6.2-12.63-11.891-25.73-11.412-30.47C698.7,1075.72,694.413,1108.32,711.534,1131.98Z" fill="#e6e6e6"/>
      <path id="Path_24248" data-name="Path 24248" d="M609.931,584.98l-43.139,30.675,26.842,2.874L631.023,586.9Z" fill="#3f3d56"/>
      <path id="Path_24249" data-name="Path 24249" d="M441.157,1108.72H467.1l12.344-100.04H441.152Z" fill="#f3b3b3"/>
      <path id="Path_24250" data-name="Path 24250" d="M434.538,1100.26l51.1-.01h0a32.568,32.568,0,0,1,32.563,32.56v1.05l-83.66.01Z" fill="#2f2e41"/>
      <path id="Path_24251" data-name="Path 24251" d="M424.845,751.379s-11.245,12.707,7.375,62.24l-3.28,271.6,60.341-1.18,13.263-132.481,24.149-193.334Z" fill="#2f2e41"/>
      <path id="Path_24252" data-name="Path 24252" d="M364.6,708.5a13.7,13.7,0,0,1-13.662-13.335l-2.831-106.681,48.452-91.893a13.784,13.784,0,0,1,11.243-7.283l36.925-2.37-3.189,215.04L365.8,708.452Q365.2,708.5,364.6,708.5Z" fill="#46de92"/>
      <path id="Path_24253" data-name="Path 24253" d="M547.388,788.93l-.661-.1C469.535,777.06,411.285,765.777,410.7,765.665l-.723-.141,20.235-49.2c-.16-5.141-4.54-149.516,3.845-191,8.117-40.156,46.38-46.736,50.74-47.355l4.378-14.5,55.312,28.773,9.647,33.19L556.1,616.4Z" fill="#3f3d56"/>
      <path id="Path_24254" data-name="Path 24254" d="M471.376,651.213c-35.637,0-64.629-38.735-64.629-86.347s28.992-86.346,64.629-86.346,64.629,38.734,64.629,86.346S507.012,651.213,471.376,651.213Zm0-164.24c-30.974,0-56.173,34.943-56.173,77.893s25.2,77.893,56.173,77.893,56.173-34.942,56.173-77.893S502.35,486.973,471.376,486.973Z" fill="#46de92"/>
      <path id="Path_24255" data-name="Path 24255" d="M580.7,601.7a18.054,18.054,0,0,0-13.261,5.8h-92.97l-34.054,7.246,5.591,43.112L567.149,631.81A18.11,18.11,0,1,0,580.7,601.7Z" fill="#f3b3b3"/>
      <path id="Path_24256" data-name="Path 24256" d="M573.875,457.361a44.8,44.8,0,1,0-63.366,0A44.784,44.784,0,0,0,573.875,457.361Z" fill="#f3b3b3"/>
      <path id="Path_24257" data-name="Path 24257" d="M500.051,389.877l-2.172-4.37,10.93-5.429s12.057-19.613,33.876-14.1,31.635,8.81,31.635,8.81l10.9,5.484-5.472,5.443,9.817,3.3-6.558,3.258,7.63,4.384-4.108,22.476s-6.822-17.047-19.938-10.533-37.107-3.367-37.107-3.367l-20.842,40.325s-4.3-14.136-11.967-10.367C496.677,435.188,477.091,404.006,500.051,389.877Z" fill="#2f2e41"/>
      <path id="Path_24258" data-name="Path 24258" d="M889.38,665.642l-1.915-35.907-19.328-15.7-11.2,33.251-62.627,83.5a15.691,15.691,0,1,0,18.18,15.485c0-.211-.024-.416-.032-.625Z" fill="#ffb7b7"/>
      <path id="Path_24259" data-name="Path 24259" d="M926.6,1118.19H911.79l-7.047-57.1H926.6Z" fill="#ffb7b7"/>
      <path id="Path_24260" data-name="Path 24260" d="M930.376,1132.54H882.623v-.6a18.58,18.58,0,0,1,18.587-18.58h29.167Z" fill="#2f2e41"/>
      <path id="Path_24261" data-name="Path 24261" d="M995.456,1118.19H980.647l-7.047-57.1h21.858Z" fill="#ffb7b7"/>
      <path id="Path_24262" data-name="Path 24262" d="M999.233,1132.54H951.479v-.6a18.582,18.582,0,0,1,18.588-18.58h29.167Z" fill="#2f2e41"/>
      <path id="Path_24263" data-name="Path 24263" d="M979.8,515.638c6.27-25.881,11.582-55.073-.243-78.91C971.355,420.189,941,414.619,923.6,420.577s-29.98,22.125-35.512,39.75-4.89,36.619-2.479,54.943C917.612,514.655,949.613,514.041,979.8,515.638Z" fill="#2f2e41"/>
      <path id="Path_24264" data-name="Path 24264" d="M943.7,511.06a37.306,37.306,0,1,0-50.641-14.839A37.3,37.3,0,0,0,943.7,511.06Z" fill="#ffb8b8"/>
      <path id="Path_24265" data-name="Path 24265" d="M971.419,470.642a46.869,46.869,0,1,0-93.682,1.235C909.676,471.945,941.615,472.013,971.419,470.642Z" fill="#2f2e41"/>
      <path id="Path_24266" data-name="Path 24266" d="M865.879,703.073s-6.072,88.172-2.777,115.069,39.176,262.038,39.176,262.038l27.065-.05,8.035-277.1,32.005,279.8,27.989-2.91,15.878-273.693s-2.49-102.464-22.726-112.739Z" fill="#2f2e41"/>
      <path id="Path_24267" data-name="Path 24267" d="M908.333,790.478a125.133,125.133,0,0,1-57.152-13.836l-.387-.2,14.96-99.235-.971-118.269a24.455,24.455,0,0,1,24.68-24.647l80.273.736a25.9,25.9,0,0,1,25.587,27.941l-7.512,94.813,24.839,76.956-4.31,5.738a125.013,125.013,0,0,1-100.007,50Z" fill="#3f3d56"/>
      <path id="Path_24268" data-name="Path 24268" d="M856.717,636.327l8.412-85.806,2.7-3.846a24.462,24.462,0,0,1,34.158-5.883l2.317,1.643-2.288,86.957Z" fill="#3f3d56"/>
      <path id="Path_24269" data-name="Path 24269" d="M1201.39,1055.54c21.75-6.01,31.03,27.01,9.34,33.2C1188.98,1094.75,1179.7,1061.74,1201.39,1055.54Z" fill="#3f3d56"/>
      <path id="Path_24270" data-name="Path 24270" d="M1080.83,1098.03c21.74-6.01,31.02,27,9.33,33.2C1068.42,1137.24,1059.14,1104.22,1080.83,1098.03Z" fill="#3f3d56"/>
      <path id="Path_24271" data-name="Path 24271" d="M1032.03,749.854l.34-.1,56.01,152.021,7.38-2.075-56.41-153.111a10.373,10.373,0,0,0-8.66-9.683c-28.02-4.428-39.37,20.43-39.37,20.43l.112.165L1048.7,912.929l7.38-2.075L1000.5,760C1017.42,743.274,1032.03,749.854,1032.03,749.854Z" fill="#3f3d56"/>
      <path id="Path_24272" data-name="Path 24272" d="M1096.22,1106.58a37.493,37.493,0,0,1-35.57-26.61c-10.69-34.98-35.92-118.788-39.26-141.533-4.35-29.614,20.17-38.036,20.72-38.216.66-.222,10.51-2.98,24.16-6.8,23.19-6.489,58.24-16.295,59.53-16.874a41.754,41.754,0,0,1,33.31,2.572,43.645,43.645,0,0,1,21.66,26.706l36.07,128.313a34.683,34.683,0,0,1-18.39,40.73c-27.83,13.37-68.66,31.2-101.68,31.71Z" fill="#46de92"/>
      <path id="Path_24273" data-name="Path 24273" d="M1026.07,744.6l-18.13-105.908-2.03-35.743-29.317,9.6,24.727,138.679a15.7,15.7,0,1,0,24.75-6.629Z" fill="#ffb7b7"/>
      <path id="Path_24274" data-name="Path 24274" d="M1012.9,632.047l-45.766-2.488-10.752-86.321,1.046-.908a25.913,25.913,0,0,1,36.617,2.678l2.116,2.461.031.156Z" fill="#3f3d56"/>
      <path id="Path_24275" data-name="Path 24275" d="M1199.26,1053.7l-46.78-158.266-109.99,31.074-.65-2.323,112.28-31.724.34,1.145,47.11,159.4Z" fill="#3f3d56"/>
      <path id="Path_24276" data-name="Path 24276" d="M368.091,697.159l-4.98-108.569,51.017-99.7,2.15,1.1-50.723,99.124,4.95,107.929Z" fill="#3f3d56"/>
      <path id="Path_24277" data-name="Path 24277" d="M1305.79,1135H193.208a1.2,1.2,0,0,1-1.208-1.21,1.2,1.2,0,0,1,.354-.85,1.189,1.189,0,0,1,.854-.35H1305.79a1.21,1.21,0,0,1,.86.35,1.23,1.23,0,0,1,.35.85,1.2,1.2,0,0,1-1.21,1.21Z" fill="#ccc"/>
      <path id="Path_24278" data-name="Path 24278" d="M446.6,665.937l-10.632-31.616L433.4,528.932l4.53-14.953a41.789,41.789,0,1,1,78.926,27.3l-24.281,62.2,1.234,2.394,52.6-.426L565.1,639.071Z" fill="#3f3d56"/>
      <path id="Path_24279" data-name="Path 24279" d="M781.713,890.919l-.037.008-58.3,11.668-50.156,20.192a5.322,5.322,0,0,1-6.926-2.948q-.093-.228-.163-.465l-36.64-122.651a5.3,5.3,0,0,1,3.112-6.459L683.672,769.7l.037-.008,58.3-11.668,50.156-20.193a5.325,5.325,0,0,1,6.926,2.949c.061.152.116.307.163.465L835.9,863.9a5.3,5.3,0,0,1-3.112,6.459Z" fill="#e5e5e5"/>
      <path id="Path_24280" data-name="Path 24280" d="M719.148,808.533c-13.37-4.716-27.189-8.848-41.07-12.28l-.7-.173,7.048,23.592,35.906-10.72Zm-34.169,10.121-6.4-21.433c13.213,3.288,26.36,7.21,39.112,11.667Zm104.23,21.771q-9.336-5.277-18.94-10.107-2.647-1.333-5.312-2.629-16.263-7.908-33.023-14.42l-.13-.051-45.266,13.514L698.9,868.111,790.047,840.9Zm-89.76,26.667-11.892-39.81,44.212-13.2q16.163,6.282,31.954,13.919,2.742,1.324,5.464,2.69,9.512,4.761,18.78,9.973Zm89.76-26.667q-9.336-5.277-18.94-10.107-2.647-1.333-5.312-2.629-16.263-7.908-33.023-14.42l-.13-.051-45.266,13.514L698.9,868.111,790.047,840.9Zm-89.76,26.667-11.892-39.81,44.212-13.2q16.163,6.282,31.954,13.919,2.742,1.324,5.464,2.69,9.512,4.761,18.78,9.973Zm19.7-58.559c-13.37-4.716-27.189-8.848-41.07-12.28l-.7-.173,7.048,23.592,35.906-10.72Zm-34.169,10.121-6.4-21.433c13.213,3.288,26.36,7.21,39.112,11.667Zm34.169-10.121c-13.37-4.716-27.189-8.848-41.07-12.28l-.7-.173,7.048,23.592,35.906-10.72Zm-34.169,10.121-6.4-21.433c13.213,3.288,26.36,7.21,39.112,11.667Zm104.23,21.771q-9.336-5.277-18.94-10.107-2.647-1.333-5.312-2.629-16.263-7.908-33.023-14.42l-.13-.051-45.266,13.514L698.9,868.111,790.047,840.9Zm-89.76,26.667-11.892-39.81,44.212-13.2q16.163,6.282,31.954,13.919,2.742,1.324,5.464,2.69,9.512,4.761,18.78,9.973Zm-37.278,19.674.234.784L693.4,878.3l3.4,11.374L665.8,898.925l.234.784,31.776-9.486-3.867-12.944Zm44.813,8.408,2.374,7.948.763-.307L708,895.724l120.84-36.077-.235-.784Zm115.883-55.53-.234-.784L701.008,875.171l3.867,12.943L826.5,851.8l-.234-.785-120.84,36.077-3.4-11.374Zm-90.327-35.19a399.709,399.709,0,0,0-56.92-17.129l-2.373-7.942-.763.307,2.391,8,.8.483a398.974,398.974,0,0,1,56.7,17.09l.131.051,73.545-21.957-.234-.785ZM676.348,821.23l-30.991,9.253.234.784,31.776-9.486-11.749-39.328-.763.307Zm131.814-30.809-64.655,19.3,1.053.442q14.875,6.256,29.672,13.834,2.1,1.075,4.2,2.182,10.446,5.484,20.73,11.578l.761.189,20.6-6.149-.235-.785-20.548,6.135q-10.175-6.036-20.539-11.49-2.073-1.092-4.151-2.159-14.484-7.437-29.124-13.645l62.47-18.651ZM668.146,906.769l.235.784,30.99-9.252,2.358,7.891.763-.306-2.57-8.6ZM647.7,838.327l.235.785,30.99-9.253,11.893,39.81-30.991,9.253.235.784,31.775-9.487-12.361-41.378Zm71.448-29.794c-13.37-4.716-27.189-8.848-41.07-12.28l-.7-.173,7.048,23.592,35.906-10.72Zm-34.169,10.121-6.4-21.433c13.213,3.288,26.36,7.21,39.112,11.667Zm104.23,21.771q-9.336-5.277-18.94-10.107-2.647-1.333-5.312-2.629-16.263-7.908-33.023-14.42l-.13-.051-45.266,13.514L698.9,868.111,790.047,840.9Zm-89.76,26.667-11.892-39.81,44.212-13.2q16.163,6.282,31.954,13.919,2.742,1.324,5.464,2.69,9.512,4.761,18.78,9.973Zm19.7-58.559c-13.37-4.716-27.189-8.848-41.07-12.28l-.7-.173,7.048,23.592,35.906-10.72Zm-34.169,10.121-6.4-21.433c13.213,3.288,26.36,7.21,39.112,11.667Zm104.23,21.771q-9.336-5.277-18.94-10.107-2.647-1.333-5.312-2.629-16.263-7.908-33.023-14.42l-.13-.051-45.266,13.514L698.9,868.111,790.047,840.9Zm-89.76,26.667-11.892-39.81,44.212-13.2q16.163,6.282,31.954,13.919,2.742,1.324,5.464,2.69,9.512,4.761,18.78,9.973Z" fill="#fff"/>
      <path id="Path_24281" data-name="Path 24281" d="M729.559,812.228c2.967,9.933-8.413,37.433-8.413,37.433s-24.6-16.757-27.57-26.691a18.776,18.776,0,0,1,35.983-10.742Z" fill="#46de92"/>
      <path id="Path_24282" data-name="Path 24282" d="M719.559,814.361a8.571,8.571,0,1,1-1.565-2.961A8.576,8.576,0,0,1,719.559,814.361Z" fill="#fff"/>
      <path id="Path_24283" data-name="Path 24283" d="M723.575,862.854a5.06,5.06,0,1,0-5.061-5.06A5.061,5.061,0,0,0,723.575,862.854Z" fill="#46de92"/>
      <path id="Path_24284" data-name="Path 24284" d="M778.8,791.263l-35.176,10.5a.7.7,0,0,1-.134.029l8.03-33.775a1.216,1.216,0,0,1,2.028-.606l16.941,16,.811.765Z" fill="#fff"/>
      <path id="Path_24285" data-name="Path 24285" d="M778.8,791.265l-12.01,3.585,3.339-10.32.239-.744.121-.372.81.766Z" opacity="0.2"/>
      <path id="Path_24286" data-name="Path 24286" d="M798.39,785.417,767.966,794.5l3.338-10.321.24-.743,4.35-13.451a1.624,1.624,0,0,1,2.266-.827,1.457,1.457,0,0,1,.152.1Z" fill="#fff"/>
      <path id="Path_25492" data-name="Path 25492" d="M5,0c2.761,0,5,2.686,5,6s-2.239,6-5,6S0,9.314,0,6,2.239,0,5,0Z" transform="translate(560 429)" fill="#2f2e41"/>
      <path id="Path_25525" data-name="Path 25525" d="M5,0c2.761,0,5,2.686,5,6s-2.239,6-5,6S0,9.314,0,6,2.239,0,5,0Z" transform="translate(894 479)" fill="#2f2e41"/>
      <path id="Path_25526" data-name="Path 25526" d="M5,0c2.761,0,5,2.686,5,6s-2.239,6-5,6S0,9.314,0,6,2.239,0,5,0Z" transform="translate(930 479)" fill="#2f2e41"/>
    </g>
  </g>
  <g id="Group_614" data-name="Group 614" transform="translate(-1055)">
    <path id="Path_24579" data-name="Path 24579" d="M1161.5,501.835c0,65.321-38.832,88.129-86.735,88.129s-86.735-22.808-86.735-88.129,86.735-148.42,86.735-148.42S1161.5,436.514,1161.5,501.835Z" transform="translate(210.5 483.215)" fill="#46de92"/>
    <path id="Path_24580" data-name="Path 24580" d="M1033.106,466.187l.888-54.668,36.968-67.632-36.829,59.056.4-24.581,25.478-48.931-25.373,42.427h0l.719-44.21,27.282-38.956-27.17,32,.449-81.066-2.82,107.316.232-4.427-27.739-42.459,27.294,50.958-2.585,49.375-.077-1.311L998.246,354.4l31.881,49.312-.324,6.175-.058.092.027.507-6.557,125.269h8.761l1.051-64.7,31.8-49.19Z" transform="translate(249 597)" fill="#3f3d56"/>
  </g>
</svg>
