<svg width="1500" height="1500" viewBox="0 0 1500 1500" fill="none" xmlns="http://www.w3.org/2000/svg">
<g clip-path="url(#clip0_13_2)">
<path d="M906.261 1207.51C918.743 1180.55 931.216 1153.18 936.634 1123.96C942.051 1094.75 939.777 1063.04 924.262 1037.69C908.747 1012.35 878.198 995.168 849.045 1000.9C825.1 1005.6 805.874 1024.46 794.616 1046.12C783.358 1067.77 778.841 1092.2 774.463 1116.21C773.048 1088.93 771.549 1061.21 762.49 1035.44C753.43 1009.68 735.59 985.664 710.165 975.694C684.741 965.723 651.666 973.564 638.266 997.363C619.387 1030.89 644.42 1077.93 622.712 1109.7C618.988 1077.83 585.667 1052.65 553.999 1057.77C522.33 1062.9 498.649 1097.3 505.163 1128.72C509.04 1147.41 521.792 1163.31 537.039 1174.8C552.286 1186.29 570.018 1199.6 587.559 1207.13L906.261 1207.51Z" fill="#2BD832"/>
<path d="M521.791 1080.29C546.946 1089.08 572.333 1097.98 595.299 1111.73C615.881 1124.05 634.21 1140.64 645.786 1161.89C652.128 1173.29 655.894 1185.94 656.817 1198.95C656.984 1201.67 661.241 1201.69 661.073 1198.95C659.585 1174.72 647.778 1152.54 631.429 1135.01C613.504 1115.78 590.275 1102.65 566.293 1092.46C552.073 1086.42 537.5 1081.28 522.922 1076.19C520.331 1075.28 519.218 1079.39 521.791 1080.29Z" fill="white"/>
<path d="M666.89 979.918C682.345 1005.67 694.722 1033.15 703.765 1061.79C712.826 1090.42 718.533 1120.01 720.773 1149.96C722.012 1166.72 722.147 1183.55 721.178 1200.33C721.02 1203.07 725.276 1203.06 725.433 1200.33C727.15 1170.07 725.319 1139.72 719.978 1109.89C714.645 1080.06 705.88 1050.95 693.858 1023.13C687.109 1007.51 679.328 992.357 670.565 977.77C670.27 977.303 669.805 976.969 669.269 976.838C668.733 976.707 668.166 976.789 667.69 977.068C667.213 977.347 666.863 977.8 666.714 978.332C666.565 978.863 666.628 979.432 666.89 979.918Z" fill="white"/>
<path d="M875.179 1004.37C853.318 1053.49 837.934 1105.25 829.413 1158.35C827.021 1173.26 825.169 1188.25 823.857 1203.3C823.619 1206.03 827.876 1206.02 828.113 1203.3C832.747 1150.33 844.194 1098.18 862.171 1048.13C867.223 1034.06 872.783 1020.19 878.853 1006.52C879.955 1004.03 876.289 1001.87 875.179 1004.37Z" fill="white"/>
<path d="M266.465 1204.33C222.865 1192.98 184.338 1167.32 157.059 1131.46C129.78 1095.6 115.329 1051.61 116.023 1006.56C116.196 995.331 117.376 983.87 122.094 973.683C126.812 963.496 135.576 954.685 146.539 952.271C158.503 949.637 171.127 955.022 180.043 963.425C188.959 971.827 194.805 982.913 200.184 993.922C232.58 1060.23 257.195 1131.37 266.41 1204.6L266.465 1204.33Z" fill="#2BD832"/>
<path d="M141.111 954.484L163.816 1006.08L186.522 1057.68C193.713 1074.02 200.89 1090.37 208.322 1106.6C215.69 1122.69 223.309 1138.67 231.438 1154.39C239.555 1170.09 248.182 1185.53 257.547 1200.52C258.713 1202.39 259.89 1204.25 261.079 1206.1C261.902 1207.39 263.959 1206.2 263.131 1204.9C253.587 1190.02 244.793 1174.68 236.545 1159.04C228.288 1143.39 220.57 1127.46 213.138 1111.41C205.666 1095.27 198.482 1078.99 191.316 1062.71C183.774 1045.58 176.233 1028.44 168.693 1011.3L145.988 959.706L143.162 953.285C142.547 951.888 140.5 953.096 141.111 954.484L141.111 954.484Z" fill="white"/>
<path d="M256.993 1204.69C231.294 1210.57 204.364 1207.65 180.522 1196.39C156.68 1185.14 137.305 1166.21 125.504 1142.63C122.564 1136.75 120.083 1130.48 119.783 1123.92C119.483 1117.36 121.655 1110.42 126.695 1106.2C132.195 1101.61 140.203 1100.99 147.1 1102.95C153.997 1104.9 160.025 1109.08 165.789 1113.34C200.506 1139.02 232.489 1169.31 257.037 1204.84L256.993 1204.69Z" fill="#2BD832"/>
<path d="M124.474 1108.82L150.19 1129.48L175.905 1150.13C184.049 1156.68 192.188 1163.23 200.428 1169.65C208.596 1176.01 216.865 1182.25 225.329 1188.22C233.781 1194.18 242.428 1199.87 251.336 1205.12C252.446 1205.77 253.559 1206.42 254.676 1207.06C255.45 1207.51 256.196 1206.33 255.417 1205.89C246.446 1200.74 237.738 1195.14 229.236 1189.25C220.725 1183.36 212.419 1177.17 204.226 1170.84C195.99 1164.48 187.867 1157.97 179.753 1151.45C171.212 1144.59 162.671 1137.73 154.131 1130.87L128.416 1110.21L125.216 1107.64C124.52 1107.08 123.783 1108.26 124.474 1108.82H124.474Z" fill="white"/>
<path d="M1351.51 1208H177.951C177.729 1208 177.509 1207.96 177.303 1207.87C177.098 1207.79 176.911 1207.66 176.754 1207.51C176.596 1207.35 176.471 1207.16 176.386 1206.96C176.301 1206.75 176.257 1206.53 176.257 1206.31C176.257 1206.09 176.301 1205.87 176.386 1205.66C176.471 1205.46 176.596 1205.27 176.754 1205.11C176.911 1204.96 177.098 1204.83 177.303 1204.75C177.509 1204.66 177.729 1204.62 177.951 1204.62H1351.51C1351.96 1204.62 1352.39 1204.8 1352.71 1205.12C1353.03 1205.43 1353.2 1205.86 1353.2 1206.31C1353.2 1206.76 1353.03 1207.19 1352.71 1207.51C1352.39 1207.82 1351.96 1208 1351.51 1208Z" fill="#3F3D56"/>
<path d="M1320.68 1038.75H1241.23C1241.23 1039.69 1240.86 1040.59 1240.19 1041.26C1239.53 1041.92 1238.63 1042.29 1237.69 1042.29H1159.69C1158.59 1043.12 1157.59 1044.08 1156.7 1045.13C1154.03 1048.31 1152.58 1052.33 1152.59 1056.48V1059.32C1152.59 1064.02 1154.46 1068.53 1157.78 1071.86C1161.11 1075.18 1165.62 1077.05 1170.32 1077.06H1320.68C1325.39 1077.05 1329.89 1075.18 1333.22 1071.86C1336.54 1068.53 1338.41 1064.02 1338.42 1059.32V1056.48C1338.41 1051.78 1336.54 1047.27 1333.22 1043.95C1329.89 1040.62 1325.39 1038.75 1320.68 1038.75Z" fill="#3F3D56"/>
<path d="M1255.42 1076.35H1236.98V1206.88H1255.42V1076.35Z" fill="#3F3D56"/>
<path d="M1307.91 1206.23C1307.91 1208.23 1279.97 1207 1245.49 1207C1211.02 1207 1183.08 1208.23 1183.08 1206.23C1183.08 1204.24 1211.02 1188.44 1245.49 1188.44C1279.97 1188.44 1307.91 1204.24 1307.91 1206.23Z" fill="#3F3D56"/>
<path d="M1317.21 1042.83L1314.12 1023.48C1313.73 1021.04 1312.38 1018.86 1310.38 1017.41C1308.38 1015.96 1305.89 1015.36 1303.45 1015.75L1271.55 1020.84L1216.9 1029.57L1199.13 1032.41H1237.69C1238.63 1032.41 1239.53 1032.78 1240.19 1033.45C1240.86 1034.11 1241.23 1035.01 1241.23 1035.95V1038.75C1241.23 1039.69 1240.86 1040.59 1240.19 1041.26C1239.53 1041.92 1238.63 1042.29 1237.69 1042.29H1139.56C1138.19 1042.94 1137.01 1043.91 1136.12 1045.13C1135.36 1046.12 1134.82 1047.26 1134.51 1048.47C1134.21 1049.68 1134.16 1050.94 1134.36 1052.17L1135.24 1057.67L1136.3 1064.36L1137.45 1071.54C1137.84 1073.97 1139.18 1076.15 1141.17 1077.59C1143.17 1079.04 1145.66 1079.64 1148.09 1079.25L1173.44 1075.21L1246.55 1063.53L1309.48 1053.49C1311.91 1053.09 1314.09 1051.75 1315.54 1049.75C1316.99 1047.76 1317.59 1045.27 1317.21 1042.83Z" fill="#4558D6"/>
<path d="M1171.5 1045.13C1170.56 1043.89 1169.33 1042.92 1167.91 1042.29H1140.78C1139.36 1042.91 1138.12 1043.89 1137.18 1045.13C1135.92 1046.75 1135.23 1048.74 1135.24 1050.79V1158.92C1135.24 1161.38 1136.22 1163.75 1137.96 1165.49C1139.7 1167.23 1142.07 1168.21 1144.53 1168.21H1164.15C1166.61 1168.21 1168.97 1167.23 1170.71 1165.49C1172.46 1163.75 1173.44 1161.38 1173.44 1158.92V1050.79C1173.44 1048.74 1172.76 1046.75 1171.5 1045.13Z" fill="#4558D6"/>
<path d="M1230.54 860.972L1230.35 860.731L1218.18 845.734C1217.53 844.93 1216.75 844.243 1215.87 843.705C1215.4 843.389 1214.9 843.131 1214.36 842.939C1213.59 842.628 1212.77 842.427 1211.94 842.343C1211.38 842.284 1210.82 842.275 1210.26 842.315C1210.25 842.316 1210.24 842.321 1210.24 842.329C1208.36 842.468 1206.56 843.181 1205.1 844.372L1180.12 864.633L1148.02 890.682L1100.11 929.557L1096.62 932.395H1157.24L1160.74 929.557L1172.33 920.15L1173.16 919.498L1229.13 874.082L1229.17 874.053C1230.33 873.126 1231.24 871.933 1231.83 870.577C1232.22 869.69 1232.46 868.747 1232.56 867.782C1232.69 866.569 1232.58 865.343 1232.23 864.174C1231.88 863.005 1231.31 861.917 1230.54 860.972Z" fill="#4558D6"/>
<path d="M1230.35 860.731C1229.57 856.908 1227.83 853.345 1225.3 850.374C1222.78 847.38 1219.53 845.084 1215.87 843.705C1215.3 843.492 1214.75 843.294 1214.18 843.138C1212.9 842.756 1211.59 842.481 1210.26 842.315C1210.25 842.316 1210.24 842.321 1210.24 842.329C1204.27 841.639 1198.27 843.298 1193.5 846.954L1150.29 879.984C1149.37 880.805 1148.63 881.802 1148.1 882.916C1147.58 884.03 1147.29 885.238 1147.24 886.468C1147.17 887.914 1147.44 889.356 1148.02 890.682C1148.16 890.98 1148.32 891.278 1148.49 891.562C1148.82 892.138 1149.22 892.671 1149.68 893.151L1156.6 900.926L1172.7 918.987L1173.15 919.498L1174.19 920.675C1175.02 921.579 1176.01 922.311 1177.12 922.829C1178.22 923.348 1179.42 923.643 1180.64 923.697C1181.87 923.751 1183.09 923.563 1184.24 923.144C1185.38 922.726 1186.44 922.084 1187.34 921.257L1224.61 881.218C1226.54 879.139 1228.08 876.72 1229.13 874.082C1230.83 869.846 1231.26 865.205 1230.35 860.731Z" fill="#FF76B8"/>
<path d="M1246.83 809.355C1286.09 809.355 1317.93 777.517 1317.93 738.242C1317.93 698.967 1286.09 667.129 1246.83 667.129C1207.56 667.129 1175.73 698.967 1175.73 738.242C1175.73 777.517 1207.56 809.355 1246.83 809.355Z" fill="#4558D6"/>
<path d="M1273.49 1033.04L1271.55 1020.84L1270.4 1013.68C1270.01 1011.24 1268.66 1009.06 1266.67 1007.61C1264.67 1006.17 1262.18 1005.57 1259.74 1005.96L1208.07 1014.2L1194.05 1016.44L1191.21 1016.9V1032.41H1237.69C1238.63 1032.41 1239.53 1032.78 1240.19 1033.45C1240.86 1034.11 1241.23 1035.01 1241.23 1035.95V1038.75C1241.23 1039.69 1240.86 1040.59 1240.19 1041.26C1239.53 1041.92 1238.63 1042.29 1237.69 1042.29H1090.62C1090.62 1042.32 1090.64 1042.35 1090.64 1042.38L1091.52 1047.88L1093.73 1061.73C1094.12 1064.17 1095.46 1066.34 1097.45 1067.79C1099.45 1069.24 1101.94 1069.83 1104.37 1069.45L1129.72 1065.41L1135.24 1064.53L1136.3 1064.36L1173.44 1058.43L1198.7 1054.38L1238.79 1047.98L1239.39 1047.88L1265.76 1043.69C1268.19 1043.3 1270.37 1041.96 1271.82 1039.96C1273.27 1037.97 1273.87 1035.48 1273.49 1033.04Z" fill="#4558D6"/>
<path d="M1343.6 980.861C1343.6 1038.83 1337.71 1073.51 1246.92 1063.58C1246.79 1063.56 1246.68 1063.55 1246.55 1063.53C1230.36 1061.93 1214.34 1058.87 1198.7 1054.38C1190.58 1052.01 1182.68 1048.91 1175.1 1045.13C1173.31 1044.22 1171.6 1043.27 1169.91 1042.29H1237.69C1238.63 1042.29 1239.53 1041.92 1240.19 1041.26C1240.86 1040.59 1241.23 1039.69 1241.23 1038.75V1035.95C1241.23 1035.01 1240.86 1034.11 1240.19 1033.45C1239.53 1032.78 1238.63 1032.41 1237.69 1032.41H1191.21V942.794C1191.21 940.037 1190.11 937.394 1188.16 935.445C1186.21 933.495 1183.57 932.398 1180.82 932.394H1143.01C1143.34 931.458 1143.66 930.507 1144.02 929.557C1147.56 919.741 1151.77 910.176 1156.6 900.925C1163.22 888.079 1171.1 875.922 1180.12 864.633C1186.4 856.765 1193.45 849.546 1201.17 843.081C1215.4 831.333 1230.89 824.069 1246.61 824.069C1304.57 824.069 1343.6 922.889 1343.6 980.861Z" fill="#FF76B8"/>
<path d="M1248.32 764.599L1248.39 761.941C1243.45 761.804 1239.09 761.494 1235.82 759.101C1234.89 758.384 1234.13 757.476 1233.58 756.437C1233.04 755.399 1232.72 754.255 1232.65 753.084C1232.6 752.368 1232.71 751.649 1232.97 750.982C1233.24 750.315 1233.65 749.718 1234.19 749.238C1236.36 747.402 1239.86 747.996 1242.41 749.165L1244.61 750.174L1240.39 719.359L1237.76 719.72L1241.34 745.932C1239.88 745.387 1238.29 745.218 1236.74 745.441C1235.2 745.664 1233.73 746.272 1232.47 747.208C1231.63 747.946 1230.96 748.868 1230.54 749.903C1230.11 750.939 1229.92 752.059 1230 753.177C1230.08 754.751 1230.5 756.289 1231.23 757.683C1231.97 759.077 1233 760.293 1234.25 761.247C1238.46 764.322 1243.93 764.476 1248.32 764.599Z" fill="#FF76B8"/>
<path d="M1224.74 721.98H1210.43V724.638H1224.74V721.98Z" fill="#FF76B8"/>
<path d="M1269.91 721.98H1255.6V724.638H1269.91V721.98Z" fill="#FF76B8"/>
<path d="M1303.57 718.703C1298.04 710.378 1288.31 706.849 1278.72 705.99C1267.92 705.024 1257.48 707.107 1246.94 709.13C1235.33 711.357 1223.05 713.441 1211.36 710.625C1206.19 709.429 1201.35 707.073 1197.22 703.736C1193.09 700.399 1189.77 696.168 1187.52 691.362C1183.24 681.984 1182.31 671.418 1184.9 661.441C1187.64 650.829 1194.45 641.492 1202.69 634.439C1219.52 620.045 1242.29 613.576 1264.19 614.186C1286.01 614.749 1307.1 622.166 1324.47 635.385C1341.87 649.081 1354.12 668.273 1359.21 689.826C1364.53 711.202 1362.8 733.727 1354.27 754.036C1349.47 765.157 1342.54 775.182 1337.19 786.023C1332.21 796.116 1328.38 807.852 1331.47 819.11C1334.19 828.989 1342.18 837.765 1352.2 840.447C1356.76 841.644 1361.58 841.327 1365.95 839.545C1370.31 837.763 1373.98 834.612 1376.4 830.566C1381.41 822.664 1381.53 812.315 1374.01 805.935C1372.11 804.3 1369.9 803.068 1367.51 802.314C1365.13 801.559 1362.61 801.299 1360.12 801.547C1357.63 801.796 1355.21 802.549 1353.02 803.76C1350.83 804.972 1348.91 806.616 1347.37 808.594C1344.32 812.558 1342.95 817.566 1343.57 822.531C1343.94 825.041 1340.1 826.124 1339.73 823.591C1338.83 818.34 1339.82 812.941 1342.54 808.356C1345.25 803.77 1349.5 800.296 1354.53 798.553C1359.56 796.81 1365.05 796.91 1370.02 798.837C1374.98 800.763 1379.1 804.39 1381.64 809.071C1386.18 817.602 1383.73 827.891 1377.98 835.183C1375 839.067 1370.98 842.012 1366.38 843.667C1361.78 845.322 1356.79 845.616 1352.03 844.514C1341.55 842.092 1332.97 833.76 1328.94 823.969C1324.45 813.068 1326.51 800.903 1330.89 790.326C1335.62 778.891 1342.64 768.637 1348.2 757.618C1353.23 747.66 1356.43 736.88 1357.65 725.791C1360.09 703.522 1355.03 681.075 1343.29 662.001C1331.31 643.224 1313.04 629.331 1291.74 622.821C1270.6 616.027 1247.78 616.63 1227.03 624.532C1206.78 632.513 1187.22 649.905 1187.46 673.264C1187.56 683.242 1191.26 693.418 1198.9 700.074C1208.03 708.027 1220.75 708.707 1232.23 707.466C1243.78 706.217 1255 702.842 1266.6 701.981C1276.7 701.233 1287.58 702.011 1296.6 707.026C1300.79 709.366 1304.36 712.681 1307.01 716.691C1308.44 718.834 1304.98 720.832 1303.57 718.703V718.703Z" fill="#FF76B8"/>
<path d="M1289.09 881.304L1283.46 877.388L1272.98 870.109C1270.95 868.708 1268.45 868.167 1266.03 868.606C1263.6 869.044 1261.45 870.427 1260.04 872.45L1225.87 921.64L1194.05 967.439L1191.21 971.525V1032.41H1191.47C1193.68 1032.19 1195.74 1031.18 1197.27 1029.57C1197.6 1029.23 1197.9 1028.86 1198.16 1028.48L1208.07 1014.2L1232.54 978.974L1257.9 942.482L1260.31 939.006L1291.41 894.243C1291.58 894.006 1291.73 893.759 1291.87 893.505C1292.02 893.262 1292.14 893.011 1292.26 892.753C1293.15 890.776 1293.32 888.548 1292.74 886.457C1292.17 884.366 1290.87 882.543 1289.09 881.304Z" fill="#4558D6"/>
<path d="M1289.19 861.837C1288.19 861.179 1287.14 860.6 1286.04 860.106C1281.2 857.885 1275.73 857.4 1270.57 858.733C1265.41 860.067 1260.87 863.137 1257.7 867.428L1225.42 911.212C1224.77 912.254 1224.33 913.415 1224.14 914.627C1223.94 915.84 1223.99 917.079 1224.28 918.272C1224.56 919.466 1225.09 920.59 1225.81 921.58C1226.54 922.57 1227.45 923.405 1228.51 924.038L1257.9 942.482L1258.27 942.709L1259.74 943.631C1261.85 944.907 1264.38 945.295 1266.78 944.71C1269.17 944.125 1271.24 942.615 1272.53 940.51L1295.32 895.25L1295.7 894.498L1295.72 894.484L1297.12 891.661C1299.68 886.581 1300.29 880.738 1298.83 875.241C1297.37 869.743 1293.94 864.973 1289.19 861.837Z" fill="#FF76B8"/>
<path d="M1091.52 1042.29V1149.12C1091.52 1151.58 1092.5 1153.94 1094.24 1155.68C1095.98 1157.43 1098.35 1158.41 1100.81 1158.41H1120.43C1122.89 1158.41 1125.25 1157.43 1126.99 1155.68C1128.74 1153.94 1129.72 1151.58 1129.72 1149.12V1042.29H1091.52Z" fill="#4558D6"/>
<path d="M1237.69 1029.57H1194.05V942.794C1194.05 939.285 1192.65 935.92 1190.17 933.438C1187.69 930.957 1184.32 929.561 1180.82 929.557H1019C1015.49 929.558 1012.12 930.952 1009.64 933.434C1007.15 935.916 1005.76 939.283 1005.75 942.794V1031.89C1005.76 1035.41 1007.15 1038.77 1009.64 1041.26C1012.12 1043.74 1015.49 1045.13 1019 1045.13H1237.69C1237.91 1045.13 1238.13 1045.12 1238.34 1045.1C1238.54 1045.09 1238.74 1045.05 1238.93 1045.02C1240.38 1044.73 1241.68 1043.94 1242.62 1042.8C1243.55 1041.66 1244.07 1040.22 1244.07 1038.75V1035.95C1244.07 1034.26 1243.4 1032.64 1242.2 1031.44C1241 1030.24 1239.38 1029.57 1237.69 1029.57ZM1237.69 1042.29H1019C1016.24 1042.29 1013.6 1041.2 1011.64 1039.25C1009.69 1037.3 1008.59 1034.65 1008.59 1031.89V942.794C1008.59 940.035 1009.69 937.391 1011.64 935.441C1013.6 933.491 1016.24 932.396 1019 932.394H1180.82C1183.57 932.398 1186.21 933.495 1188.16 935.445C1190.11 937.394 1191.21 940.037 1191.21 942.794V1032.41H1237.69C1238.63 1032.41 1239.53 1032.78 1240.19 1033.45C1240.86 1034.11 1241.23 1035.01 1241.23 1035.95V1038.75C1241.23 1039.69 1240.86 1040.59 1240.19 1041.26C1239.53 1041.92 1238.63 1042.29 1237.69 1042.29Z" fill="#3F3D56"/>
<path d="M1099.9 998.257C1105.93 998.257 1110.81 993.372 1110.81 987.346C1110.81 981.32 1105.93 976.435 1099.9 976.435C1093.88 976.435 1088.99 981.32 1088.99 987.346C1088.99 993.372 1093.88 998.257 1099.9 998.257Z" fill="#4558D6"/>
<path d="M289.058 804.669C330.988 804.669 364.978 770.673 364.978 728.736C364.978 686.8 330.988 652.803 289.058 652.803C247.129 652.803 213.138 686.8 213.138 728.736C213.138 770.673 247.129 804.669 289.058 804.669Z" fill="#4558D6"/>
<path d="M274.259 1014.39H253.321C250.876 1014.39 248.533 1015.36 246.804 1017.09C245.075 1018.82 244.103 1021.16 244.101 1023.61V1198.14C244.103 1200.58 245.075 1202.93 246.804 1204.65C248.532 1206.38 250.876 1207.36 253.321 1207.36H274.259C276.704 1207.36 279.047 1206.38 280.776 1204.65C282.505 1202.93 283.477 1200.58 283.479 1198.14V1023.61C283.477 1021.16 282.505 1018.82 280.776 1017.09C279.047 1015.36 276.704 1014.39 274.259 1014.39Z" fill="#FF76B8"/>
<path d="M318.503 1014.39H297.566C295.121 1014.39 292.777 1015.36 291.048 1017.09C289.32 1018.82 288.348 1021.16 288.345 1023.61V1198.14C288.348 1200.58 289.32 1202.93 291.048 1204.65C292.777 1206.38 295.121 1207.36 297.566 1207.36H318.503C319.714 1207.36 320.913 1207.12 322.032 1206.66C323.151 1206.19 324.167 1205.51 325.024 1204.66C325.88 1203.8 326.559 1202.78 327.022 1201.67C327.486 1200.55 327.724 1199.35 327.724 1198.14V1023.61C327.724 1022.4 327.486 1021.2 327.022 1020.08C326.559 1018.96 325.88 1017.94 325.024 1017.09C324.167 1016.23 323.151 1015.55 322.032 1015.09C320.913 1014.63 319.714 1014.39 318.503 1014.39Z" fill="#FF76B8"/>
<path d="M333.668 844.486C326.33 835.001 316.212 828.049 304.729 824.6C293.246 821.151 280.972 821.379 269.624 825.252C258.277 829.125 248.424 836.448 241.444 846.198C234.463 855.949 230.705 867.637 230.695 879.629V1034.19C230.689 1034.66 230.727 1035.13 230.808 1035.6C231.145 1037.96 232.323 1040.13 234.126 1041.69C235.929 1043.26 238.237 1044.12 240.625 1044.12H335.768C338.4 1044.12 340.922 1043.07 342.783 1041.21C344.644 1039.35 345.692 1036.83 345.698 1034.19V879.629C345.715 866.901 341.481 854.532 333.668 844.486Z" fill="#FF76B8"/>
<path d="M353.171 762.303L353.092 759.465C358.37 759.319 363.023 758.987 366.52 756.432C367.511 755.667 368.326 754.697 368.909 753.588C369.492 752.48 369.829 751.258 369.898 750.008C369.959 749.243 369.843 748.475 369.56 747.763C369.276 747.051 368.832 746.414 368.262 745.901C365.941 743.94 362.207 744.575 359.484 745.823L357.137 746.9L361.638 713.997L364.449 714.382L360.62 742.371C364.319 741.283 367.746 741.751 370.094 743.734C370.995 744.521 371.702 745.506 372.16 746.611C372.618 747.717 372.814 748.914 372.733 750.107C372.65 751.788 372.201 753.43 371.416 754.918C370.632 756.407 369.532 757.706 368.193 758.724C363.701 762.008 357.862 762.171 353.171 762.303Z" fill="#FF76B8"/>
<path d="M345.399 716.796H330.119V719.633H345.399V716.796Z" fill="#FF76B8"/>
<path d="M266.797 846.671C265.978 845.776 264.99 845.053 263.889 844.544C262.788 844.035 261.597 843.75 260.386 843.705L243.888 843.024L239.476 842.84C237.033 842.74 234.651 843.613 232.85 845.267C231.05 846.921 229.979 849.222 229.872 851.665L227.262 914.546L222.652 1026.05C222.558 1028.38 223.346 1030.65 224.858 1032.42C226.371 1034.19 228.496 1035.33 230.809 1035.6C231.036 1035.63 231.248 1035.64 231.476 1035.65L244.101 1036.18L252.399 1036.52C253.064 1036.55 253.73 1036.51 254.385 1036.39C256.118 1036.08 257.727 1035.29 259.024 1034.09C259.918 1033.27 260.641 1032.29 261.15 1031.19C261.659 1030.08 261.944 1028.89 261.988 1027.68L262.542 1014.39L266.613 916.05L269.223 853.296C269.325 850.853 268.452 848.47 266.797 846.671Z" fill="#4558D6"/>
<path d="M254.711 832.908C252.948 832.536 251.151 832.351 249.349 832.355C242.391 832.363 235.721 835.132 230.801 840.052C225.881 844.973 223.114 851.644 223.105 858.603V906.842C223.109 908.369 223.491 909.872 224.216 911.216C224.941 912.56 225.988 913.704 227.262 914.546C228.301 915.23 229.469 915.694 230.695 915.908C231.233 916.011 231.779 916.063 232.326 916.064H266.371C266.452 916.067 266.533 916.062 266.613 916.05C269.015 915.989 271.297 914.992 272.974 913.272C274.651 911.552 275.591 909.245 275.592 906.842V858.603C275.584 852.575 273.506 846.732 269.704 842.055C265.903 837.377 260.61 834.148 254.711 832.908Z" fill="#FF76B8"/>
<path d="M436.542 970.291C434.317 969.141 432.57 967.242 431.609 964.929C430.649 962.615 430.537 960.037 431.293 957.649L439.365 931.955L437.01 929.997L375.061 878.735L333.668 844.486L328.632 840.314C326.749 838.755 324.324 838.007 321.89 838.236C319.456 838.465 317.212 839.652 315.652 841.535L302.303 857.68C301.529 858.612 300.947 859.687 300.589 860.845C300.232 862.002 300.106 863.219 300.219 864.425C300.332 865.631 300.683 866.802 301.25 867.873C301.817 868.943 302.589 869.891 303.523 870.662L345.698 905.565L350.492 909.523L437.974 981.911C439.592 983.255 441.622 984.005 443.725 984.036C445.828 984.067 447.879 983.377 449.535 982.081C449.992 981.723 450.411 981.319 450.784 980.875C450.844 980.817 450.901 980.755 450.954 980.69L452.642 978.647L436.542 970.291Z" fill="#4558D6"/>
<path d="M372.082 868.889L334.761 838.342C332.094 836.159 329.023 834.522 325.724 833.525C322.425 832.528 318.962 832.191 315.532 832.533C312.103 832.875 308.774 833.889 305.736 835.517C302.699 837.146 300.012 839.357 297.828 842.024C295.645 844.691 294.008 847.762 293.012 851.062C292.015 854.362 291.678 857.825 292.02 861.256C292.71 868.183 296.123 874.552 301.509 878.962L338.831 909.509C340.475 910.856 342.534 911.593 344.659 911.596C346.784 911.598 348.845 910.866 350.492 909.523C350.983 909.144 351.426 908.705 351.811 908.218L373.373 881.871C374.137 880.947 374.71 879.882 375.061 878.736C375.592 876.983 375.593 875.113 375.062 873.361C374.532 871.609 373.495 870.053 372.082 868.889Z" fill="#FF76B8"/>
<path d="M270.025 741.593C266.072 734.987 262.978 727.709 264.446 719.882C265.757 712.893 270.786 707.451 278.017 706.736C282.372 706.306 286.705 707.469 290.958 708.226C294.445 708.838 297.988 709.068 301.524 708.91C308.639 708.587 315.614 706.818 322.023 703.712C328.53 700.667 334.308 696.263 338.971 690.798C343.634 685.333 347.073 678.933 349.056 672.028C353.371 656.316 350.167 638.475 339.92 625.686L343.477 624.747L338.846 639.963C338.756 640.275 338.596 640.562 338.379 640.804C338.161 641.045 337.892 641.234 337.591 641.356C337.29 641.479 336.966 641.532 336.642 641.51C336.318 641.489 336.003 641.395 335.72 641.235C327.328 635.931 317.945 632.388 308.143 630.82C298.34 629.253 288.321 629.693 278.693 632.116C273.253 633.483 267.999 635.504 263.045 638.135C260.628 639.421 258.476 635.748 260.897 634.46C270.202 629.606 280.394 626.689 290.858 625.887C301.321 625.086 311.839 626.415 321.774 629.796C327.432 631.725 332.836 634.331 337.868 637.559L334.742 638.831L339.373 623.616C339.476 623.26 339.67 622.937 339.935 622.678C340.2 622.419 340.527 622.234 340.885 622.139C341.243 622.045 341.62 622.044 341.978 622.139C342.336 622.233 342.664 622.418 342.929 622.677C347.695 628.723 351.188 635.672 353.197 643.105C355.206 650.538 355.69 658.301 354.62 665.926C353.585 673.441 350.974 680.652 346.958 687.088C342.942 693.523 337.611 699.036 331.315 703.267C325.025 707.513 317.956 710.47 310.516 711.965C303.077 713.461 295.415 713.466 287.973 711.981C283.808 711.18 279.085 710.034 274.999 711.778C273.517 712.493 272.21 713.526 271.172 714.803C270.134 716.08 269.39 717.57 268.992 719.167C266.677 727.015 270.617 734.467 274.642 740.993L270.025 741.593Z" fill="#FF76B8"/>
<path d="M546.991 898.797L476.814 858.177C475.067 857.167 473.114 856.562 471.101 856.407C469.088 856.252 467.066 856.551 465.185 857.282C463.303 858.014 461.609 859.158 460.229 860.632C458.849 862.106 457.817 863.87 457.21 865.796L437.01 929.997L428.583 956.798C427.629 959.822 427.773 963.086 428.99 966.014C430.207 968.942 432.42 971.346 435.236 972.802L450.784 980.875L501.512 1007.19C503.43 1008.19 505.562 1008.71 507.725 1008.71C509.322 1008.71 510.906 1008.42 512.406 1007.87L512.505 1007.83C514.278 1007.15 515.888 1006.11 517.232 1004.77C518.576 1003.43 519.624 1001.83 520.308 1000.06L552.821 915.284C553.98 912.292 554.029 908.985 552.959 905.96C551.89 902.936 549.772 900.395 546.991 898.797ZM550.168 914.276L517.655 999.05C517.113 1000.45 516.284 1001.72 515.221 1002.77C514.158 1003.83 512.885 1004.65 511.484 1005.18L511.413 1005.21C510.022 1005.72 508.54 1005.94 507.06 1005.85C505.58 1005.76 504.135 1005.36 502.817 1004.68L452.642 978.647L436.542 970.291C434.317 969.141 432.57 967.242 431.609 964.929C430.649 962.615 430.537 960.037 431.293 957.649L439.365 931.955L459.905 866.647C460.388 865.129 461.204 863.739 462.294 862.578C463.384 861.416 464.721 860.514 466.205 859.937C467.689 859.36 469.284 859.123 470.872 859.243C472.46 859.363 474.001 859.838 475.382 860.632L545.558 901.252C547.756 902.513 549.431 904.52 550.277 906.909C551.122 909.299 551.084 911.913 550.168 914.276Z" fill="#3F3D56"/>
<path d="M523.446 925.959C522.735 925.958 522.036 925.78 521.412 925.438L474.6 899.9C473.613 899.357 472.881 898.445 472.565 897.364C472.249 896.283 472.374 895.121 472.913 894.132C473.453 893.143 474.362 892.408 475.442 892.088C476.522 891.769 477.684 891.89 478.675 892.426L525.487 917.965C526.318 918.418 526.974 919.135 527.351 920.002C527.729 920.87 527.807 921.839 527.573 922.755C527.339 923.672 526.806 924.485 526.058 925.065C525.311 925.645 524.392 925.959 523.446 925.959H523.446Z" fill="#4558D6"/>
<path d="M514.934 944.403C514.223 944.403 513.524 944.224 512.9 943.883L466.088 918.345C465.101 917.802 464.369 916.89 464.053 915.809C463.737 914.728 463.863 913.565 464.402 912.576C464.941 911.587 465.85 910.853 466.93 910.533C468.01 910.213 469.173 910.335 470.164 910.871L516.976 936.409C517.806 936.862 518.462 937.579 518.84 938.447C519.218 939.314 519.295 940.283 519.061 941.2C518.827 942.117 518.294 942.929 517.547 943.509C516.8 944.089 515.88 944.404 514.934 944.403H514.934Z" fill="#4558D6"/>
<path d="M507.842 964.266C507.131 964.266 506.431 964.087 505.808 963.746L458.995 938.208C458.008 937.665 457.277 936.753 456.961 935.672C456.644 934.591 456.77 933.428 457.309 932.439C457.848 931.45 458.758 930.716 459.838 930.396C460.918 930.076 462.08 930.198 463.071 930.734L509.883 956.272C510.714 956.725 511.369 957.442 511.747 958.31C512.125 959.178 512.203 960.146 511.969 961.063C511.734 961.98 511.202 962.792 510.454 963.372C509.707 963.952 508.788 964.267 507.842 964.266H507.842Z" fill="#4558D6"/>
<path d="M1002.88 562.342H806.086C803.257 562.339 800.545 561.214 798.545 559.213C796.544 557.213 795.419 554.5 795.416 551.671V302.671C795.419 299.842 796.544 297.13 798.545 295.129C800.545 293.129 803.257 292.003 806.086 292H1002.88C1005.71 292.003 1008.42 293.129 1010.42 295.129C1012.42 297.13 1013.55 299.842 1013.55 302.671V551.671C1013.55 554.5 1012.42 557.213 1010.42 559.213C1008.42 561.214 1005.71 562.339 1002.88 562.342ZM806.086 294.371C803.885 294.374 801.776 295.249 800.22 296.805C798.665 298.361 797.79 300.471 797.787 302.671V551.671C797.79 553.871 798.665 555.981 800.22 557.537C801.776 559.093 803.885 559.968 806.086 559.971H1002.88C1005.08 559.968 1007.19 559.093 1008.75 557.537C1010.3 555.981 1011.18 553.871 1011.18 551.671V302.671C1011.18 300.471 1010.3 298.361 1008.75 296.805C1007.19 295.249 1005.08 294.374 1002.88 294.371H806.086Z" fill="#3F3D56"/>
<path d="M888.112 411.688H844.794C843.379 411.686 842.023 411.124 841.023 410.123C840.023 409.123 839.461 407.767 839.459 406.352V355.225C839.461 353.81 840.023 352.454 841.023 351.453C842.023 350.453 843.379 349.89 844.794 349.889H888.112C889.527 349.89 890.883 350.453 891.883 351.453C892.883 352.454 893.445 353.81 893.447 355.225V406.352C893.445 407.767 892.883 409.123 891.883 410.123C890.883 411.124 889.527 411.686 888.112 411.688Z" fill="#4558D6"/>
<path d="M972.283 435.402H928.965C927.55 435.4 926.195 434.838 925.194 433.837C924.194 432.837 923.632 431.481 923.63 430.066V378.939C923.632 377.524 924.194 376.168 925.194 375.168C926.195 374.167 927.55 373.605 928.965 373.603H972.283C973.698 373.605 975.054 374.167 976.054 375.168C977.054 376.168 977.617 377.524 977.618 378.939V430.066C977.617 431.481 977.054 432.837 976.054 433.837C975.054 434.838 973.698 435.4 972.283 435.402Z" fill="#2BD832"/>
<path d="M904.709 507.731H861.391C859.977 507.729 858.621 507.166 857.62 506.166C856.62 505.166 856.058 503.809 856.056 502.395V451.267C856.058 449.853 856.62 448.496 857.62 447.496C858.621 446.496 859.977 445.933 861.391 445.932H904.709C906.124 445.933 907.48 446.496 908.48 447.496C909.48 448.496 910.043 449.853 910.044 451.267V502.395C910.043 503.809 909.48 505.166 908.48 506.166C907.48 507.166 906.124 507.729 904.709 507.731Z" fill="#FF6584"/>
<path d="M746.177 495.04C745.358 493.097 743.988 491.436 742.236 490.264C740.484 489.091 738.426 488.458 736.318 488.443H539.522C536.693 488.444 533.981 489.569 531.98 491.569C529.98 493.57 528.856 496.283 528.854 499.112V748.111C528.856 750.941 529.98 753.654 531.98 755.654C533.981 757.655 536.693 758.779 539.522 758.781H736.318C739.146 758.777 741.857 757.652 743.857 755.651C745.856 753.651 746.982 750.94 746.986 748.111V499.112C746.99 497.714 746.715 496.33 746.177 495.04ZM744.617 748.111C744.614 750.312 743.739 752.421 742.183 753.977C740.627 755.533 738.518 756.409 736.318 756.411H539.522C537.321 756.411 535.21 755.536 533.654 753.98C532.098 752.424 531.224 750.313 531.223 748.111V499.112C531.226 496.912 532.101 494.802 533.657 493.246C535.213 491.69 537.322 490.815 539.522 490.812H736.318C737.975 490.818 739.593 491.318 740.965 492.248C742.337 493.178 743.401 494.496 744.021 496.033C744.142 496.34 744.246 496.652 744.333 496.97C744.521 497.668 744.617 498.388 744.617 499.112V748.111Z" fill="#3F3D56"/>
<path d="M705.102 547.232H645.827C644.569 547.232 643.363 546.732 642.474 545.843C641.584 544.953 641.085 543.747 641.085 542.489C641.085 541.231 641.584 540.025 642.474 539.135C643.363 538.246 644.569 537.746 645.827 537.746H705.102C706.36 537.746 707.566 538.246 708.455 539.135C709.345 540.025 709.844 541.231 709.844 542.489C709.844 543.747 709.345 544.953 708.455 545.843C707.566 546.732 706.36 547.232 705.102 547.232Z" fill="#3F3D56"/>
<path d="M705.102 572.132H645.827C644.569 572.132 643.363 571.632 642.474 570.743C641.584 569.853 641.085 568.647 641.085 567.389C641.085 566.131 641.584 564.925 642.474 564.035C643.363 563.146 644.569 562.646 645.827 562.646H705.102C706.36 562.646 707.566 563.146 708.455 564.035C709.345 564.925 709.844 566.131 709.844 567.389C709.844 568.647 709.345 569.853 708.455 570.743C707.566 571.632 706.36 572.132 705.102 572.132Z" fill="#3F3D56"/>
<path d="M615.413 586.31H572.094C570.68 586.308 569.324 585.746 568.324 584.745C567.323 583.745 566.761 582.389 566.759 580.974V529.847C566.761 528.432 567.323 527.076 568.324 526.076C569.324 525.075 570.68 524.513 572.094 524.511H615.413C616.827 524.513 618.183 525.075 619.183 526.076C620.183 527.076 620.746 528.432 620.747 529.847V580.974C620.746 582.389 620.183 583.745 619.183 584.745C618.183 585.746 616.827 586.308 615.413 586.31Z" fill="#4558D6"/>
<path d="M704.692 623.118H570.729C570.106 623.119 569.488 622.997 568.912 622.759C568.336 622.521 567.812 622.172 567.371 621.731C566.93 621.291 566.58 620.768 566.341 620.192C566.102 619.616 565.979 618.998 565.979 618.375C565.979 617.751 566.102 617.134 566.341 616.558C566.58 615.982 566.93 615.459 567.371 615.018C567.812 614.578 568.336 614.228 568.912 613.991C569.488 613.753 570.106 613.631 570.729 613.632H704.692C705.948 613.634 707.152 614.135 708.039 615.024C708.927 615.913 709.425 617.118 709.425 618.375C709.425 619.631 708.927 620.836 708.039 621.725C707.152 622.615 705.948 623.115 704.692 623.118Z" fill="#2BD832"/>
<path d="M704.692 648.017H570.729C570.106 648.018 569.488 647.897 568.912 647.659C568.336 647.421 567.812 647.072 567.371 646.631C566.93 646.191 566.58 645.667 566.341 645.091C566.102 644.516 565.979 643.898 565.979 643.275C565.979 642.651 566.102 642.034 566.341 641.458C566.58 640.882 566.93 640.359 567.371 639.918C567.812 639.477 568.336 639.128 568.912 638.89C569.488 638.653 570.106 638.531 570.729 638.532H704.692C705.949 638.532 707.155 639.031 708.045 639.921C708.934 640.81 709.434 642.017 709.434 643.275C709.434 644.532 708.934 645.739 708.045 646.628C707.155 647.518 705.949 648.017 704.692 648.017Z" fill="#2BD832"/>
<path d="M704.692 672.917H570.729C570.106 672.918 569.488 672.797 568.912 672.559C568.336 672.321 567.812 671.972 567.371 671.531C566.93 671.091 566.58 670.567 566.341 669.991C566.102 669.415 565.979 668.798 565.979 668.175C565.979 667.551 566.102 666.934 566.341 666.358C566.58 665.782 566.93 665.258 567.371 664.818C567.812 664.377 568.336 664.028 568.912 663.79C569.488 663.552 570.106 663.431 570.729 663.432H704.692C705.949 663.432 707.155 663.931 708.045 664.821C708.934 665.71 709.434 666.917 709.434 668.175C709.434 669.432 708.934 670.639 708.045 671.528C707.155 672.418 705.949 672.917 704.692 672.917Z" fill="#2BD832"/>
<path d="M704.692 697.817H570.729C570.106 697.818 569.488 697.696 568.912 697.459C568.336 697.221 567.812 696.872 567.371 696.431C566.93 695.991 566.58 695.467 566.341 694.891C566.102 694.315 565.979 693.698 565.979 693.074C565.979 692.451 566.102 691.833 566.341 691.258C566.58 690.682 566.93 690.158 567.371 689.718C567.812 689.277 568.336 688.928 568.912 688.69C569.488 688.452 570.106 688.33 570.729 688.332H704.692C705.949 688.332 707.155 688.831 708.045 689.721C708.934 690.61 709.434 691.817 709.434 693.074C709.434 694.332 708.934 695.539 708.045 696.428C707.155 697.318 705.949 697.817 704.692 697.817Z" fill="#2BD832"/>
<path d="M704.692 722.717H570.729C570.106 722.718 569.488 722.596 568.912 722.358C568.336 722.121 567.812 721.771 567.371 721.331C566.93 720.89 566.58 720.367 566.341 719.791C566.102 719.215 565.979 718.598 565.979 717.974C565.979 717.351 566.102 716.733 566.341 716.157C566.58 715.581 566.93 715.058 567.371 714.618C567.812 714.177 568.336 713.828 568.912 713.59C569.488 713.352 570.106 713.23 570.729 713.231H704.692C705.948 713.234 707.152 713.734 708.039 714.623C708.927 715.513 709.425 716.718 709.425 717.974C709.425 719.231 708.927 720.436 708.039 721.325C707.152 722.214 705.948 722.715 704.692 722.717Z" fill="#2BD832"/>
<path d="M895.345 589.536L783.157 696.364L784.792 698.081L896.98 591.254L895.345 589.536Z" fill="#2BD832"/>
<path d="M782.11 698.994L796.349 698.827L796.324 696.453L784.632 696.594L785.347 684.923L782.978 684.779L782.11 698.994Z" fill="#2BD832"/>
<path d="M898.023 588.619L897.158 602.835L894.789 602.693L895.502 591.021L883.812 591.161L883.786 588.789L898.023 588.619Z" fill="#2BD832"/>
<path d="M840.068 656.851C847.271 656.851 853.109 651.012 853.109 643.808C853.109 636.605 847.271 630.766 840.068 630.766C832.866 630.766 827.028 636.605 827.028 643.808C827.028 651.012 832.866 656.851 840.068 656.851Z" fill="#2BD832"/>
<path d="M744.978 336.989L632.791 443.817L634.426 445.535L746.613 338.707L744.978 336.989Z" fill="#2BD832"/>
<path d="M631.743 446.448L645.982 446.28L645.957 443.907L634.265 444.047L634.98 432.376L632.611 432.233L631.743 446.448Z" fill="#2BD832"/>
<path d="M747.656 336.072L746.791 350.289L744.422 350.147L745.135 338.474L733.445 338.615L733.419 336.243L747.656 336.072Z" fill="#2BD832"/>
<path d="M689.702 404.305C696.904 404.305 702.742 398.465 702.742 391.262C702.742 384.059 696.904 378.219 689.702 378.219C682.5 378.219 676.661 384.059 676.661 391.262C676.661 398.465 682.5 404.305 689.702 404.305Z" fill="#2BD832"/>
<path d="M1194.01 1031.07H1191.17V1043.84H1194.01V1031.07Z" fill="#3F3D56"/>
<path d="M1313 482.976H1043C1041.67 482.974 1040.4 482.447 1039.47 481.509C1038.53 480.572 1038 479.301 1038 477.976V411C1038 409.674 1038.53 408.404 1039.47 407.466C1040.4 406.529 1041.67 406.002 1043 406H1313C1314.33 406.002 1315.6 406.529 1316.53 407.466C1317.47 408.404 1318 409.674 1318 411V477.976C1318 479.301 1317.47 480.572 1316.53 481.509C1315.6 482.447 1314.33 482.974 1313 482.976ZM1043 408C1042.2 408.001 1041.44 408.317 1040.88 408.88C1040.32 409.442 1040 410.205 1040 411V477.976C1040 478.771 1040.32 479.534 1040.88 480.096C1041.44 480.658 1042.2 480.975 1043 480.976H1313C1313.8 480.975 1314.56 480.658 1315.12 480.096C1315.68 479.534 1316 478.771 1316 477.976V411C1316 410.205 1315.68 409.442 1315.12 408.88C1314.56 408.317 1313.8 408.001 1313 408H1043Z" fill="#3F3D56"/>
<path d="M1086.5 455C1085.57 455 1084.68 455.369 1084.03 456.025C1083.37 456.682 1083 457.572 1083 458.5C1083 459.428 1083.37 460.319 1084.03 460.975C1084.68 461.631 1085.57 462 1086.5 462H1251.5C1252.43 462 1253.32 461.631 1253.97 460.975C1254.63 460.319 1255 459.428 1255 458.5C1255 457.572 1254.63 456.682 1253.97 456.025C1253.32 455.369 1252.43 455 1251.5 455H1086.5Z" fill="#2BD832"/>
<path d="M1108.5 428C1107.57 428 1106.68 428.369 1106.03 429.025C1105.37 429.682 1105 430.572 1105 431.5C1105 432.428 1105.37 433.319 1106.03 433.975C1106.68 434.631 1107.57 435 1108.5 435H1197.5C1198.43 435 1199.32 434.631 1199.97 433.975C1200.63 433.319 1201 432.428 1201 431.5C1201 430.572 1200.63 429.682 1199.97 429.025C1199.32 428.369 1198.43 428 1197.5 428H1108.5Z" fill="#2BD832"/>
<path d="M1062 460C1073.6 460 1083 450.598 1083 439C1083 427.402 1073.6 418 1062 418C1050.4 418 1041 427.402 1041 439C1041 450.598 1050.4 460 1062 460Z" fill="#4558D6"/>
<g clip-path="url(#clip1_13_2)">
<path d="M258.521 332.705C260.923 332.705 262.869 330.757 262.869 328.353C262.869 325.949 260.923 324 258.521 324C256.12 324 254.173 325.949 254.173 328.353C254.173 330.757 256.12 332.705 258.521 332.705Z" fill="#2BD832"/>
<path d="M280.53 332.705C282.932 332.705 284.878 330.757 284.878 328.353C284.878 325.949 282.932 324 280.53 324C278.129 324 276.182 325.949 276.182 328.353C276.182 330.757 278.129 332.705 280.53 332.705Z" fill="#2BD832"/>
<path d="M302.54 332.705C304.941 332.705 306.888 330.757 306.888 328.353C306.888 325.949 304.941 324 302.54 324C300.138 324 298.192 325.949 298.192 328.353C298.192 330.757 300.138 332.705 302.54 332.705Z" fill="#2BD832"/>
<path d="M324.549 332.705C326.95 332.705 328.897 330.757 328.897 328.353C328.897 325.949 326.95 324 324.549 324C322.148 324 320.201 325.949 320.201 328.353C320.201 330.757 322.148 332.705 324.549 332.705Z" fill="#2BD832"/>
<path d="M346.558 332.705C348.959 332.705 350.906 330.757 350.906 328.353C350.906 325.949 348.959 324 346.558 324C344.157 324 342.21 325.949 342.21 328.353C342.21 330.757 344.157 332.705 346.558 332.705Z" fill="#2BD832"/>
<path d="M258.521 355.016C260.923 355.016 262.869 353.067 262.869 350.663C262.869 348.259 260.923 346.31 258.521 346.31C256.12 346.31 254.173 348.259 254.173 350.663C254.173 353.067 256.12 355.016 258.521 355.016Z" fill="#2BD832"/>
<path d="M280.53 355.016C282.932 355.016 284.878 353.067 284.878 350.663C284.878 348.259 282.932 346.31 280.53 346.31C278.129 346.31 276.182 348.259 276.182 350.663C276.182 353.067 278.129 355.016 280.53 355.016Z" fill="#2BD832"/>
<path d="M302.54 355.016C304.941 355.016 306.888 353.067 306.888 350.663C306.888 348.259 304.941 346.31 302.54 346.31C300.138 346.31 298.192 348.259 298.192 350.663C298.192 353.067 300.138 355.016 302.54 355.016Z" fill="#2BD832"/>
<path d="M324.549 355.016C326.95 355.016 328.897 353.067 328.897 350.663C328.897 348.259 326.95 346.31 324.549 346.31C322.148 346.31 320.201 348.259 320.201 350.663C320.201 353.067 322.148 355.016 324.549 355.016Z" fill="#4558D6"/>
<path d="M346.558 355.016C348.959 355.016 350.906 353.067 350.906 350.663C350.906 348.259 348.959 346.31 346.558 346.31C344.157 346.31 342.21 348.259 342.21 350.663C342.21 353.067 344.157 355.016 346.558 355.016Z" fill="#2BD832"/>
<path d="M390.576 355.016C392.978 355.016 394.924 353.067 394.924 350.663C394.924 348.259 392.978 346.31 390.576 346.31C388.175 346.31 386.229 348.259 386.229 350.663C386.229 353.067 388.175 355.016 390.576 355.016Z" fill="#2BD832"/>
<path d="M258.521 377.326C260.923 377.326 262.869 375.377 262.869 372.973C262.869 370.569 260.923 368.62 258.521 368.62C256.12 368.62 254.173 370.569 254.173 372.973C254.173 375.377 256.12 377.326 258.521 377.326Z" fill="#2BD832"/>
<path d="M280.53 377.326C282.932 377.326 284.878 375.377 284.878 372.973C284.878 370.569 282.932 368.62 280.53 368.62C278.129 368.62 276.182 370.569 276.182 372.973C276.182 375.377 278.129 377.326 280.53 377.326Z" fill="#2BD832"/>
<path d="M302.54 377.326C304.941 377.326 306.888 375.377 306.888 372.973C306.888 370.569 304.941 368.62 302.54 368.62C300.138 368.62 298.192 370.569 298.192 372.973C298.192 375.377 300.138 377.326 302.54 377.326Z" fill="#2BD832"/>
<path d="M324.549 377.326C326.95 377.326 328.897 375.377 328.897 372.973C328.897 370.569 326.95 368.62 324.549 368.62C322.148 368.62 320.201 370.569 320.201 372.973C320.201 375.377 322.148 377.326 324.549 377.326Z" fill="#2BD832"/>
<path d="M346.558 377.326C348.959 377.326 350.906 375.377 350.906 372.973C350.906 370.569 348.959 368.62 346.558 368.62C344.157 368.62 342.21 370.569 342.21 372.973C342.21 375.377 344.157 377.326 346.558 377.326Z" fill="#2BD832"/>
<path d="M258.521 399.636C260.923 399.636 262.869 397.687 262.869 395.283C262.869 392.879 260.923 390.93 258.521 390.93C256.12 390.93 254.173 392.879 254.173 395.283C254.173 397.687 256.12 399.636 258.521 399.636Z" fill="#2BD832"/>
<path d="M280.53 399.636C282.932 399.636 284.878 397.687 284.878 395.283C284.878 392.879 282.932 390.93 280.53 390.93C278.129 390.93 276.182 392.879 276.182 395.283C276.182 397.687 278.129 399.636 280.53 399.636Z" fill="#2BD832"/>
<path d="M302.54 399.636C304.941 399.636 306.888 397.687 306.888 395.283C306.888 392.879 304.941 390.93 302.54 390.93C300.138 390.93 298.192 392.879 298.192 395.283C298.192 397.687 300.138 399.636 302.54 399.636Z" fill="#2BD832"/>
<path d="M324.549 399.636C326.95 399.636 328.897 397.687 328.897 395.283C328.897 392.879 326.95 390.93 324.549 390.93C322.148 390.93 320.201 392.879 320.201 395.283C320.201 397.687 322.148 399.636 324.549 399.636Z" fill="#2BD832"/>
<path d="M346.558 399.636C348.959 399.636 350.906 397.687 350.906 395.283C350.906 392.879 348.959 390.93 346.558 390.93C344.157 390.93 342.21 392.879 342.21 395.283C342.21 397.687 344.157 399.636 346.558 399.636Z" fill="#2BD832"/>
<path d="M368.567 399.636C370.968 399.636 372.915 397.687 372.915 395.283C372.915 392.879 370.968 390.93 368.567 390.93C366.166 390.93 364.219 392.879 364.219 395.283C364.219 397.687 366.166 399.636 368.567 399.636Z" fill="#2BD832"/>
<path d="M390.576 399.636C392.978 399.636 394.924 397.687 394.924 395.283C394.924 392.879 392.978 390.93 390.576 390.93C388.175 390.93 386.229 392.879 386.229 395.283C386.229 397.687 388.175 399.636 390.576 399.636Z" fill="#2BD832"/>
<path d="M412.585 399.636C414.987 399.636 416.933 397.687 416.933 395.283C416.933 392.879 414.987 390.93 412.585 390.93C410.184 390.93 408.238 392.879 408.238 395.283C408.238 397.687 410.184 399.636 412.585 399.636Z" fill="#2BD832"/>
<path d="M434.595 399.636C436.996 399.636 438.943 397.687 438.943 395.283C438.943 392.879 436.996 390.93 434.595 390.93C432.193 390.93 430.247 392.879 430.247 395.283C430.247 397.687 432.193 399.636 434.595 399.636Z" fill="#2BD832"/>
<path d="M456.604 399.636C459.005 399.636 460.952 397.687 460.952 395.283C460.952 392.879 459.005 390.93 456.604 390.93C454.203 390.93 452.256 392.879 452.256 395.283C452.256 397.687 454.203 399.636 456.604 399.636Z" fill="#2BD832"/>
<path d="M346.558 421.946C348.959 421.946 350.906 419.997 350.906 417.593C350.906 415.189 348.959 413.24 346.558 413.24C344.157 413.24 342.21 415.189 342.21 417.593C342.21 419.997 344.157 421.946 346.558 421.946Z" fill="#2BD832"/>
<path d="M368.567 421.946C370.968 421.946 372.915 419.997 372.915 417.593C372.915 415.189 370.968 413.24 368.567 413.24C366.166 413.24 364.219 415.189 364.219 417.593C364.219 419.997 366.166 421.946 368.567 421.946Z" fill="#4558D6"/>
<path d="M390.576 421.946C392.978 421.946 394.924 419.997 394.924 417.593C394.924 415.189 392.978 413.24 390.576 413.24C388.175 413.24 386.229 415.189 386.229 417.593C386.229 419.997 388.175 421.946 390.576 421.946Z" fill="#2BD832"/>
<path d="M412.585 421.946C414.987 421.946 416.933 419.997 416.933 417.593C416.933 415.189 414.987 413.24 412.585 413.24C410.184 413.24 408.238 415.189 408.238 417.593C408.238 419.997 410.184 421.946 412.585 421.946Z" fill="#2BD832"/>
<path d="M434.595 421.946C436.996 421.946 438.943 419.997 438.943 417.593C438.943 415.189 436.996 413.24 434.595 413.24C432.193 413.24 430.247 415.189 430.247 417.593C430.247 419.997 432.193 421.946 434.595 421.946Z" fill="#2BD832"/>
<path d="M456.604 421.946C459.005 421.946 460.952 419.997 460.952 417.593C460.952 415.189 459.005 413.24 456.604 413.24C454.203 413.24 452.256 415.189 452.256 417.593C452.256 419.997 454.203 421.946 456.604 421.946Z" fill="#2BD832"/>
<path d="M346.558 444.256C348.959 444.256 350.906 442.307 350.906 439.903C350.906 437.499 348.959 435.551 346.558 435.551C344.157 435.551 342.21 437.499 342.21 439.903C342.21 442.307 344.157 444.256 346.558 444.256Z" fill="#2BD832"/>
<path d="M368.567 444.256C370.968 444.256 372.915 442.307 372.915 439.903C372.915 437.499 370.968 435.551 368.567 435.551C366.166 435.551 364.219 437.499 364.219 439.903C364.219 442.307 366.166 444.256 368.567 444.256Z" fill="#2BD832"/>
<path d="M390.576 444.256C392.978 444.256 394.924 442.307 394.924 439.903C394.924 437.499 392.978 435.551 390.576 435.551C388.175 435.551 386.229 437.499 386.229 439.903C386.229 442.307 388.175 444.256 390.576 444.256Z" fill="#2BD832"/>
<path d="M412.585 444.256C414.987 444.256 416.933 442.307 416.933 439.903C416.933 437.499 414.987 435.551 412.585 435.551C410.184 435.551 408.238 437.499 408.238 439.903C408.238 442.307 410.184 444.256 412.585 444.256Z" fill="#2BD832"/>
<path d="M434.595 444.256C436.996 444.256 438.943 442.307 438.943 439.903C438.943 437.499 436.996 435.551 434.595 435.551C432.193 435.551 430.247 437.499 430.247 439.903C430.247 442.307 432.193 444.256 434.595 444.256Z" fill="#4558D6"/>
<path d="M456.604 444.256C459.005 444.256 460.952 442.307 460.952 439.903C460.952 437.499 459.005 435.551 456.604 435.551C454.203 435.551 452.256 437.499 452.256 439.903C452.256 442.307 454.203 444.256 456.604 444.256Z" fill="#2BD832"/>
<path d="M346.558 466.566C348.959 466.566 350.906 464.617 350.906 462.213C350.906 459.809 348.959 457.861 346.558 457.861C344.157 457.861 342.21 459.809 342.21 462.213C342.21 464.617 344.157 466.566 346.558 466.566Z" fill="#2BD832"/>
<path d="M368.567 466.566C370.968 466.566 372.915 464.617 372.915 462.213C372.915 459.809 370.968 457.861 368.567 457.861C366.166 457.861 364.219 459.809 364.219 462.213C364.219 464.617 366.166 466.566 368.567 466.566Z" fill="#2BD832"/>
<path d="M390.576 466.566C392.978 466.566 394.924 464.617 394.924 462.213C394.924 459.809 392.978 457.861 390.576 457.861C388.175 457.861 386.229 459.809 386.229 462.213C386.229 464.617 388.175 466.566 390.576 466.566Z" fill="#2BD832"/>
<path d="M412.585 466.566C414.987 466.566 416.933 464.617 416.933 462.213C416.933 459.809 414.987 457.861 412.585 457.861C410.184 457.861 408.238 459.809 408.238 462.213C408.238 464.617 410.184 466.566 412.585 466.566Z" fill="#2BD832"/>
<path d="M434.595 466.566C436.996 466.566 438.943 464.617 438.943 462.213C438.943 459.809 436.996 457.861 434.595 457.861C432.193 457.861 430.247 459.809 430.247 462.213C430.247 464.617 432.193 466.566 434.595 466.566Z" fill="#2BD832"/>
<path d="M456.604 466.566C459.005 466.566 460.952 464.617 460.952 462.213C460.952 459.809 459.005 457.861 456.604 457.861C454.203 457.861 452.256 459.809 452.256 462.213C452.256 464.617 454.203 466.566 456.604 466.566Z" fill="#2BD832"/>
<path d="M258.521 488.876C260.923 488.876 262.869 486.927 262.869 484.523C262.869 482.119 260.923 480.171 258.521 480.171C256.12 480.171 254.173 482.119 254.173 484.523C254.173 486.927 256.12 488.876 258.521 488.876Z" fill="#2BD832"/>
<path d="M280.53 488.876C282.932 488.876 284.878 486.927 284.878 484.523C284.878 482.119 282.932 480.171 280.53 480.171C278.129 480.171 276.182 482.119 276.182 484.523C276.182 486.927 278.129 488.876 280.53 488.876Z" fill="#2BD832"/>
<path d="M302.54 488.876C304.941 488.876 306.888 486.927 306.888 484.523C306.888 482.119 304.941 480.171 302.54 480.171C300.138 480.171 298.192 482.119 298.192 484.523C298.192 486.927 300.138 488.876 302.54 488.876Z" fill="#2BD832"/>
<path d="M324.549 488.876C326.95 488.876 328.897 486.927 328.897 484.523C328.897 482.119 326.95 480.171 324.549 480.171C322.148 480.171 320.201 482.119 320.201 484.523C320.201 486.927 322.148 488.876 324.549 488.876Z" fill="#2BD832"/>
<path d="M346.558 488.876C348.959 488.876 350.906 486.927 350.906 484.523C350.906 482.119 348.959 480.171 346.558 480.171C344.157 480.171 342.21 482.119 342.21 484.523C342.21 486.927 344.157 488.876 346.558 488.876Z" fill="#2BD832"/>
<path d="M368.567 488.876C370.968 488.876 372.915 486.927 372.915 484.523C372.915 482.119 370.968 480.171 368.567 480.171C366.166 480.171 364.219 482.119 364.219 484.523C364.219 486.927 366.166 488.876 368.567 488.876Z" fill="#2BD832"/>
<path d="M390.576 488.876C392.978 488.876 394.924 486.927 394.924 484.523C394.924 482.119 392.978 480.171 390.576 480.171C388.175 480.171 386.229 482.119 386.229 484.523C386.229 486.927 388.175 488.876 390.576 488.876Z" fill="#2BD832"/>
<path d="M412.585 488.876C414.987 488.876 416.933 486.927 416.933 484.523C416.933 482.119 414.987 480.171 412.585 480.171C410.184 480.171 408.238 482.119 408.238 484.523C408.238 486.927 410.184 488.876 412.585 488.876Z" fill="#2BD832"/>
<path d="M434.595 488.876C436.996 488.876 438.943 486.927 438.943 484.523C438.943 482.119 436.996 480.171 434.595 480.171C432.193 480.171 430.247 482.119 430.247 484.523C430.247 486.927 432.193 488.876 434.595 488.876Z" fill="#2BD832"/>
<path d="M456.604 488.876C459.005 488.876 460.952 486.927 460.952 484.523C460.952 482.119 459.005 480.171 456.604 480.171C454.203 480.171 452.256 482.119 452.256 484.523C452.256 486.927 454.203 488.876 456.604 488.876Z" fill="#2BD832"/>
<path d="M258.519 511.185C260.92 511.185 262.867 509.237 262.867 506.833C262.867 504.429 260.92 502.48 258.519 502.48C256.118 502.48 254.171 504.429 254.171 506.833C254.171 509.237 256.118 511.185 258.519 511.185Z" fill="#2BD832"/>
<path d="M280.53 511.186C282.932 511.186 284.878 509.237 284.878 506.833C284.878 504.43 282.932 502.481 280.53 502.481C278.129 502.481 276.182 504.43 276.182 506.833C276.182 509.237 278.129 511.186 280.53 511.186Z" fill="#2BD832"/>
<path d="M258.519 533.496C260.92 533.496 262.867 531.547 262.867 529.143C262.867 526.739 260.92 524.79 258.519 524.79C256.117 524.79 254.171 526.739 254.171 529.143C254.171 531.547 256.117 533.496 258.519 533.496Z" fill="#2BD832"/>
<path d="M280.53 533.496C282.932 533.496 284.878 531.547 284.878 529.144C284.878 526.74 282.932 524.791 280.53 524.791C278.129 524.791 276.182 526.74 276.182 529.144C276.182 531.547 278.129 533.496 280.53 533.496Z" fill="#2BD832"/>
<path d="M324.549 533.496C326.95 533.496 328.897 531.547 328.897 529.144C328.897 526.74 326.95 524.791 324.549 524.791C322.148 524.791 320.201 526.74 320.201 529.144C320.201 531.547 322.148 533.496 324.549 533.496Z" fill="#2BD832"/>
<path d="M543.93 375.354H371.629C370.783 375.353 369.972 375.016 369.374 374.417C368.775 373.818 368.439 373.006 368.438 372.16V329.372C368.439 328.525 368.775 327.713 369.374 327.114C369.972 326.515 370.783 326.178 371.629 326.177H543.93C544.776 326.178 545.587 326.515 546.185 327.114C546.783 327.713 547.119 328.525 547.12 329.372V372.16C547.119 373.006 546.783 373.818 546.185 374.417C545.587 375.016 544.776 375.353 543.93 375.354ZM371.629 327.455C371.121 327.456 370.635 327.658 370.276 328.017C369.917 328.376 369.715 328.864 369.714 329.372V372.16C369.715 372.668 369.917 373.155 370.276 373.514C370.635 373.873 371.121 374.076 371.629 374.076H543.93C544.437 374.076 544.924 373.873 545.283 373.514C545.642 373.155 545.844 372.668 545.844 372.16V329.372C545.844 328.864 545.642 328.376 545.283 328.017C544.924 327.658 544.437 327.456 543.93 327.455H371.629Z" fill="#2BD832"/>
<path d="M393.964 364.181C401.365 364.181 407.365 358.175 407.365 350.765C407.365 343.356 401.365 337.349 393.964 337.349C386.563 337.349 380.563 343.356 380.563 350.765C380.563 358.175 386.563 364.181 393.964 364.181Z" fill="#4558D6"/>
<path d="M424.914 341.822C424.322 341.822 423.754 342.057 423.335 342.476C422.916 342.896 422.681 343.465 422.681 344.058C422.681 344.651 422.916 345.219 423.335 345.639C423.754 346.058 424.322 346.294 424.914 346.294H484.262C484.855 346.294 485.423 346.058 485.842 345.639C486.261 345.219 486.496 344.651 486.496 344.058C486.496 343.465 486.261 342.896 485.842 342.476C485.423 342.057 484.855 341.822 484.262 341.822H424.914Z" fill="#2BD832"/>
<path d="M424.914 355.237C424.322 355.237 423.754 355.473 423.335 355.892C422.916 356.312 422.681 356.88 422.681 357.473C422.681 358.066 422.916 358.635 423.335 359.054C423.754 359.474 424.322 359.709 424.914 359.709H530.209C530.802 359.709 531.37 359.474 531.789 359.054C532.207 358.635 532.443 358.066 532.443 357.473C532.443 356.88 532.207 356.312 531.789 355.892C531.37 355.473 530.802 355.237 530.209 355.237H424.914Z" fill="#2BD832"/>
<path d="M322.492 462.238H150.191C149.345 462.237 148.534 461.9 147.936 461.301C147.337 460.703 147.001 459.891 147 459.044V416.256C147.001 415.409 147.337 414.597 147.936 413.998C148.534 413.4 149.345 413.063 150.191 413.062H322.492C323.338 413.063 324.149 413.4 324.747 413.998C325.345 414.597 325.681 415.409 325.682 416.256V459.044C325.681 459.891 325.345 460.703 324.747 461.301C324.148 461.9 323.338 462.237 322.492 462.238ZM150.191 414.339C149.683 414.34 149.197 414.542 148.838 414.901C148.479 415.261 148.277 415.748 148.276 416.256V459.044C148.277 459.552 148.479 460.039 148.838 460.398C149.197 460.758 149.683 460.96 150.191 460.96H322.492C322.999 460.96 323.486 460.758 323.845 460.398C324.204 460.039 324.405 459.552 324.406 459.044V416.256C324.405 415.748 324.204 415.261 323.845 414.901C323.486 414.542 322.999 414.34 322.492 414.339H150.191Z" fill="#2BD832"/>
<path d="M172.526 451.066C179.927 451.066 185.927 445.059 185.927 437.65C185.927 430.24 179.927 424.234 172.526 424.234C165.125 424.234 159.125 430.24 159.125 437.65C159.125 445.059 165.125 451.066 172.526 451.066Z" fill="#4558D6"/>
<path d="M203.476 428.706C202.884 428.706 202.316 428.941 201.897 429.361C201.478 429.78 201.243 430.349 201.243 430.942C201.243 431.535 201.478 432.104 201.897 432.523C202.316 432.942 202.884 433.178 203.476 433.178H265.377C265.969 433.178 266.537 432.942 266.956 432.523C267.375 432.104 267.61 431.535 267.61 430.942C267.61 430.349 267.375 429.78 266.956 429.361C266.537 428.941 265.969 428.706 265.377 428.706H203.476Z" fill="#2BD832"/>
<path d="M203.476 442.122C202.884 442.122 202.316 442.357 201.897 442.777C201.478 443.196 201.243 443.765 201.243 444.358C201.243 444.951 201.478 445.52 201.897 445.939C202.316 446.358 202.884 446.594 203.476 446.594H308.771C309.363 446.594 309.931 446.358 310.35 445.939C310.769 445.52 311.004 444.951 311.004 444.358C311.004 443.765 310.769 443.196 310.35 442.777C309.931 442.357 309.363 442.122 308.771 442.122H203.476Z" fill="#2BD832"/>
<path d="M637.362 659H467.614C467.445 659 467.282 658.933 467.163 658.813C467.043 658.693 466.976 658.53 466.976 658.361C466.976 658.192 467.043 658.029 467.163 657.909C467.282 657.789 467.445 657.722 467.614 657.722H637.362C637.531 657.722 637.693 657.789 637.813 657.909C637.933 658.029 638 658.192 638 658.361C638 658.53 637.933 658.693 637.813 658.813C637.693 658.933 637.531 659 637.362 659Z" fill="#3F3D56"/>
</g>
</g>
<defs>
<clipPath id="clip0_13_2">
<rect width="1268" height="916" fill="white" transform="translate(116 292)"/>
</clipPath>
<clipPath id="clip1_13_2">
<rect width="491" height="335" fill="white" transform="translate(147 324)"/>
</clipPath>
</defs>
</svg>
