<svg width="1500" height="1500" viewBox="0 0 1500 1500" fill="none" xmlns="http://www.w3.org/2000/svg">
<g clip-path="url(#clip0_3_981)">
<path d="M924.781 452.11H918.976V293.056C918.976 280.967 916.595 268.997 911.97 257.828C907.344 246.659 900.564 236.511 892.017 227.963C883.469 219.414 873.322 212.634 862.155 208.007C850.987 203.381 839.018 201 826.93 201H489.992C477.904 201 465.935 203.381 454.767 208.007C443.6 212.634 433.453 219.414 424.905 227.962C416.358 236.511 409.578 246.659 404.952 257.828C400.327 268.996 397.946 280.967 397.946 293.056V1165.64C397.946 1190.05 407.643 1213.47 424.905 1230.73C442.167 1248 465.579 1257.7 489.991 1257.7H826.93C851.342 1257.7 874.754 1248 892.016 1230.73C909.278 1213.47 918.976 1190.05 918.976 1165.64V565.328H924.781V452.11Z" fill="#E6E6E6"/>
<path d="M830.644 224.95H786.662C788.685 229.909 789.457 235.29 788.911 240.618C788.364 245.946 786.516 251.058 783.529 255.503C780.542 259.949 776.507 263.591 771.781 266.11C767.055 268.628 761.781 269.946 756.426 269.946H563.398C558.043 269.946 552.77 268.628 548.043 266.11C543.317 263.591 539.283 259.949 536.295 255.503C533.308 251.058 531.46 245.946 530.913 240.618C530.367 235.29 531.139 229.909 533.162 224.95H492.083C473.852 224.95 456.368 232.193 443.477 245.085C430.586 257.978 423.344 275.463 423.344 293.696V1165C423.344 1174.03 425.122 1182.97 428.576 1191.31C432.031 1199.65 437.094 1207.23 443.477 1213.61C449.86 1219.99 457.438 1225.06 465.777 1228.51C474.117 1231.97 483.056 1233.75 492.083 1233.75H830.644C839.671 1233.75 848.61 1231.97 856.949 1228.51C865.289 1225.06 872.867 1219.99 879.25 1213.61C885.633 1207.23 890.696 1199.65 894.15 1191.31C897.605 1182.97 899.383 1174.03 899.383 1165V293.696C899.383 284.668 897.605 275.729 894.15 267.388C890.696 259.047 885.633 251.469 879.25 245.085C872.867 238.701 865.289 233.638 856.949 230.183C848.609 226.728 839.671 224.95 830.644 224.95V224.95Z" fill="white"/>
<path d="M596.429 1292.67H592.074L600.784 710.436H605.14L596.429 1292.67Z" fill="#3F3D56"/>
<path d="M715.475 1292.67H711.12L702.409 710.436H706.765L715.475 1292.67Z" fill="#3F3D56"/>
<path d="M703.861 722.052H602.237V726.408H703.861V722.052Z" fill="#3F3D56"/>
<path d="M703.861 797.554H602.237V801.91H703.861V797.554Z" fill="#3F3D56"/>
<path d="M706.765 873.055H600.785V877.411H706.765V873.055Z" fill="#3F3D56"/>
<path d="M708.217 948.556H600.785V952.912H708.217V948.556Z" fill="#3F3D56"/>
<path d="M709.669 1024.06H599.333V1028.41H709.669V1024.06Z" fill="#3F3D56"/>
<path d="M709.668 1099.56H597.881V1103.91H709.668V1099.56Z" fill="#3F3D56"/>
<path d="M711.12 1175.06H596.43V1179.42H711.12V1175.06Z" fill="#3F3D56"/>
<path d="M712.572 1250.56H593.526V1254.92H712.572V1250.56Z" fill="#3F3D56"/>
<path d="M648.21 994.097C681.896 994.097 709.203 966.787 709.203 933.097C709.203 899.408 681.896 872.098 648.21 872.098C614.525 872.098 587.218 899.408 587.218 933.097C587.218 966.787 614.525 994.097 648.21 994.097Z" fill="#DA628D"/>
<path d="M684.087 975.259L665.854 978.56L671.767 1011.23L690 1007.93L684.087 975.259Z" fill="#DA628D"/>
<path d="M647.62 981.861L629.387 985.162L635.301 1017.83L653.534 1014.53L647.62 981.861Z" fill="#DA628D"/>
<path d="M644.98 1024.7C651.488 1019.19 655.088 1012.74 653.021 1010.3C650.955 1007.86 644.004 1010.35 637.496 1015.86C630.988 1021.38 627.388 1027.82 629.455 1030.26C631.522 1032.71 638.473 1030.22 644.98 1024.7Z" fill="#DA628D"/>
<path d="M680.687 1018.24C687.195 1012.73 690.795 1006.28 688.728 1003.84C686.661 1001.4 679.71 1003.89 673.202 1009.4C666.695 1014.91 663.095 1021.36 665.161 1023.8C667.228 1026.24 674.179 1023.75 680.687 1018.24Z" fill="#DA628D"/>
<path d="M643.94 939.024C655.453 939.024 664.786 929.69 664.786 918.176C664.786 906.662 655.453 897.328 643.94 897.328C632.428 897.328 623.095 906.662 623.095 918.176C623.095 929.69 632.428 939.024 643.94 939.024Z" fill="white"/>
<path d="M635.373 917.653C639.21 917.653 642.321 914.542 642.321 910.703C642.321 906.865 639.21 903.754 635.373 903.754C631.535 903.754 628.424 906.865 628.424 910.703C628.424 914.542 631.535 917.653 635.373 917.653Z" fill="#3F3D56"/>
<path d="M696.325 866.736C697.242 844.153 677.781 825.025 652.857 824.013C627.934 823 606.986 840.486 606.068 863.069C605.151 885.652 622.476 890.783 647.4 891.796C672.324 892.808 695.408 889.319 696.325 866.736Z" fill="#ECC94B"/>
<path d="M621.617 928.798C622.799 923.644 610.448 916.415 594.031 912.651C577.614 908.888 563.348 910.015 562.167 915.17C560.985 920.324 573.336 927.553 589.753 931.317C606.17 935.08 620.436 933.953 621.617 928.798Z" fill="#DA628D"/>
<path d="M741.344 948.711C742.525 943.557 730.174 936.327 713.757 932.564C697.34 928.801 683.074 929.928 681.893 935.082C680.712 940.237 693.062 947.466 709.479 951.23C725.896 954.993 740.162 953.866 741.344 948.711Z" fill="#DA628D"/>
<path d="M664.962 957.136C665.291 958.933 665.262 960.776 664.877 962.561C664.493 964.346 663.761 966.038 662.722 967.54C661.684 969.042 660.36 970.325 658.825 971.315C657.291 972.305 655.577 972.983 653.781 973.31C651.984 973.637 650.141 973.606 648.357 973.221C646.572 972.835 644.881 972.102 643.38 971.062C641.879 970.022 640.597 968.697 639.608 967.162C638.62 965.627 637.943 963.912 637.617 962.115L637.613 962.088C636.245 954.535 642.085 951.862 649.637 950.495C657.19 949.127 663.595 949.583 664.962 957.136Z" fill="white"/>
<path d="M858.516 571.596L468.099 606.59C466.182 606.76 464.276 606.162 462.799 604.928C461.323 603.694 460.395 601.925 460.221 600.008L451.542 503.151C451.372 501.234 451.97 499.328 453.204 497.851C454.438 496.373 456.207 495.446 458.124 495.272L848.54 460.278C850.457 460.108 852.363 460.706 853.84 461.94C855.317 463.174 856.244 464.943 856.418 466.86L865.098 563.717C865.267 565.634 864.67 567.54 863.436 569.018C862.202 570.495 860.432 571.422 858.516 571.596V571.596ZM458.383 498.164C457.233 498.269 456.171 498.825 455.431 499.711C454.69 500.598 454.332 501.741 454.434 502.892L463.113 599.749C463.218 600.899 463.774 601.96 464.66 602.701C465.546 603.441 466.69 603.8 467.84 603.698L858.257 568.704C859.407 568.599 860.468 568.043 861.209 567.157C861.949 566.27 862.308 565.127 862.206 563.976L853.526 467.119C853.422 465.969 852.865 464.908 851.979 464.167C851.093 463.427 849.95 463.068 848.799 463.17L458.383 498.164Z" fill="#E6E6E6"/>
<path d="M513.721 576.885C530.558 576.885 544.208 563.234 544.208 546.394C544.208 529.555 530.558 515.904 513.721 515.904C496.883 515.904 483.233 529.555 483.233 546.394C483.233 563.234 496.883 576.885 513.721 576.885Z" fill="#3F3D56"/>
<path d="M582.037 519.862C581.372 519.922 580.726 520.112 580.135 520.421C579.543 520.731 579.019 521.153 578.591 521.666C578.163 522.178 577.84 522.769 577.641 523.406C577.442 524.043 577.37 524.713 577.429 525.378C577.489 526.042 577.679 526.689 577.988 527.28C578.298 527.871 578.72 528.396 579.232 528.824C579.745 529.252 580.336 529.574 580.973 529.774C581.61 529.973 582.279 530.045 582.944 529.985L821.531 508.6C822.196 508.54 822.842 508.35 823.434 508.041C824.025 507.732 824.549 507.309 824.977 506.797C825.405 506.285 825.728 505.693 825.927 505.056C826.126 504.419 826.198 503.749 826.139 503.085C826.079 502.42 825.889 501.774 825.58 501.182C825.271 500.591 824.848 500.066 824.336 499.639C823.824 499.211 823.232 498.888 822.596 498.689C821.959 498.489 821.289 498.417 820.624 498.477L582.037 519.862Z" fill="#E6E6E6"/>
<path d="M584.758 550.232C584.092 550.289 583.443 550.477 582.849 550.785C582.256 551.094 581.729 551.516 581.299 552.029C580.869 552.541 580.545 553.134 580.344 553.772C580.144 554.411 580.071 555.082 580.131 555.748C580.191 556.415 580.381 557.063 580.692 557.655C581.003 558.248 581.427 558.773 581.942 559.201C582.456 559.629 583.05 559.951 583.689 560.149C584.328 560.347 584.999 560.417 585.665 560.355L824.253 538.969C825.594 538.847 826.832 538.198 827.695 537.164C828.558 536.13 828.975 534.796 828.855 533.454C828.735 532.113 828.087 530.874 827.054 530.01C826.021 529.146 824.687 528.727 823.346 528.846L584.758 550.232Z" fill="#E6E6E6"/>
<path d="M716.017 594.343C722.181 578.213 723.074 563.569 718.011 561.633C712.948 559.698 703.847 571.205 697.682 587.334C691.518 603.464 690.625 618.108 695.688 620.044C700.751 621.979 709.853 610.472 716.017 594.343Z" fill="#DA628D"/>
<path d="M710.776 648.075C716.307 613.986 693.159 581.867 659.074 576.335C624.989 570.803 592.873 593.953 587.342 628.042C581.81 662.132 604.958 694.251 639.043 699.783C673.129 705.315 705.244 682.164 710.776 648.075Z" fill="#DA628D"/>
<path d="M639.561 687.134H620.567V721.17H639.561V687.134Z" fill="#DA628D"/>
<path d="M677.551 687.134H658.556V721.17H677.551V687.134Z" fill="#DA628D"/>
<path d="M636.396 727.503C645.138 727.503 652.225 724.845 652.225 721.566C652.225 718.287 645.138 715.629 636.396 715.629C627.654 715.629 620.567 718.287 620.567 721.566C620.567 724.845 627.654 727.503 636.396 727.503Z" fill="#DA628D"/>
<path d="M674.385 726.711C683.127 726.711 690.214 724.053 690.214 720.774C690.214 717.496 683.127 714.838 674.385 714.838C665.643 714.838 658.556 717.496 658.556 720.774C658.556 724.053 665.643 726.711 674.385 726.711Z" fill="#DA628D"/>
<path d="M588.408 579.906C583.36 557.294 599.498 534.445 624.454 528.872C649.41 523.299 673.734 537.112 678.782 559.724C683.831 582.337 667.291 590.676 642.335 596.249C617.379 601.823 593.457 602.519 588.408 579.906Z" fill="#ECC94B"/>
<path d="M606.882 622.442C609.204 617.544 598.441 607.575 582.841 600.175C567.241 592.776 552.712 590.748 550.389 595.646C548.067 600.543 558.83 610.513 574.43 617.912C590.03 625.312 604.559 627.34 606.882 622.442Z" fill="#DA628D"/>
<path d="M272.354 1272.09C306.885 1272.09 334.878 1244.09 334.878 1209.56C334.878 1175.02 306.885 1147.02 272.354 1147.02C237.822 1147.02 209.829 1175.02 209.829 1209.56C209.829 1244.09 237.822 1272.09 272.354 1272.09Z" fill="#DA628D"/>
<path d="M262.856 1258.63H243.862V1292.67H262.856V1258.63Z" fill="#DA628D"/>
<path d="M300.846 1258.63H281.851V1292.67H300.846V1258.63Z" fill="#DA628D"/>
<path d="M259.691 1299C268.433 1299 275.52 1296.34 275.52 1293.06C275.52 1289.78 268.433 1287.13 259.691 1287.13C250.948 1287.13 243.862 1289.78 243.862 1293.06C243.862 1296.34 250.948 1299 259.691 1299Z" fill="#DA628D"/>
<path d="M297.68 1298.21C306.422 1298.21 313.509 1295.55 313.509 1292.27C313.509 1288.99 306.422 1286.34 297.68 1286.34C288.938 1286.34 281.851 1288.99 281.851 1292.27C281.851 1295.55 288.938 1298.21 297.68 1298.21Z" fill="#DA628D"/>
<path d="M273.937 1215.1C285.739 1215.1 295.306 1205.53 295.306 1193.73C295.306 1181.92 285.739 1172.35 273.937 1172.35C262.135 1172.35 252.568 1181.92 252.568 1193.73C252.568 1205.53 262.135 1215.1 273.937 1215.1Z" fill="white"/>
<path d="M273.937 1200.85C277.871 1200.85 281.06 1197.66 281.06 1193.73C281.06 1189.79 277.871 1186.6 273.937 1186.6C270.003 1186.6 266.814 1189.79 266.814 1193.73C266.814 1197.66 270.003 1200.85 273.937 1200.85Z" fill="#3F3D56"/>
<path d="M211.703 1151.4C206.654 1128.79 222.793 1105.94 247.749 1100.37C272.705 1094.8 297.028 1108.61 302.077 1131.22C307.125 1153.83 290.586 1162.17 265.63 1167.75C240.674 1173.32 216.752 1174.02 211.703 1151.4Z" fill="#E6E6E6"/>
<path d="M317.943 986.161C324.107 970.032 325 955.387 319.937 953.452C314.874 951.516 305.773 963.023 299.609 979.152C293.444 995.282 292.551 1009.93 297.614 1011.86C302.677 1013.8 311.779 1002.29 317.943 986.161Z" fill="#DA628D"/>
<path d="M312.702 1039.89C318.233 1005.8 295.085 973.685 261 968.153C226.915 962.621 194.799 985.771 189.268 1019.86C183.736 1053.95 206.884 1086.07 240.969 1091.6C275.055 1097.13 307.17 1073.98 312.702 1039.89Z" fill="#DA628D"/>
<path d="M241.487 1078.95H222.493V1112.99H241.487V1078.95Z" fill="#DA628D"/>
<path d="M279.477 1078.95H260.482V1112.99H279.477V1078.95Z" fill="#DA628D"/>
<path d="M238.322 1119.32C247.064 1119.32 254.151 1116.66 254.151 1113.38C254.151 1110.11 247.064 1107.45 238.322 1107.45C229.58 1107.45 222.493 1110.11 222.493 1113.38C222.493 1116.66 229.58 1119.32 238.322 1119.32Z" fill="#DA628D"/>
<path d="M276.311 1118.53C285.053 1118.53 292.14 1115.87 292.14 1112.59C292.14 1109.31 285.053 1106.66 276.311 1106.66C267.569 1106.66 260.482 1109.31 260.482 1112.59C260.482 1115.87 267.569 1118.53 276.311 1118.53Z" fill="#DA628D"/>
<path d="M252.568 1035.42C264.369 1035.42 273.937 1025.85 273.937 1014.05C273.937 1002.24 264.369 992.675 252.568 992.675C240.766 992.675 231.198 1002.24 231.198 1014.05C231.198 1025.85 240.766 1035.42 252.568 1035.42Z" fill="white"/>
<path d="M252.568 1021.17C256.502 1021.17 259.691 1017.98 259.691 1014.05C259.691 1010.11 256.502 1006.92 252.568 1006.92C248.634 1006.92 245.445 1010.11 245.445 1014.05C245.445 1017.98 248.634 1021.17 252.568 1021.17Z" fill="#3F3D56"/>
<path d="M190.334 971.724C185.285 949.112 201.424 926.263 226.38 920.69C251.336 915.117 275.659 928.93 280.708 951.542C285.756 974.155 269.217 982.494 244.261 988.068C219.305 993.641 195.383 994.337 190.334 971.724Z" fill="#ECC94B"/>
<path d="M208.808 1014.26C211.13 1009.36 200.367 999.393 184.767 991.994C169.167 984.594 154.638 982.566 152.315 987.464C149.993 992.362 160.756 1002.33 176.356 1009.73C191.956 1017.13 206.485 1019.16 208.808 1014.26Z" fill="#DA628D"/>
<path d="M220.273 1052.44C220.273 1058.56 236.03 1070.64 253.514 1070.64C270.998 1070.64 287.391 1053.41 287.391 1047.29C287.391 1041.17 270.998 1048.48 253.514 1048.48C236.03 1048.48 220.273 1046.32 220.273 1052.44Z" fill="white"/>
<path d="M519.81 1031.34C525.974 1015.22 526.867 1000.57 521.804 998.635C516.741 996.7 507.64 1008.21 501.475 1024.34C495.311 1040.47 494.418 1055.11 499.481 1057.05C504.544 1058.98 513.646 1047.47 519.81 1031.34Z" fill="#DA628D"/>
<path d="M527.634 1098.14C533.166 1064.06 510.018 1031.94 475.933 1026.4C441.847 1020.87 409.732 1044.02 404.2 1078.11C398.669 1112.2 421.817 1144.32 455.902 1149.85C489.987 1155.38 522.103 1132.23 527.634 1098.14Z" fill="#DA628D"/>
<path d="M437.426 1137.2H456.419L452.703 1177.96L437.426 1171.24V1137.2Z" fill="#DA628D"/>
<path d="M453.483 1189.94C456.371 1188.39 455.36 1180.89 451.225 1173.18C447.089 1165.48 441.396 1160.49 438.507 1162.04C435.619 1163.59 436.63 1171.1 440.765 1178.8C444.901 1186.5 450.595 1191.49 453.483 1189.94Z" fill="#DA628D"/>
<path d="M478.835 1137.31H497.83L494.114 1178.07L478.835 1171.35V1137.31Z" fill="#DA628D"/>
<path d="M494.893 1190.04C497.782 1188.49 496.771 1180.99 492.635 1173.29C488.5 1165.59 482.806 1160.6 479.918 1162.15C477.029 1163.7 478.04 1171.2 482.176 1178.91C486.311 1186.61 492.005 1191.6 494.893 1190.04Z" fill="#DA628D"/>
<path d="M467.5 1093.67C479.302 1093.67 488.869 1084.1 488.869 1072.3C488.869 1060.49 479.302 1050.93 467.5 1050.93C455.698 1050.93 446.131 1060.49 446.131 1072.3C446.131 1084.1 455.698 1093.67 467.5 1093.67Z" fill="white"/>
<path d="M467.5 1079.42C471.434 1079.42 474.623 1076.23 474.623 1072.3C474.623 1068.36 471.434 1065.17 467.5 1065.17C463.566 1065.17 460.377 1068.36 460.377 1072.3C460.377 1076.23 463.566 1079.42 467.5 1079.42Z" fill="#3F3D56"/>
<path d="M405.267 1029.98C400.218 1007.36 416.356 984.515 441.312 978.941C466.268 973.368 490.592 987.181 495.64 1009.79C500.689 1032.41 484.15 1040.75 459.194 1046.32C434.238 1051.89 410.315 1052.59 405.267 1029.98Z" fill="#F2F2F2"/>
<path d="M418.423 1069.74C422.783 1066.52 418.002 1052.65 407.744 1038.76C397.486 1024.87 385.636 1016.22 381.276 1019.44C376.916 1022.67 381.697 1036.54 391.955 1050.43C402.213 1064.31 414.063 1072.96 418.423 1069.74Z" fill="#DA628D"/>
<path d="M496.423 1120.37C496.423 1115.33 483.437 1105.37 469.027 1105.37C454.617 1105.37 441.106 1119.57 441.106 1124.61C441.106 1129.66 454.617 1123.63 469.027 1123.63C483.437 1123.63 496.423 1125.41 496.423 1120.37Z" fill="white"/>
<path d="M430.926 1035.78C412.813 1035.78 394.875 1032.22 378.138 1025.29C361.402 1018.36 346.195 1008.2 333.386 995.393C320.578 982.583 310.419 967.374 303.49 950.636C296.562 933.897 293 915.957 293.007 897.841C293.007 897.553 293.008 897.249 293.024 896.96C293.447 821.422 355.311 759.906 430.926 759.906C462.039 759.911 492.237 770.434 516.616 789.768C540.994 809.102 558.121 836.111 565.215 866.408C572.309 896.705 568.953 928.511 555.693 956.66C542.432 984.809 520.046 1007.65 492.17 1021.47C473.146 1030.94 452.176 1035.83 430.926 1035.78ZM430.926 762.81C395.28 762.889 361.105 777.033 335.827 802.169C310.549 827.305 296.21 861.402 295.926 897.051C295.91 897.359 295.911 897.607 295.911 897.841C295.902 932.085 308.902 965.053 332.279 990.073C355.657 1015.09 387.666 1030.29 421.828 1032.6C455.99 1034.91 489.752 1024.15 516.282 1002.5C542.811 980.854 560.126 949.934 564.721 916.001C567.317 896.908 565.796 877.481 560.26 859.025C554.725 840.569 545.303 823.512 532.629 809C519.955 794.488 504.321 782.858 486.779 774.891C469.237 766.924 450.193 762.805 430.926 762.81Z" fill="#3F3D56"/>
<path d="M493.386 904.519L398.987 850.012C398.546 849.757 398.045 849.623 397.536 849.623C397.026 849.623 396.525 849.757 396.084 850.012C395.642 850.266 395.276 850.633 395.021 851.075C394.766 851.516 394.632 852.017 394.632 852.526V961.541C394.632 962.051 394.766 962.551 395.021 962.993C395.276 963.434 395.642 963.801 396.084 964.056C396.525 964.311 397.026 964.445 397.536 964.445C398.045 964.445 398.546 964.311 398.987 964.056L493.386 909.548C493.827 909.294 494.194 908.927 494.448 908.486C494.703 908.044 494.837 907.543 494.837 907.034C494.837 906.524 494.703 906.023 494.448 905.582C494.194 905.14 493.827 904.774 493.386 904.519L398.987 850.012C398.546 849.757 398.045 849.623 397.536 849.623C397.026 849.623 396.525 849.757 396.084 850.012C395.642 850.266 395.276 850.633 395.021 851.075C394.766 851.516 394.632 852.017 394.632 852.526V961.541C394.632 962.051 394.766 962.551 395.021 962.993C395.276 963.434 395.642 963.801 396.084 964.056C396.525 964.311 397.026 964.445 397.536 964.445C398.045 964.445 398.546 964.311 398.987 964.056L493.386 909.548C493.827 909.294 494.194 908.927 494.448 908.486C494.703 908.044 494.837 907.543 494.837 907.034C494.837 906.524 494.703 906.023 494.448 905.582C494.194 905.14 493.827 904.774 493.386 904.519Z" fill="#ECC94B"/>
<path d="M481.739 1289.76C524.234 1289.76 558.683 1288.46 558.683 1286.86C558.683 1285.26 524.234 1283.96 481.739 1283.96C439.244 1283.96 404.795 1285.26 404.795 1286.86C404.795 1288.46 439.244 1289.76 481.739 1289.76Z" fill="#E6E6E6"/>
<path d="M1270.06 1262.18C1312.55 1262.18 1347 1260.88 1347 1259.27C1347 1257.67 1312.55 1256.37 1270.06 1256.37C1227.56 1256.37 1193.11 1257.67 1193.11 1259.27C1193.11 1260.88 1227.56 1262.18 1270.06 1262.18Z" fill="#E6E6E6"/>
<path d="M1269.69 1256.83L924.649 1070.8C922.957 1069.88 921.696 1068.33 921.144 1066.49C920.592 1064.65 920.793 1062.66 921.705 1060.96L967.845 975.365C968.76 973.672 970.309 972.411 972.153 971.859C973.996 971.307 975.984 971.508 977.679 972.42L1322.72 1158.45C1324.41 1159.36 1325.67 1160.91 1326.22 1162.76C1326.77 1164.6 1326.57 1166.59 1325.66 1168.28L1279.52 1253.88C1278.61 1255.57 1277.06 1256.84 1275.21 1257.39C1273.37 1257.94 1271.38 1257.74 1269.69 1256.83V1256.83ZM976.301 974.976C975.284 974.429 974.092 974.308 972.985 974.639C971.879 974.97 970.95 975.727 970.401 976.743L924.26 1062.34C923.713 1063.36 923.592 1064.55 923.924 1065.66C924.255 1066.76 925.011 1067.69 926.027 1068.24L1271.06 1254.27C1272.08 1254.82 1273.27 1254.94 1274.38 1254.61C1275.49 1254.28 1276.42 1253.52 1276.97 1252.5L1323.11 1166.9C1323.65 1165.89 1323.77 1164.7 1323.44 1163.59C1323.11 1162.48 1322.35 1161.55 1321.34 1161L976.301 974.976Z" fill="#E6E6E6"/>
<path d="M995.891 1076.21C1012.73 1076.21 1026.38 1062.56 1026.38 1045.72C1026.38 1028.88 1012.73 1015.23 995.891 1015.23C979.054 1015.23 965.404 1028.88 965.404 1045.72C965.404 1062.56 979.054 1076.21 995.891 1076.21Z" fill="#ECC94B"/>
<path d="M1067.52 1061.25C1066.93 1060.93 1066.28 1060.73 1065.62 1060.66C1064.96 1060.6 1064.28 1060.66 1063.65 1060.85C1063.01 1061.04 1062.41 1061.36 1061.89 1061.78C1061.38 1062.2 1060.95 1062.72 1060.63 1063.31C1060.31 1063.9 1060.11 1064.54 1060.05 1065.2C1059.98 1065.87 1060.04 1066.54 1060.23 1067.18C1060.43 1067.82 1060.74 1068.41 1061.16 1068.93C1061.59 1069.45 1062.11 1069.88 1062.69 1070.19L1273.55 1183.88C1274.14 1184.19 1274.78 1184.39 1275.44 1184.46C1276.11 1184.53 1276.78 1184.46 1277.42 1184.27C1278.06 1184.08 1278.65 1183.77 1279.17 1183.34C1279.69 1182.92 1280.12 1182.4 1280.43 1181.82C1280.75 1181.23 1280.95 1180.58 1281.02 1179.92C1281.08 1179.26 1281.02 1178.59 1280.83 1177.95C1280.64 1177.31 1280.32 1176.71 1279.9 1176.19C1279.48 1175.68 1278.96 1175.25 1278.37 1174.93L1067.52 1061.25Z" fill="#E6E6E6"/>
<path d="M1053.05 1088.09C1051.86 1087.45 1050.47 1087.3 1049.18 1087.69C1047.89 1088.08 1046.8 1088.96 1046.16 1090.15C1045.52 1091.33 1045.38 1092.73 1045.77 1094.02C1046.16 1095.31 1047.04 1096.39 1048.23 1097.03L1259.08 1210.72C1259.67 1211.03 1260.31 1211.23 1260.98 1211.3C1261.64 1211.37 1262.31 1211.3 1262.95 1211.11C1263.59 1210.92 1264.18 1210.6 1264.7 1210.18C1265.22 1209.76 1265.65 1209.24 1265.97 1208.65C1266.28 1208.07 1266.48 1207.42 1266.55 1206.76C1266.62 1206.1 1266.55 1205.42 1266.36 1204.79C1266.17 1204.15 1265.85 1203.55 1265.43 1203.03C1265.01 1202.52 1264.49 1202.09 1263.9 1201.77L1053.05 1088.09Z" fill="#E6E6E6"/>
<path d="M1279.97 883.779C1279.39 883.904 1278.83 884.019 1278.26 884.156C1270.55 885.86 1263.01 888.18 1255.69 891.094C1255.12 891.308 1254.54 891.545 1253.98 891.773C1236.43 898.967 1220.4 909.338 1206.69 922.357C1203.59 925.279 1200.65 928.349 1197.82 931.525C1195.65 933.992 1193.56 936.527 1191.54 939.131C1183.93 949.02 1176.49 960.606 1165.15 965.051C1163.93 965.541 1162.68 965.934 1161.4 966.227C1161.29 966.251 1161.17 966.273 1161.06 966.297C1162.52 960.064 1163.06 953.652 1162.68 947.259C1162.62 946.189 1162.53 945.11 1162.4 944.049C1162.35 943.545 1162.29 943.041 1162.21 942.543C1161.78 939.13 1161.06 935.758 1160.05 932.463C1157.27 922.804 1151.92 914.055 1144.58 907.129C1140.66 912.576 1136.13 917.57 1131.09 922.018C1135.35 916.812 1139.81 911.807 1144.52 907.064C1144.64 906.93 1144.76 906.806 1144.9 906.691C1145.61 905.958 1146.34 905.243 1147.07 904.527C1158.41 893.249 1171.57 883.949 1186.03 877.015C1195.99 872.391 1206.63 869.361 1217.55 868.037C1239.23 865.409 1261.55 869.691 1278.68 882.775C1279.12 883.107 1279.54 883.437 1279.97 883.779Z" fill="#F0F0F0"/>
<path d="M1279.14 884.074C1278.7 884.003 1278.25 883.933 1277.8 883.862C1268.38 882.402 1258.82 882 1249.3 882.662C1248.83 882.699 1248.34 882.733 1247.86 882.767C1234.65 883.806 1221.67 886.9 1209.38 891.938C1209.26 891.984 1209.12 892.039 1208.99 892.097C1206.13 893.29 1203.31 894.59 1200.53 895.997C1195.24 898.525 1190.37 901.88 1186.11 905.938C1182.7 909.375 1180.12 913.564 1178.59 918.172C1178.43 918.627 1178.28 919.097 1178.13 919.555C1178.02 919.935 1177.91 920.3 1177.81 920.68C1176.83 924.242 1176.11 927.931 1174.9 931.424C1174.37 933.02 1173.69 934.565 1172.88 936.038C1171.28 938.879 1168.98 941.251 1166.19 942.914C1165.11 943.574 1163.96 944.132 1162.78 944.581C1162.72 944.074 1162.67 943.567 1162.59 943.067C1163.77 942.606 1164.9 942.032 1165.97 941.353C1167.95 940.097 1169.65 938.426 1170.93 936.452C1171.92 934.908 1172.72 933.254 1173.33 931.525C1174.59 928.106 1175.3 924.453 1176.23 920.969C1176.48 920.066 1176.74 919.18 1177.03 918.312C1178.42 913.851 1180.74 909.737 1183.83 906.246C1187.87 901.984 1192.6 898.445 1197.81 895.781C1201.1 893.996 1204.48 892.381 1207.94 890.943C1208.39 890.748 1208.84 890.553 1209.29 890.384C1231.19 881.598 1254.99 878.866 1278.23 882.471C1278.68 882.529 1279.11 882.609 1279.56 882.679C1280.48 882.826 1280.06 884.232 1279.14 884.074Z" fill="white"/>
<path d="M1207.89 891.331C1206.49 887.081 1206.64 882.453 1208.29 878.275C1209.94 874.097 1213 870.64 1216.91 868.521C1217.71 868.095 1218.39 869.322 1217.59 869.749C1213.94 871.715 1211.1 874.936 1209.57 878.829C1208.03 882.723 1207.92 887.034 1209.24 890.984C1209.52 891.842 1208.17 892.184 1207.89 891.331V891.331Z" fill="white"/>
<path d="M1178.16 917.943C1186.59 922.006 1196.25 923.067 1205.2 920.914C1206.09 920.7 1206.47 921.989 1205.58 922.203C1196.26 924.427 1186.21 923.305 1177.44 919.06C1176.61 918.655 1177.33 917.54 1178.16 917.943V917.943Z" fill="white"/>
<path d="M1249.35 882.541C1249.6 884.277 1250.3 885.942 1251.39 887.385C1252.48 888.829 1253.93 890.005 1255.6 890.81C1256.46 891.22 1255.72 892.396 1254.86 891.989C1253.02 891.092 1251.42 889.791 1250.21 888.199C1249 886.606 1248.22 884.772 1247.93 882.855C1247.88 882.676 1247.91 882.49 1248.01 882.335C1248.11 882.18 1248.26 882.068 1248.45 882.021C1248.64 881.98 1248.84 882.012 1249.01 882.11C1249.18 882.207 1249.3 882.362 1249.35 882.541V882.541Z" fill="white"/>
<path d="M1280.93 995.645C1280.4 995.405 1279.88 995.164 1279.35 994.948L1279.34 994.933L1279.32 994.927C1272.16 991.666 1264.74 989.001 1257.14 986.959L1257.13 986.957C1256.54 986.788 1255.96 986.622 1255.38 986.481L1255.36 986.478C1237.02 981.726 1217.96 980.425 1199.14 982.638C1199.11 982.644 1199.1 982.642 1199.08 982.648C1191.58 983.529 1184.17 984.985 1176.9 987.003C1169.14 989.149 1161.02 991.913 1153.09 992.742C1151.5 992.923 1149.9 993.006 1148.29 992.992C1148.84 992.316 1149.37 991.625 1149.88 990.928C1153.64 985.818 1156.63 980.183 1158.75 974.204C1158.93 973.706 1159.1 973.205 1159.27 972.689C1159.88 970.819 1160.43 968.905 1160.87 966.979C1162.33 960.722 1162.88 954.287 1162.51 947.872C1162.45 946.798 1162.36 945.715 1162.24 944.651C1162.19 944.145 1162.13 943.64 1162.05 943.14C1161.63 939.716 1160.91 936.333 1159.92 933.028C1161.11 932.85 1162.31 932.687 1163.51 932.548C1166.61 932.163 1169.72 931.871 1172.83 931.653L1172.84 931.656C1173.36 931.617 1173.89 931.58 1174.41 931.556C1182.13 931.086 1189.88 931.242 1197.57 932.023C1201.79 932.462 1205.98 933.115 1210.12 933.981C1220.83 936.241 1231.13 940.173 1240.62 945.632C1240.64 945.649 1240.66 945.655 1240.68 945.673C1259.57 956.541 1274.76 973.33 1280.5 994.065C1280.65 994.593 1280.79 995.107 1280.93 995.645Z" fill="#F0F0F0"/>
<path d="M1280.48 995.8C1280.17 995.466 1279.87 995.147 1279.56 994.826L1279.55 994.811C1272.92 987.798 1265.53 981.572 1257.54 976.245C1257.14 975.967 1256.73 975.699 1256.33 975.445C1245.16 968.137 1232.93 962.665 1220.08 959.224C1219.94 959.177 1219.81 959.145 1219.67 959.113C1216.68 958.322 1213.66 957.654 1210.61 957.11C1204.88 955.92 1198.98 955.673 1193.14 956.378C1188.34 957.092 1183.76 958.942 1179.76 961.781C1179.34 962.054 1178.95 962.334 1178.56 962.629C1178.24 962.874 1177.93 963.109 1177.62 963.357C1173.37 966.714 1169.39 970.654 1164.42 972.906C1164.12 973.041 1163.83 973.164 1163.54 973.262C1162.16 973.815 1160.72 974.187 1159.26 974.371C1159.44 973.86 1159.62 973.346 1159.78 972.816C1160.75 972.655 1161.7 972.401 1162.62 972.056C1163.12 971.866 1163.62 971.662 1164.1 971.43C1168.6 969.337 1172.32 965.723 1176.19 962.609C1176.89 962.042 1177.59 961.512 1178.31 961.002C1182.14 958.148 1186.51 956.174 1191.13 955.218C1196.91 954.21 1202.81 954.222 1208.57 955.255C1212.27 955.818 1215.94 956.573 1219.56 957.519C1220.03 957.634 1220.51 957.762 1220.98 957.902C1234 961.496 1246.37 967.122 1257.68 974.583C1266.06 980.098 1273.79 986.584 1280.71 993.915C1281.03 994.239 1281.34 994.573 1281.65 994.907C1282.29 995.605 1281.12 996.486 1280.48 995.8Z" fill="white"/>
<path d="M1219.33 958.318C1220.76 954.035 1223.65 950.397 1227.51 948.054C1231.36 945.711 1235.92 944.816 1240.37 945.529C1241.27 945.676 1241.09 947.084 1240.19 946.936C1236.04 946.265 1231.8 947.099 1228.21 949.288C1224.63 951.477 1221.94 954.876 1220.64 958.873C1220.35 959.741 1219.05 959.181 1219.33 958.318L1219.33 958.318Z" fill="white"/>
<path d="M1179.05 961.577C1183.16 970.022 1190.28 976.593 1199 979.981C1199.87 980.316 1199.3 981.648 1198.44 981.314C1189.37 977.772 1181.97 970.918 1177.71 962.12C1177.31 961.282 1178.65 960.743 1179.05 961.577V961.577Z" fill="white"/>
<path d="M1257.79 976.168C1256.87 977.778 1256.36 979.592 1256.28 981.445C1256.21 983.299 1256.58 985.134 1257.37 986.787C1257.78 987.633 1256.44 988.191 1256.04 987.35C1255.18 985.52 1254.77 983.492 1254.85 981.444C1254.92 979.396 1255.48 977.391 1256.48 975.602C1256.56 975.426 1256.7 975.286 1256.88 975.212C1257.05 975.138 1257.24 975.135 1257.42 975.204C1257.59 975.28 1257.73 975.424 1257.8 975.604C1257.87 975.785 1257.86 975.987 1257.79 976.168V976.168Z" fill="white"/>
<path d="M971.583 626.883C959.518 596.092 961.944 557.94 984.307 533.566C989.582 569.158 1007.25 601.717 1034.18 625.482C1044.6 634.609 1057.14 643.673 1059.42 657.36C1060.84 665.876 1057.78 674.658 1052.89 681.774C1048 688.889 1041.39 694.615 1034.86 700.257L1034.06 702.258C1007.9 682.102 983.647 657.674 971.583 626.883Z" fill="#F0F0F0"/>
<path d="M984.827 534.497C978.612 561.019 980.934 588.83 991.463 613.981C993.633 619.435 996.651 624.515 1000.41 629.034C1004.21 633.318 1009.09 636.51 1014.54 638.279C1019.59 640.029 1024.96 641.237 1029.49 644.182C1031.79 645.723 1033.74 647.732 1035.21 650.077C1036.68 652.421 1037.63 655.048 1038.01 657.785C1039.14 664.581 1037.75 671.372 1036.16 677.965C1034.39 685.285 1032.44 692.861 1034.1 700.394C1034.3 701.306 1032.87 701.563 1032.67 700.652C1029.78 687.546 1037.28 675.143 1036.96 662.098C1036.81 656.011 1034.82 649.929 1029.78 646.153C1025.38 642.85 1019.84 641.6 1014.71 639.871C1009.37 638.224 1004.51 635.296 1000.56 631.345C996.586 627.031 993.377 622.075 991.069 616.69C985.68 604.647 982.221 591.836 980.819 578.726C979.136 563.773 980.03 548.646 983.461 533.999C983.673 533.093 985.039 533.597 984.827 534.497L984.827 534.497Z" fill="white"/>
<path d="M987.688 606.132C983.186 607.194 978.379 606.705 974.124 604.751C969.87 602.796 966.445 599.504 964.461 595.462C964.063 594.643 965.379 594.062 965.777 594.883C967.617 598.649 970.808 601.716 974.773 603.528C978.739 605.34 983.218 605.78 987.403 604.766C988.313 604.547 988.592 605.914 987.688 606.132Z" fill="white"/>
<path d="M1011.79 637.941C1016.91 629.723 1018.44 619.894 1016.09 610.417C1015.85 609.478 1017.42 609.241 1017.65 610.179C1020.08 620.045 1018.46 630.269 1013.12 638.81C1012.61 639.624 1011.28 638.751 1011.79 637.941V637.941Z" fill="white"/>
<path d="M980.785 564.384C982.598 564.242 984.367 563.619 985.932 562.572C987.497 561.525 988.81 560.085 989.753 558.383C990.234 557.509 991.401 558.375 990.923 559.244C989.873 561.119 988.422 562.707 986.695 563.868C984.967 565.029 983.018 565.729 981.016 565.905C980.828 565.938 980.637 565.894 980.484 565.781C980.33 565.668 980.224 565.495 980.188 565.296C980.159 565.095 980.205 564.886 980.317 564.715C980.428 564.544 980.597 564.425 980.785 564.384V564.384Z" fill="white"/>
<path d="M1095.91 540.206C1095.63 540.719 1095.35 541.233 1095.08 541.757C1091.37 548.679 1088.24 555.891 1085.7 563.321C1085.5 563.893 1085.3 564.475 1085.11 565.051C1079.19 583.017 1076.68 601.928 1077.7 620.822C1078.11 628.34 1079.1 635.817 1080.65 643.188C1082.79 653.368 1085.93 664.238 1084.61 674.227C1084.49 675.271 1084.3 676.306 1084.04 677.326L1036.74 702.933C1036.6 702.937 1036.47 702.953 1036.34 702.957L1034.49 704.066C1034.39 703.691 1034.28 703.3 1034.18 702.926C1034.12 702.709 1034.06 702.486 1034 702.269C1033.96 702.122 1033.92 701.975 1033.88 701.845C1033.87 701.797 1033.85 701.748 1033.85 701.709C1033.8 701.579 1033.78 701.454 1033.74 701.335C1033.16 699.152 1032.6 696.961 1032.05 694.762C1032.04 694.751 1032.04 694.751 1032.05 694.735C1027.9 677.97 1025.11 660.716 1025.05 643.595C1025.05 643.08 1025.04 642.555 1025.06 642.028C1025.07 634.311 1025.72 626.609 1026.99 618.999C1027.7 614.834 1028.62 610.709 1029.75 606.638C1032.69 596.125 1037.27 586.141 1043.33 577.053C1055.41 558.937 1073.18 544.883 1094.29 540.523C1094.83 540.412 1095.36 540.306 1095.91 540.206Z" fill="#F0F0F0"/>
<path d="M1096.29 540.745C1074.92 558.103 1059.77 581.665 1052.99 608.084C1051.43 613.745 1050.79 619.622 1051.1 625.499C1051.59 631.216 1053.64 636.718 1057.03 641.433C1060.1 645.89 1063.77 650.107 1065.69 655.204C1066.63 657.827 1067 660.609 1066.76 663.367C1066.53 666.125 1065.71 668.796 1064.34 671.207C1061.09 677.302 1055.79 681.869 1050.44 686.156C1044.5 690.916 1038.25 695.768 1035 702.776C1034.61 703.625 1033.27 702.962 1033.67 702.114C1039.33 689.921 1053.09 684.587 1060.83 674.003C1064.44 669.064 1066.54 663.014 1064.72 656.95C1063.13 651.648 1059.35 647.295 1056.2 642.808C1052.82 638.255 1050.63 632.976 1049.81 627.433C1049.19 621.587 1049.6 615.693 1051.01 610.004C1053.97 597.142 1058.99 584.84 1065.87 573.547C1073.66 560.615 1083.67 549.107 1095.47 539.52C1096.2 538.927 1097.01 540.156 1096.29 540.745L1096.29 540.745Z" fill="white"/>
<path d="M1055.25 599.285C1051 597.549 1047.51 594.337 1045.4 590.223C1043.29 586.108 1042.69 581.36 1043.72 576.825C1043.77 576.641 1043.88 576.48 1044.04 576.377C1044.2 576.274 1044.39 576.237 1044.57 576.274C1044.76 576.311 1044.92 576.418 1045.02 576.574C1045.13 576.729 1045.17 576.921 1045.14 577.108C1044.17 581.329 1044.73 585.752 1046.7 589.579C1048.67 593.406 1051.94 596.385 1055.91 597.978C1056.77 598.325 1056.11 599.63 1055.25 599.285L1055.25 599.285Z" fill="white"/>
<path d="M1055.22 639.546C1064.01 635.809 1071.14 628.838 1075.18 620.025C1075.58 619.152 1076.88 619.816 1076.48 620.689C1072.26 629.852 1064.83 637.09 1055.67 640.959C1054.8 641.328 1054.35 639.912 1055.22 639.546L1055.22 639.546Z" fill="white"/>
<path d="M1074.62 562.041C1076.16 562.989 1077.93 563.595 1079.75 563.804C1081.57 564.014 1083.4 563.82 1085.06 563.24C1085.92 562.94 1086.4 564.182 1085.56 564.479C1083.72 565.112 1081.7 565.324 1079.68 565.097C1077.67 564.87 1075.72 564.21 1074 563.176C1073.83 563.09 1073.7 562.951 1073.63 562.788C1073.57 562.625 1073.58 562.451 1073.65 562.299C1073.73 562.149 1073.88 562.038 1074.06 561.99C1074.24 561.941 1074.44 561.96 1074.62 562.041V562.041Z" fill="white"/>
<path d="M1164.77 965.411C1166.22 957.917 1166.48 950.241 1165.52 942.672C1165.45 942.152 1165.38 941.64 1165.29 941.114C1164.85 938.11 1164.21 935.139 1163.37 932.221C1160.47 921.727 1154.8 912.216 1146.97 904.691C1146.81 904.553 1146.67 904.417 1146.53 904.281C1151.28 896.945 1154.3 888.619 1155.35 879.939C1157.34 862.517 1151.57 845.186 1143.19 830.152C1127.64 802.249 1101.32 781.447 1086.5 753.268C1086.32 752.906 1086.12 752.529 1085.93 752.156C1085.73 751.779 1085.55 751.393 1085.35 751.005C1083.42 747.137 1081.75 743.143 1080.35 739.052C1077.97 732.024 1076.33 724.763 1075.47 717.388C1075.18 714.827 1074.96 712.235 1074.85 709.655C1074.72 707.122 1074.68 704.586 1074.73 702.046C1074.78 699.544 1074.91 697.049 1075.12 694.56C1075.33 692.096 1075.62 689.639 1075.99 687.19C1076.36 684.752 1076.8 682.331 1077.31 679.93C1079.83 668.184 1084.18 656.907 1090.2 646.515C1090.4 646.148 1090.61 645.795 1090.84 645.433C1091.05 645.068 1091.27 644.703 1091.49 644.341C1091.68 644.02 1091.87 643.712 1092.07 643.395C1101.58 628.215 1114.76 616.692 1129.88 607.344C1139.32 601.499 1149.23 596.385 1158.9 590.883C1159.25 590.69 1159.6 590.485 1159.95 590.279C1160.32 590.077 1160.69 589.865 1161.06 589.651C1167.18 586.174 1173.11 582.36 1178.81 578.225C1182.12 575.797 1185.28 573.182 1188.3 570.394C1190.41 568.456 1192.45 566.409 1194.37 564.286C1196.22 562.259 1197.97 560.156 1199.61 557.977C1201.19 555.883 1202.68 553.704 1204.04 551.469C1205.36 549.301 1206.56 547.062 1207.64 544.762C1208.7 542.516 1209.62 540.209 1210.41 537.853C1210.42 537.833 1210.43 537.809 1210.44 537.784C1214.51 525.769 1213.81 512.65 1208.47 501.16C1208.28 500.721 1208.07 500.29 1207.85 499.858C1207.64 499.416 1207.42 498.983 1207.18 498.559C1206.04 496.381 1204.73 494.292 1203.28 492.307C1187.8 470.99 1162.94 461.991 1141.1 448.835C1140.75 448.624 1140.41 448.415 1140.06 448.203C1139.7 447.977 1139.34 447.762 1138.98 447.536C1133.36 444.114 1128.04 440.212 1123.09 435.875C1123.03 435.822 1122.98 435.772 1122.91 435.718C1120.13 433.221 1117.55 430.5 1115.2 427.58C1112.92 424.764 1110.92 421.739 1109.21 418.547C1108.77 417.731 1108.35 416.91 1107.96 416.082C1107.03 414.152 1104.37 415.566 1104.66 417.443C1104.68 417.64 1104.74 417.833 1104.82 418.013C1106.18 420.866 1107.75 423.606 1109.54 426.208C1111.88 429.62 1114.53 432.802 1117.47 435.711C1123.21 441.282 1129.57 446.163 1136.44 450.257C1136.8 450.483 1137.16 450.698 1137.52 450.924C1137.88 451.135 1138.23 451.347 1138.59 451.562C1151.83 459.51 1166.3 466.04 1178.64 474.416C1187.98 480.749 1197.03 488.579 1202.9 498.355C1203.14 498.767 1203.38 499.179 1203.61 499.588C1203.85 500 1204.07 500.421 1204.3 500.842C1205.66 503.438 1206.78 506.159 1207.64 508.967C1210.29 518.155 1209.99 527.955 1206.76 536.968C1205.97 539.324 1205.03 541.628 1203.95 543.868C1202.85 546.166 1201.61 548.397 1200.25 550.549C1199.01 552.536 1197.66 554.446 1196.25 556.301C1196.06 556.546 1195.86 556.789 1195.68 557.023C1193.95 559.219 1192.14 561.306 1190.23 563.283C1188.21 565.407 1186.1 567.41 1183.9 569.327C1176.1 575.916 1167.68 581.741 1158.78 586.722C1158.41 586.936 1158.04 587.15 1157.68 587.353C1157.33 587.558 1156.98 587.751 1156.64 587.959C1140.76 597.045 1124.11 605.175 1110.15 616.925C1101.3 624.42 1093.76 633.338 1087.83 643.313C1087.61 643.678 1087.39 644.04 1087.18 644.42C1086.96 644.782 1086.74 645.147 1086.54 645.526C1080.6 655.992 1076.3 667.306 1073.78 679.073C1073.26 681.474 1072.81 683.893 1072.45 686.331C1072.07 688.778 1071.77 691.232 1071.54 693.692C1071.42 694.914 1071.33 696.13 1071.26 697.351C1071.18 698.62 1071.12 699.895 1071.1 701.166C1071.02 703.698 1071.03 706.228 1071.13 708.753C1071.22 711.327 1071.41 713.901 1071.68 716.469C1072.6 725.377 1074.62 734.135 1077.69 742.539C1078.85 745.662 1080.15 748.694 1081.6 751.66C1081.79 752.049 1081.98 752.449 1082.18 752.838C1082.36 753.223 1082.56 753.6 1082.76 753.976C1088.59 765.321 1096.32 775.636 1104.45 785.504C1125.87 811.511 1154.02 839.727 1152 876.372C1151.43 885.431 1148.56 894.198 1143.68 901.847C1140.32 899.166 1136.65 896.905 1132.74 895.113C1120.59 889.775 1107.05 888.447 1094.08 891.321C1093.68 891.413 1093.28 891.506 1092.88 891.598C1092.47 891.712 1092.05 891.813 1091.65 891.93C1083.47 893.988 1076.02 898.289 1070.13 904.35C1068.31 906.314 1066.71 908.466 1065.34 910.769C1064.07 912.931 1063.02 915.216 1062.2 917.588C1061.83 918.672 1061.49 919.803 1061.2 920.958C1060.88 922.206 1060.64 923.473 1060.48 924.751C1060.15 927.277 1060.18 929.835 1060.56 932.352C1060.94 934.983 1061.83 937.512 1063.18 939.798C1063.37 940.109 1063.56 940.42 1063.77 940.711C1065.79 943.533 1068.47 945.81 1071.58 947.338C1074.69 948.866 1078.13 949.598 1081.59 949.468C1083.5 949.438 1085.41 949.236 1087.29 948.866C1087.89 948.76 1088.49 948.627 1089.08 948.468C1089.67 948.332 1090.26 948.172 1090.86 948.001C1096.12 946.355 1101.16 944.034 1105.83 941.096C1113.65 936.31 1121.07 930.906 1128.03 924.937C1129.04 924.071 1130.05 923.191 1131.04 922.295C1136.06 917.816 1140.57 912.79 1144.48 907.31C1151.76 914.245 1157.05 923.014 1159.79 932.705C1160.78 936.01 1161.49 939.394 1161.91 942.82C1161.99 943.32 1162.04 943.825 1162.09 944.331C1162.21 945.396 1162.3 946.479 1162.36 947.554C1162.72 953.972 1162.16 960.411 1160.7 966.673C1160.26 968.6 1159.72 970.516 1159.1 972.387C1158.94 972.904 1158.77 973.405 1158.58 973.904C1156.46 979.888 1153.48 985.529 1149.73 990.645C1149.22 991.343 1148.69 992.035 1148.14 992.712C1138.6 1004.45 1125.93 1013.22 1111.61 1018C1104.22 1020.53 1096.52 1022.03 1088.73 1022.46C1086.38 1022.6 1086.47 1026.28 1088.84 1026.15C1113.61 1024.75 1138.34 1012.56 1152.93 992.457C1157.14 986.666 1160.43 980.25 1162.67 973.443C1162.73 973.243 1162.81 973.046 1162.86 972.843C1163.05 972.246 1163.23 971.658 1163.4 971.055C1163.94 969.202 1164.39 967.314 1164.77 965.411ZM1126.51 921.412C1119.69 927.334 1112.41 932.7 1104.74 937.458C1101.24 939.678 1097.55 941.586 1093.72 943.161C1093.15 943.389 1092.57 943.602 1091.99 943.815C1091.41 944.016 1090.82 944.202 1090.24 944.376C1086.99 945.407 1083.59 945.881 1080.18 945.779C1075.81 945.618 1071.66 943.8 1068.58 940.69C1066.58 938.641 1065.16 936.089 1064.47 933.3C1064.4 933.067 1064.35 932.83 1064.3 932.59C1063.85 930.294 1063.76 927.94 1064.04 925.616C1064.32 923.166 1064.91 920.761 1065.79 918.459C1066.52 916.52 1067.42 914.649 1068.47 912.867C1068.71 912.469 1068.95 912.086 1069.19 911.703C1070.69 909.397 1072.47 907.282 1074.47 905.402C1079.8 900.528 1086.23 897.027 1093.21 895.202C1093.61 895.085 1094.01 894.981 1094.43 894.879C1094.82 894.772 1095.21 894.676 1095.6 894.596C1098.54 893.928 1101.53 893.511 1104.54 893.352C1117.91 892.582 1131.1 896.678 1141.68 904.888C1137.33 911.007 1132.24 916.558 1126.51 921.412L1126.51 921.412Z" fill="#E4E4E4"/>
<path d="M1085.06 466.071C1114.81 473.287 1144.77 455.02 1151.99 425.273C1159.2 395.525 1140.94 365.56 1111.19 358.345C1081.44 351.13 1051.48 369.396 1044.26 399.144C1037.04 428.892 1055.31 458.856 1085.06 466.071Z" fill="white"/>
<path d="M1111.39 357.544C1101.83 355.22 1091.82 355.447 1082.37 358.204C1072.92 360.96 1064.36 366.15 1057.54 373.253C1050.72 380.356 1045.89 389.124 1043.52 398.681C1041.15 408.238 1041.34 418.249 1044.05 427.713C1046.76 437.178 1051.91 445.764 1058.98 452.613C1066.05 459.463 1074.8 464.336 1084.34 466.746C1093.88 469.156 1103.89 469.018 1113.37 466.346C1122.84 463.674 1131.45 458.561 1138.33 451.519C1139.2 450.647 1140.03 449.742 1140.84 448.805C1147.1 441.5 1151.38 432.71 1153.28 423.278C1155.17 413.845 1154.61 404.084 1151.66 394.928C1148.71 385.772 1143.45 377.528 1136.4 370.982C1129.35 364.437 1120.74 359.81 1111.39 357.544ZM1085.45 464.501C1074.03 461.741 1063.83 455.32 1056.4 446.218C1048.97 437.116 1044.72 425.833 1044.3 414.089C1043.88 402.346 1047.31 390.787 1054.07 381.176C1060.84 371.565 1070.55 364.43 1081.75 360.859C1092.94 357.288 1104.99 357.477 1116.07 361.397C1127.15 365.318 1136.63 372.754 1143.09 382.572C1149.54 392.39 1152.61 404.051 1151.82 415.776C1151.03 427.5 1146.43 438.645 1138.71 447.509C1137.91 448.446 1137.06 449.348 1136.18 450.217C1129.66 456.75 1121.57 461.496 1112.68 463.997C1103.8 466.499 1094.42 466.673 1085.45 464.501V464.501Z" fill="#E4E4E4"/>
<path d="M1074.48 395.408L1126.83 408.106C1128.8 408.584 1130.8 407.352 1131.28 405.354C1131.77 403.356 1130.56 401.349 1128.59 400.871L1076.24 388.173C1074.27 387.695 1072.27 388.927 1071.79 390.925C1071.31 392.923 1072.51 394.93 1074.48 395.408Z" fill="#E4E4E4"/>
<path d="M1070.97 409.879L1123.32 422.577C1125.3 423.055 1127.29 421.823 1127.77 419.825C1128.26 417.827 1127.05 415.82 1125.08 415.342L1072.73 402.644C1070.76 402.166 1068.76 403.398 1068.28 405.396C1067.8 407.394 1069 409.401 1070.97 409.879Z" fill="#E4E4E4"/>
<path d="M1067.66 423.546L1120.01 436.244C1121.98 436.722 1123.93 435.67 1124.36 433.894C1124.79 432.118 1123.54 430.29 1121.57 429.812L1069.22 417.114C1067.25 416.636 1065.3 417.688 1064.87 419.464C1064.44 421.24 1065.69 423.068 1067.66 423.546Z" fill="#E4E4E4"/>
<path d="M1061.19 752.25C1090.71 759.412 1120.5 741.102 1127.71 711.354C1134.93 681.606 1116.84 651.685 1087.32 644.524C1057.79 637.363 1028.01 655.672 1020.79 685.42C1013.57 715.168 1031.66 745.089 1061.19 752.25Z" fill="white"/>
<path d="M1091.38 644.798C1090.17 644.416 1088.95 644.069 1087.69 643.764L1087.51 643.721C1079.38 641.747 1070.91 641.587 1062.72 643.252C1054.53 644.917 1046.82 648.365 1040.14 653.35C1033.46 658.334 1027.98 664.731 1024.09 672.079C1020.2 679.428 1018.01 687.546 1017.66 695.851C1017.31 704.155 1018.82 712.44 1022.07 720.108C1025.33 727.777 1030.25 734.639 1036.48 740.203C1042.72 745.766 1050.11 749.891 1058.14 752.283C1066.16 754.674 1074.61 755.272 1082.88 754.033C1084.14 753.837 1085.4 753.601 1086.64 753.337C1098.79 750.671 1109.7 744.101 1117.69 734.643C1125.68 725.184 1130.3 713.364 1130.84 701.009C1131.38 688.654 1127.81 676.453 1120.68 666.293C1113.54 656.132 1103.25 648.578 1091.38 644.798V644.798ZM1061.57 750.678C1047.65 747.3 1035.62 738.588 1028.11 726.445C1020.61 714.303 1018.24 699.718 1021.52 685.879C1024.8 672.04 1033.47 660.072 1045.62 652.593C1057.78 645.114 1072.44 642.732 1086.4 645.967L1086.94 646.098C1088 646.356 1089.05 646.647 1090.09 646.962C1101.57 650.487 1111.57 657.7 1118.5 667.469C1125.43 677.237 1128.91 689.007 1128.38 700.927C1127.85 712.848 1123.35 724.243 1115.59 733.321C1107.82 742.399 1097.23 748.646 1085.48 751.079C1084.23 751.341 1082.97 751.552 1081.7 751.722C1074.99 752.637 1068.16 752.283 1061.57 750.678L1061.57 750.678Z" fill="#E4E4E4"/>
<path d="M1050.26 681.501L1103.32 694.371C1105.31 694.855 1107.33 693.628 1107.81 691.63C1108.3 689.632 1107.07 687.62 1105.07 687.135L1052.01 674.266C1050.01 673.781 1048 675.008 1047.52 677.006C1047.03 679.004 1048.26 681.017 1050.26 681.501Z" fill="#E4E4E4"/>
<path d="M1046.94 695.168L1100 708.037C1102 708.522 1104.01 707.295 1104.5 705.297C1104.98 703.299 1103.75 701.287 1101.76 700.802L1048.7 687.933C1046.7 687.448 1044.69 688.675 1044.2 690.673C1043.72 692.671 1044.94 694.683 1046.94 695.168Z" fill="#E4E4E4"/>
<path d="M1043.43 709.639L1096.49 722.508C1098.49 722.993 1100.5 721.766 1100.99 719.768C1101.47 717.77 1100.24 715.757 1098.25 715.273L1045.19 702.403C1043.19 701.919 1041.18 703.146 1040.69 705.144C1040.21 707.142 1041.43 709.154 1043.43 709.639Z" fill="#E4E4E4"/>
<path d="M1030.82 970.458C1060.57 977.673 1090.49 959.587 1097.65 930.061C1104.81 900.535 1086.5 870.751 1056.75 863.536C1027 856.32 997.084 874.407 989.922 903.932C982.761 933.458 1001.07 963.243 1030.82 970.458Z" fill="white"/>
<path d="M1095.49 894.507C1095.02 893.391 1094.52 892.305 1093.97 891.223C1088.38 880.133 1079.31 871.22 1068.16 865.863C1057.01 860.505 1044.41 859.002 1032.29 861.585C1020.18 864.169 1009.24 870.695 1001.16 880.154C993.085 889.613 988.32 901.477 987.604 913.912C986.889 926.347 990.263 938.658 997.206 948.942C1004.15 959.225 1014.27 966.908 1026.01 970.8C1037.75 974.692 1050.45 974.578 1062.14 970.474C1073.84 966.37 1083.87 958.506 1090.7 948.099C1091.74 946.53 1092.7 944.908 1093.57 943.24C1097.48 935.763 1099.68 927.507 1100.01 919.074C1100.35 910.642 1098.8 902.248 1095.49 894.507V894.507ZM1031 969.667C1022.24 967.55 1014.17 963.254 1007.5 957.173C1000.84 951.092 995.808 943.421 992.863 934.861C989.917 926.302 989.155 917.128 990.646 908.18C992.136 899.232 995.832 890.795 1001.4 883.644C1006.96 876.492 1014.21 870.854 1022.49 867.245C1030.76 863.636 1039.8 862.172 1048.77 862.987C1057.74 863.802 1066.35 866.87 1073.82 871.91C1081.3 876.95 1087.38 883.801 1091.53 891.836C1092.09 892.909 1092.61 893.998 1093.09 895.117C1096.52 902.978 1098.04 911.554 1097.51 920.135C1096.99 928.716 1094.44 937.056 1090.09 944.462C1089.18 946.015 1088.19 947.519 1087.13 948.969C1080.82 957.595 1072.13 964.16 1062.14 967.843C1052.15 971.525 1041.32 972.16 1031 969.667V969.667Z" fill="#E4E4E4"/>
<path d="M1020.24 899.795L1072.59 912.493C1074.56 912.971 1076.56 911.739 1077.04 909.741C1077.52 907.743 1076.32 905.735 1074.35 905.257L1022 892.56C1020.03 892.081 1018.03 893.313 1017.55 895.311C1017.07 897.309 1018.27 899.317 1020.24 899.795Z" fill="#E4E4E4"/>
<path d="M1016.73 914.266L1069.08 926.963C1071.05 927.441 1073.05 926.209 1073.53 924.211C1074.02 922.213 1072.81 920.206 1070.84 919.728L1018.49 907.03C1016.52 906.552 1014.52 907.784 1014.04 909.782C1013.56 911.78 1014.76 913.787 1016.73 914.266Z" fill="#E4E4E4"/>
<path d="M1013.22 928.736L1065.57 941.434C1067.55 941.912 1069.54 940.68 1070.02 938.682C1070.51 936.684 1069.3 934.677 1067.33 934.199L1014.98 921.501C1013.01 921.023 1011.01 922.255 1010.53 924.253C1010.05 926.251 1011.25 928.258 1013.22 928.736Z" fill="#E4E4E4"/>
<path d="M1189.19 608.797C1218.94 616.012 1248.9 597.746 1256.12 567.998C1263.33 538.25 1245.07 508.286 1215.32 501.07C1185.57 493.855 1155.61 512.121 1148.39 541.869C1141.18 571.617 1159.44 601.581 1189.19 608.797Z" fill="#ECC94B"/>
<path d="M1215.51 500.267C1212.76 499.6 1209.97 499.141 1207.15 498.893C1205.71 498.758 1204.29 498.691 1202.87 498.686C1192.46 498.568 1182.21 501.347 1173.28 506.713C1164.35 512.079 1157.08 519.822 1152.29 529.077C1147.51 538.332 1145.38 548.735 1146.16 559.126C1146.94 569.517 1150.59 579.487 1156.7 587.924C1157.43 588.918 1158.18 589.892 1158.97 590.839C1164.65 597.696 1171.88 603.105 1180.06 606.62C1188.24 610.136 1197.14 611.658 1206.03 611.062C1214.91 610.465 1223.53 607.766 1231.17 603.188C1238.81 598.61 1245.25 592.283 1249.97 584.727C1254.69 577.172 1257.54 568.605 1258.3 559.73C1259.06 550.856 1257.7 541.928 1254.34 533.681C1250.98 525.435 1245.7 518.105 1238.95 512.296C1232.2 506.487 1224.17 502.364 1215.51 500.267V500.267ZM1189.57 607.247C1178.44 604.562 1168.48 598.382 1161.13 589.613C1160.33 588.664 1159.56 587.699 1158.84 586.693C1152.87 578.536 1149.32 568.861 1148.59 558.777C1147.87 548.693 1150 538.608 1154.74 529.68C1159.48 520.751 1166.64 513.34 1175.41 508.296C1184.17 503.253 1194.17 500.781 1204.27 501.165C1205.67 501.214 1207.05 501.323 1208.45 501.486C1210.63 501.737 1212.8 502.124 1214.94 502.644C1228.81 506.008 1240.77 514.744 1248.2 526.931C1255.62 539.118 1257.91 553.757 1254.54 567.628C1251.18 581.5 1242.44 593.467 1230.26 600.896C1218.07 608.326 1203.43 610.611 1189.57 607.247L1189.57 607.247Z" fill="#E4E4E4"/>
<path d="M1178.61 538.134L1230.96 550.832C1232.94 551.31 1234.93 550.078 1235.41 548.08C1235.9 546.082 1234.69 544.074 1232.72 543.596L1180.37 530.898C1178.4 530.42 1176.41 531.652 1175.92 533.65C1175.44 535.648 1176.64 537.656 1178.61 538.134Z" fill="white"/>
<path d="M1175.1 552.604L1227.46 565.302C1229.43 565.78 1231.42 564.548 1231.9 562.55C1232.39 560.552 1231.18 558.545 1229.21 558.067L1176.86 545.369C1174.89 544.891 1172.9 546.123 1172.41 548.121C1171.93 550.119 1173.13 552.126 1175.1 552.604Z" fill="white"/>
<path d="M1171.79 566.271L1224.14 578.969C1226.11 579.447 1228.06 578.395 1228.49 576.619C1228.92 574.843 1227.67 573.016 1225.7 572.538L1173.35 559.84C1171.38 559.362 1169.43 560.414 1169 562.19C1168.57 563.966 1169.82 565.793 1171.79 566.271Z" fill="white"/>
</g>
<defs>
<clipPath id="clip0_3_981">
<rect width="1195" height="1098" fill="white" transform="translate(152 201)"/>
</clipPath>
</defs>
</svg>
