<svg width="1500" height="1500" viewBox="0 0 1500 1500" fill="none" xmlns="http://www.w3.org/2000/svg">
<g clip-path="url(#clip0_21_2839)">
<path d="M1181.24 462.746H1174.19C1164.31 462.749 1154.83 466.678 1147.84 473.668C1140.85 480.658 1136.93 490.137 1136.93 500.02V500.715H1186.82L1187.33 493.551L1189.88 500.715H1197.56L1198.59 486.52L1203.65 500.715H1218.51V500.02C1218.5 490.14 1214.57 480.667 1207.58 473.679C1200.6 466.691 1191.12 462.759 1181.24 462.746Z" fill="#2F2E41"/>
<path d="M705.128 975.979H137.596C135.848 975.977 134.171 975.281 132.935 974.045C131.698 972.809 131.002 971.133 131 969.384V442.44C131.002 440.691 131.698 439.015 132.935 437.779C134.171 436.543 135.848 435.847 137.596 435.845H705.128C706.877 435.847 708.553 436.543 709.79 437.779C711.026 439.015 711.722 440.691 711.725 442.44V969.383C711.723 971.131 711.027 972.808 709.79 974.044C708.554 975.281 706.877 975.976 705.128 975.978V975.979Z" fill="#2BD832"/>
<path d="M794.591 1054.78H227.059C225.31 1054.78 223.634 1054.08 222.397 1052.84C221.161 1051.61 220.465 1049.93 220.463 1048.18V521.239C220.465 519.49 221.161 517.814 222.397 516.578C223.634 515.341 225.31 514.646 227.059 514.644H794.591C796.34 514.646 798.016 515.341 799.253 516.578C800.489 517.814 801.185 519.49 801.187 521.239V1048.18C801.185 1049.93 800.49 1051.61 799.253 1052.84C798.017 1054.08 796.34 1054.77 794.591 1054.78V1054.78Z" fill="white"/>
<path d="M794.591 1054.78H227.059C225.31 1054.78 223.634 1054.08 222.397 1052.84C221.161 1051.61 220.465 1049.93 220.463 1048.18V521.239C220.465 519.49 221.161 517.814 222.397 516.578C223.634 515.341 225.31 514.646 227.059 514.644H794.591C796.34 514.646 798.016 515.341 799.253 516.578C800.489 517.814 801.185 519.49 801.187 521.239V1048.18C801.185 1049.93 800.49 1051.61 799.253 1052.84C798.017 1054.08 796.34 1054.77 794.591 1054.78V1054.78ZM227.059 517.276C226.011 517.279 225.007 517.696 224.266 518.437C223.525 519.178 223.107 520.182 223.105 521.23V1048.18C223.107 1049.23 223.525 1050.23 224.266 1050.97C225.007 1051.72 226.011 1052.13 227.059 1052.14H794.591C795.639 1052.13 796.644 1051.72 797.385 1050.98C798.126 1050.23 798.544 1049.23 798.545 1048.18V521.239C798.543 520.191 798.126 519.186 797.385 518.446C796.644 517.705 795.639 517.287 794.591 517.285L227.059 517.276Z" fill="#2BD832"/>
<path d="M688.936 750.869H332.714C330.965 750.868 329.288 750.172 328.052 748.936C326.815 747.699 326.119 746.023 326.117 744.274V587.977C326.119 586.228 326.815 584.552 328.052 583.316C329.288 582.079 330.965 581.384 332.714 581.382H688.936C690.685 581.384 692.362 582.079 693.598 583.316C694.835 584.552 695.531 586.228 695.533 587.977V744.274C695.531 746.023 694.835 747.699 693.599 748.936C692.362 750.172 690.685 750.868 688.936 750.869Z" fill="#4558D6"/>
<path d="M387.958 648.215C386.772 648.217 385.635 648.69 384.797 649.529C383.959 650.369 383.489 651.506 383.489 652.692C383.489 653.878 383.959 655.016 384.797 655.855C385.635 656.695 386.772 657.167 387.958 657.17H633.691C634.878 657.167 636.015 656.695 636.853 655.855C637.691 655.016 638.161 653.878 638.161 652.692C638.161 651.506 637.691 650.369 636.853 649.529C636.015 648.69 634.878 648.217 633.691 648.215H387.958Z" fill="white"/>
<path d="M387.958 675.082C386.772 675.084 385.635 675.557 384.797 676.397C383.959 677.236 383.489 678.373 383.489 679.559C383.489 680.745 383.959 681.883 384.797 682.722C385.635 683.562 386.772 684.035 387.958 684.037H513.41C514.596 684.035 515.733 683.562 516.571 682.722C517.409 681.883 517.88 680.745 517.88 679.559C517.88 678.373 517.409 677.236 516.571 676.397C515.733 675.557 514.596 675.084 513.41 675.082H387.958Z" fill="white"/>
<path d="M280.45 808.479C279.263 808.481 278.127 808.954 277.289 809.793C276.451 810.632 275.98 811.77 275.98 812.956C275.98 814.142 276.451 815.279 277.289 816.119C278.127 816.958 279.263 817.431 280.45 817.433H741.2C742.387 817.431 743.524 816.958 744.362 816.119C745.2 815.279 745.67 814.142 745.67 812.956C745.67 811.77 745.2 810.632 744.362 809.793C743.524 808.954 742.387 808.481 741.2 808.479H280.45Z" fill="#2BD832"/>
<path d="M280.45 835.346C279.263 835.348 278.127 835.821 277.289 836.66C276.451 837.5 275.98 838.637 275.98 839.823C275.98 841.009 276.451 842.147 277.289 842.986C278.127 843.825 279.263 844.298 280.45 844.3H620.919C622.105 844.298 623.242 843.825 624.08 842.986C624.918 842.147 625.389 841.009 625.389 839.823C625.389 838.637 624.918 837.5 624.08 836.66C623.242 835.821 622.105 835.348 620.919 835.346H280.45Z" fill="#2BD832"/>
<path d="M280.45 861.604C279.263 861.607 278.127 862.08 277.289 862.919C276.451 863.758 275.98 864.896 275.98 866.082C275.98 867.268 276.451 868.406 277.289 869.245C278.127 870.084 279.263 870.557 280.45 870.559H741.2C742.387 870.557 743.524 870.084 744.362 869.245C745.2 868.406 745.67 867.268 745.67 866.082C745.67 864.896 745.2 863.758 744.362 862.919C743.524 862.08 742.387 861.607 741.2 861.604H280.45Z" fill="#2BD832"/>
<path d="M280.45 888.472C279.263 888.474 278.127 888.947 277.289 889.786C276.451 890.626 275.98 891.763 275.98 892.949C275.98 894.135 276.451 895.273 277.289 896.112C278.127 896.951 279.263 897.424 280.45 897.426H620.919C622.105 897.424 623.242 896.951 624.08 896.112C624.918 895.273 625.389 894.135 625.389 892.949C625.389 891.763 624.918 890.626 624.08 889.786C623.242 888.947 622.105 888.474 620.919 888.472H280.45Z" fill="#2BD832"/>
<path d="M738.352 993.003H603.325C601.576 993.001 599.9 992.306 598.663 991.069C597.427 989.833 596.731 988.157 596.729 986.408V964.779C596.731 963.03 597.427 961.354 598.663 960.117C599.9 958.881 601.576 958.186 603.325 958.184H738.352C740.1 958.186 741.777 958.881 743.014 960.117C744.25 961.354 744.946 963.03 744.948 964.779V986.408C744.946 988.157 744.25 989.833 743.014 991.069C741.777 992.306 740.1 993.001 738.352 993.003Z" fill="#4558D6"/>
<path d="M1028.58 522.222L800.443 638.893L801.949 641.838L1030.08 525.167L1028.58 522.222Z" fill="#2BD832"/>
<path d="M801.941 944.941L800.434 947.887L1028.58 1064.52L1030.09 1061.58L801.941 944.941Z" fill="#2BD832"/>
<path d="M1369.53 485.713C1369.52 517.726 1360.67 549.115 1343.96 576.422C1327.25 603.728 1303.32 625.89 1274.81 640.467C1273.34 641.228 1271.85 641.972 1270.36 642.667C1269.48 643.097 1268.6 643.494 1267.73 643.891C1265.58 644.868 1263.39 645.811 1261.19 646.687C1253.36 649.888 1245.3 652.493 1237.08 654.48C1235.92 654.778 1234.73 655.042 1233.56 655.307C1230.6 655.969 1227.61 656.542 1224.6 657.027C1208.2 659.775 1191.48 660.165 1174.96 658.186C1171.54 657.789 1168.14 657.281 1164.77 656.664C1163.16 656.366 1161.56 656.051 1159.97 655.721C1159.76 655.671 1159.54 655.621 1159.32 655.588C1153.62 654.388 1147.99 652.886 1142.45 651.088C1139.47 650.129 1136.51 649.103 1133.61 647.978C1132.1 647.399 1130.62 646.803 1129.14 646.191C1128.41 645.893 1127.69 645.579 1126.97 645.265C1098.18 632.852 1073.27 612.879 1054.91 587.464C1036.55 562.048 1025.4 532.137 1022.66 500.903C1019.93 469.669 1025.69 438.276 1039.35 410.053C1053.01 381.83 1074.06 357.829 1100.26 340.595C1126.45 323.362 1156.83 313.538 1188.16 312.166C1219.49 310.794 1250.61 317.925 1278.21 332.802C1305.82 347.68 1328.88 369.749 1344.96 396.67C1361.03 423.59 1369.52 454.359 1369.53 485.713Z" fill="#2BD832"/>
<path d="M1372.52 1040.71C1372.48 1068.7 1365.7 1096.27 1352.75 1121.09C1339.79 1145.9 1321.05 1167.23 1298.11 1183.27C1297.68 1183.57 1297.25 1183.87 1296.82 1184.15C1294.3 1185.89 1291.74 1187.56 1289.11 1189.13C1287.44 1190.16 1285.73 1191.15 1284.03 1192.13C1281.97 1193.28 1279.91 1194.39 1277.8 1195.47C1277.32 1195.72 1276.84 1195.96 1276.35 1196.19C1274.59 1197.09 1272.82 1197.95 1271.02 1198.76C1270.92 1198.81 1270.82 1198.84 1270.72 1198.89C1270.13 1199.16 1269.51 1199.44 1268.89 1199.7C1265 1201.42 1261.03 1203.01 1256.97 1204.43C1256.69 1204.55 1256.39 1204.65 1256.09 1204.75C1246.81 1208.01 1237.26 1210.44 1227.55 1212.03C1225.71 1212.36 1223.86 1212.62 1222.01 1212.87C1221.71 1212.92 1221.39 1212.97 1221.1 1213C1218.56 1213.33 1216.02 1213.6 1213.45 1213.81C1213.15 1213.85 1212.86 1213.86 1212.56 1213.88C1210.64 1214.05 1208.7 1214.16 1206.75 1214.24C1204.1 1214.36 1201.46 1214.43 1198.77 1214.43C1195.02 1214.43 1191.28 1214.31 1187.57 1214.08C1184.34 1213.86 1181.13 1213.58 1177.96 1213.19C1176.02 1212.95 1174.09 1212.69 1172.18 1212.39C1170.08 1212.08 1167.98 1211.71 1165.91 1211.32C1164.89 1211.12 1163.86 1210.9 1162.83 1210.69C1162.67 1210.65 1162.49 1210.62 1162.32 1210.59C1160.67 1210.24 1159.03 1209.88 1157.41 1209.46C1150.98 1207.91 1144.64 1205.98 1138.44 1203.67C1136.32 1202.88 1134.22 1202.05 1132.14 1201.19C1131.49 1200.93 1130.85 1200.65 1130.22 1200.36C1129.08 1199.88 1127.95 1199.37 1126.83 1198.86C1125.98 1198.48 1125.14 1198.08 1124.29 1197.68C1122.51 1196.86 1120.75 1195.98 1119 1195.07C1117.59 1194.36 1116.19 1193.6 1114.81 1192.84C1114.78 1192.82 1114.76 1192.8 1114.73 1192.79C1087.91 1177.97 1065.49 1156.33 1049.73 1130.06C1033.98 1103.78 1025.45 1073.81 1025.02 1043.18C1024.58 1012.55 1032.26 982.353 1047.26 955.644C1062.27 928.936 1084.07 906.67 1110.46 891.103C1136.85 875.536 1166.89 867.222 1197.53 867.004C1228.16 866.787 1258.32 874.673 1284.92 889.863C1311.53 905.053 1333.65 927.007 1349.03 953.499C1364.42 979.992 1372.52 1010.08 1372.52 1040.71Z" fill="#2BD832"/>
<path d="M1195.19 450.09C1182.7 450.105 1170.72 455.074 1161.89 463.907C1153.05 472.74 1148.08 484.716 1148.07 497.208V532.364C1148.07 534.042 1148.74 535.65 1149.93 536.834C1151.12 538.019 1152.72 538.684 1154.4 538.684H1235.98C1237.66 538.685 1239.27 538.02 1240.46 536.835C1241.65 535.65 1242.32 534.042 1242.32 532.364V497.208C1242.3 484.716 1237.33 472.741 1228.5 463.908C1219.66 455.076 1207.69 450.106 1195.19 450.09Z" fill="#2F2E41"/>
<path d="M1171.12 598.011L1166.6 577.661C1165.97 574.769 1164.48 572.132 1162.35 570.084C1160.45 568.432 1158.22 567.197 1155.81 566.461C1155.53 566.395 1155.25 566.329 1154.95 566.279C1154.82 566.244 1154.7 566.216 1154.57 566.196C1152.54 565.844 1150.46 565.914 1148.46 566.404C1146.47 566.893 1144.59 567.791 1142.95 569.04C1141.32 570.289 1139.96 571.863 1138.96 573.663C1137.97 575.463 1137.35 577.449 1137.16 579.498L1133.32 603.503L1127.45 640.264C1128.16 640.579 1128.89 640.893 1129.62 641.191C1131.09 641.803 1132.58 642.398 1134.08 642.977C1136.98 644.102 1139.94 645.128 1142.92 646.088C1148.46 647.886 1154.1 649.388 1159.8 650.588C1160.01 650.621 1160.23 650.67 1160.44 650.72C1162.03 651.051 1163.64 651.365 1165.24 651.663L1173.27 607.705L1171.12 598.011Z" fill="#FF76B8"/>
<path d="M1183.57 538.157C1202.65 538.157 1218.12 522.692 1218.12 503.615C1218.12 484.538 1202.65 469.073 1183.57 469.073C1164.49 469.073 1149.02 484.538 1149.02 503.615C1149.02 522.692 1164.49 538.157 1183.57 538.157Z" fill="#FFB7B7"/>
<path d="M1220.91 619.221L1213.53 561.052L1211.97 548.726H1211.95L1211.26 548.71C1208.91 548.627 1206.63 548.61 1204.38 548.693C1190.57 548.752 1177.02 552.499 1165.14 559.546C1162.03 561.442 1159.07 563.565 1156.27 565.899L1156.14 566.031L1155.81 566.461L1144.08 581.55L1144.06 581.847L1142.92 646.088C1148.46 647.886 1154.1 649.388 1159.8 650.588C1160.01 650.621 1160.23 650.671 1160.44 650.721C1162.03 651.052 1163.64 651.366 1165.24 651.664C1168.62 652.276 1172.02 652.783 1175.44 653.186C1191.95 655.165 1208.67 654.775 1225.08 652.028L1220.91 619.221Z" fill="#5E6EE4"/>
<path d="M1232.99 561.432C1227.55 555.023 1220.17 550.562 1211.97 548.726H1211.96C1209.77 548.234 1207.54 547.941 1205.3 547.85L1204.72 547.833L1204.38 548.693L1176.58 615.697L1172.09 597.796L1165.14 559.546L1165.09 559.265L1164.05 559.877C1160.83 561.732 1157.78 563.875 1154.95 566.28C1143.67 575.799 1136.15 589.016 1133.72 603.57C1133.01 607.883 1132.75 612.257 1132.94 616.623L1134.08 642.978C1136.98 644.103 1139.94 645.129 1142.92 646.088C1148.46 647.886 1154.1 649.389 1159.8 650.588C1160.01 650.622 1160.23 650.671 1160.44 650.721C1162.03 651.052 1163.64 651.366 1165.24 651.664C1168.62 652.276 1172.02 652.783 1175.44 653.186C1191.95 655.165 1208.67 654.775 1225.08 652.028C1228.09 651.548 1231.07 650.974 1234.03 650.307C1235.2 650.042 1236.4 649.778 1237.55 649.48L1235.06 642.118L1241.67 591.013C1242.35 585.75 1241.93 580.403 1240.43 575.312C1238.94 570.22 1236.4 565.494 1232.99 561.432Z" fill="#FF76B8"/>
<path d="M1241.19 562.855C1240.01 559.213 1237.47 556.168 1234.1 554.353C1230.73 552.538 1226.78 552.093 1223.09 553.11C1222.49 553.263 1221.91 553.457 1221.34 553.689C1218.59 554.808 1216.25 556.72 1214.59 559.181C1212.94 561.642 1212.06 564.54 1212.07 567.504L1212.14 598.425L1220.91 619.221L1234.03 650.307C1235.2 650.042 1236.4 649.778 1237.55 649.48C1245.78 647.493 1253.83 644.888 1261.66 641.687C1263.86 640.811 1266.05 639.868 1268.2 638.891C1269.08 638.494 1269.95 638.097 1270.83 637.667L1241.19 562.855Z" fill="#FF76B8"/>
<path d="M1166.1 1097.61C1160.28 1097.19 1154.44 1097.94 1148.91 1099.82C1143.39 1101.69 1138.29 1104.65 1133.93 1108.52C1129.56 1112.39 1126.01 1117.09 1123.49 1122.35C1120.97 1127.61 1119.52 1133.33 1119.24 1139.15L1116.48 1187.64C1118.23 1188.55 1119.99 1189.43 1121.77 1190.26C1122.62 1190.65 1123.46 1191.05 1124.3 1191.43C1125.43 1191.94 1126.55 1192.46 1127.7 1192.94C1128.32 1193.22 1128.97 1193.5 1129.62 1193.76C1131.7 1194.62 1133.8 1195.45 1135.92 1196.25C1142.12 1198.55 1148.45 1200.48 1154.88 1202.04C1156.51 1202.45 1158.14 1202.81 1159.8 1203.16C1159.96 1203.19 1160.15 1203.23 1160.31 1203.26C1161.34 1203.48 1162.36 1203.69 1163.39 1203.89L1166.9 1097.66L1166.1 1097.61Z" fill="#FF76B8"/>
<path d="M1210.93 1206.39C1213.49 1206.17 1216.04 1205.91 1218.57 1205.58C1218.87 1205.54 1219.19 1205.49 1219.48 1205.44C1221.34 1205.2 1223.19 1204.93 1225.03 1204.6C1225.18 1200.12 1225.13 1196.89 1225.13 1196.49L1233.35 1110.81L1216.21 1100.82L1212.87 1098.87L1161.04 1097.2L1160.61 1097.56L1135.72 1119.13L1127.7 1192.94C1128.32 1193.22 1128.97 1193.5 1129.62 1193.76C1131.7 1194.62 1133.8 1195.45 1135.92 1196.25C1142.12 1198.55 1148.45 1200.48 1154.88 1202.04C1156.5 1202.45 1158.14 1202.81 1159.8 1203.16C1159.96 1203.19 1160.15 1203.23 1160.31 1203.26C1161.34 1203.48 1162.36 1203.69 1163.39 1203.89C1165.46 1204.29 1167.56 1204.65 1169.66 1204.96C1171.56 1205.26 1173.5 1205.53 1175.44 1205.76C1178.61 1206.16 1181.82 1206.44 1185.05 1206.65C1188.76 1206.88 1192.49 1207 1196.25 1207C1198.93 1207 1201.58 1206.93 1204.23 1206.82C1206.18 1206.73 1208.12 1206.62 1210.04 1206.45L1210.93 1206.39Z" fill="#5E6EE4"/>
<path d="M1245.6 1118.19L1216.24 1100.26L1216.21 1100.82L1210.93 1206.39C1213.49 1206.17 1216.04 1205.91 1218.57 1205.58C1218.87 1205.54 1219.19 1205.49 1219.48 1205.45C1221.34 1205.2 1223.19 1204.93 1225.03 1204.6C1234.74 1203.02 1244.29 1200.58 1253.57 1197.32C1253.87 1197.22 1254.17 1197.12 1254.45 1197.01L1256.53 1137.81C1256.68 1133.86 1255.74 1129.93 1253.81 1126.47C1251.88 1123.02 1249.04 1120.15 1245.6 1118.19Z" fill="#FF76B8"/>
<path d="M1181.16 1085.77C1201.28 1085.77 1217.58 1069.47 1217.58 1049.36C1217.58 1029.25 1201.28 1012.95 1181.16 1012.95C1161.05 1012.95 1144.75 1029.25 1144.75 1049.36C1144.75 1069.47 1161.05 1085.77 1181.16 1085.77Z" fill="#FFB7B7"/>
<path d="M1168 995.598C1204.67 985.023 1215.08 1015.42 1215.08 1015.42C1232.76 1027.14 1221.69 1041.84 1221.69 1041.84C1226.16 1042.84 1217.24 1068.94 1214.26 1068.27C1212.68 1067.92 1208.59 1072.79 1205.13 1077.41C1203.95 1077.41 1202.76 1077.52 1201.6 1077.75L1208.31 1052.91C1208.31 1052.91 1185.68 1049.45 1178.74 1038.54C1172.1 1028.11 1150.24 1024.82 1144.02 1031.79C1143.65 1029.79 1142.9 1027.87 1141.8 1026.16C1140.95 1024.85 1139.84 1023.74 1138.54 1022.89C1144.04 999.521 1168 995.598 1168 995.598Z" fill="#2F2E41"/>
<path opacity="0.2" d="M1210.04 1206.45C1208.12 1206.62 1206.18 1206.74 1204.23 1206.82L1209.32 1178.83V1180.76L1210.04 1206.45Z" fill="black"/>
<circle cx="1167" cy="500" r="6" fill="#2F2E41"/>
<circle cx="1195" cy="500" r="6" fill="#2F2E41"/>
<circle r="5" transform="matrix(1 0 0 -1 1154 1058)" fill="#2F2E41"/>
<circle r="5" transform="matrix(1 0 0 -1 1181 1058)" fill="#2F2E41"/>
<g clip-path="url(#clip1_21_2839)">
<path d="M894.58 310.422H443.774V312.422H894.58V310.422Z" fill="#5E6EE4"/>
<path d="M506.181 311.176H504.181V374.739H506.181V311.176Z" fill="#5E6EE4"/>
<path d="M670.205 425.123H567.156V311.113H569.156V423.123H670.205V425.123Z" fill="#5E6EE4"/>
<path d="M636.885 311.176H634.885V374.739H636.885V311.176Z" fill="#5E6EE4"/>
<path d="M670.443 424.176H668.443V487.739H670.443V424.176Z" fill="#5E6EE4"/>
<path d="M774 311.176H772V374.739H774V311.176Z" fill="#5E6EE4"/>
<path d="M842.559 311.176H840.559V374.739H842.559V311.176Z" fill="#5E6EE4"/>
<path d="M524.41 384.462H486.432V399.259H524.41V384.462Z" fill="#5E6EE4"/>
<path d="M654.41 384.462H616.432V399.259H654.41V384.462Z" fill="#FF76B8"/>
<path d="M792.41 384.462H754.432V399.259H792.41V384.462Z" fill="#5E6EE4"/>
<path d="M858.41 384.462H820.432V399.259H858.41V384.462Z" fill="#5E6EE4"/>
<path d="M947.41 304.462H909.432V319.259H947.41V304.462Z" fill="#FF76B8"/>
<path d="M688.41 496.462H650.432V511.259H688.41V496.462Z" fill="#FF76B8"/>
<path d="M430.862 299H369.98V322.72H430.862V299Z" fill="#5E6EE4"/>
</g>
</g>
<defs>
<clipPath id="clip0_21_2839">
<rect width="1239" height="900" fill="white" transform="translate(131 307)"/>
</clipPath>
<clipPath id="clip1_21_2839">
<rect width="992.41" height="518.953" fill="white" transform="translate(-45 299)"/>
</clipPath>
</defs>
</svg>
