<svg width="1500" height="1500" viewBox="0 0 1500 1500" fill="none" xmlns="http://www.w3.org/2000/svg">
<path d="M335.305 1053.09V1055.27C335.308 1058.88 336.742 1062.34 339.293 1064.89C341.843 1067.44 345.302 1068.88 348.909 1068.88H464.27C467.877 1068.88 471.337 1067.45 473.887 1064.89C476.438 1062.34 477.872 1058.88 477.873 1055.27V1053.09C477.88 1049.91 476.762 1046.82 474.717 1044.38C474.036 1043.57 473.266 1042.84 472.421 1042.21H412.585C411.864 1042.2 411.172 1041.92 410.662 1041.41C410.152 1040.9 409.865 1040.2 409.865 1039.48H348.909C345.302 1039.49 341.845 1040.92 339.295 1043.47C336.745 1046.03 335.31 1049.49 335.305 1053.09V1053.09Z" fill="#3F3D56"/>
<path d="M398.977 1168.52H413.125V1068.34H398.977V1168.52Z" fill="#3F3D56"/>
<path d="M358.709 1168.02C358.709 1169.55 380.148 1168.61 406.595 1168.61C433.041 1168.61 454.48 1169.55 454.48 1168.02C454.48 1166.49 433.041 1154.36 406.595 1154.36C380.148 1154.36 358.709 1166.49 358.709 1168.02Z" fill="#3F3D56"/>
<path d="M357.506 1050.8L405.784 1058.51L461.875 1067.47L481.324 1070.57C483.191 1070.87 485.098 1070.41 486.628 1069.3C488.158 1068.19 489.186 1066.51 489.486 1064.65L490.367 1059.14L491.184 1054.01L491.858 1049.78C492.011 1048.84 491.97 1047.87 491.738 1046.94C491.506 1046.02 491.088 1045.14 490.509 1044.38C489.824 1043.45 488.915 1042.7 487.864 1042.2H412.586C411.864 1042.2 411.172 1041.92 410.662 1041.41C410.152 1040.9 409.865 1040.2 409.865 1039.48V1037.34C409.865 1036.62 410.152 1035.92 410.662 1035.41C411.172 1034.9 411.864 1034.62 412.586 1034.62H442.166L428.529 1032.44L386.607 1025.74L362.132 1021.83C360.26 1021.54 358.347 1021.99 356.813 1023.11C355.279 1024.22 354.248 1025.89 353.948 1027.77L351.575 1042.62C351.285 1044.49 351.746 1046.4 352.857 1047.93C353.968 1049.46 355.639 1050.49 357.506 1050.8V1050.8Z" fill="#ECC94B"/>
<path d="M461.875 1048.73V1131.71C461.878 1133.6 462.63 1135.41 463.966 1136.75C465.302 1138.09 467.114 1138.84 469.003 1138.84H484.055C485.944 1138.84 487.756 1138.09 489.092 1136.75C490.429 1135.41 491.181 1133.6 491.183 1131.71V1048.73C491.186 1047.15 490.661 1045.62 489.692 1044.38C488.975 1043.43 488.023 1042.68 486.928 1042.21H466.119C465.03 1042.68 464.081 1043.43 463.366 1044.38C462.399 1045.62 461.874 1047.15 461.875 1048.73V1048.73Z" fill="#ECC94B"/>
<path d="M416.514 908.272C416.591 909.012 416.782 909.736 417.08 910.417C417.533 911.458 418.232 912.373 419.115 913.085L419.148 913.107L462.093 947.962L462.724 948.463L471.616 955.682L474.304 957.86H520.807L518.13 955.682L481.378 925.847L456.749 905.855L437.584 890.306C436.463 889.391 435.087 888.844 433.645 888.738C433.639 888.731 433.631 888.728 433.623 888.727C433.195 888.696 432.765 888.703 432.338 888.748C431.7 888.813 431.073 888.967 430.477 889.206C430.07 889.353 429.682 889.551 429.324 889.794C428.647 890.207 428.047 890.733 427.55 891.351L418.212 902.86L418.071 903.046C417.479 903.77 417.036 904.606 416.769 905.503C416.502 906.4 416.415 907.341 416.514 908.272V908.272Z" fill="#ECC94B"/>
<path d="M419.149 913.107C419.958 915.131 421.135 916.988 422.62 918.584L451.21 949.312C451.901 949.947 452.711 950.44 453.592 950.761C454.473 951.082 455.41 951.226 456.347 951.185C457.284 951.143 458.204 950.917 459.054 950.519C459.903 950.121 460.666 949.559 461.298 948.866L462.093 947.962L462.441 947.57L474.794 933.709L480.105 927.741C480.458 927.374 480.765 926.964 481.019 926.522C481.149 926.304 481.269 926.076 481.378 925.847C481.823 924.829 482.028 923.723 481.976 922.613C481.94 921.669 481.714 920.742 481.312 919.887C480.91 919.032 480.34 918.267 479.637 917.637L446.487 892.287C442.829 889.481 438.224 888.208 433.645 888.738C433.639 888.731 433.631 888.728 433.623 888.727C432.606 888.854 431.601 889.066 430.619 889.358C430.184 889.478 429.76 889.63 429.324 889.794C426.513 890.852 424.022 892.614 422.087 894.912C419.982 897.386 418.595 900.391 418.077 903.599C417.559 906.806 417.93 910.095 419.149 913.107L419.149 913.107Z" fill="#DA628D"/>
<path d="M405.573 863.431C435.699 863.431 460.121 838.996 460.121 808.854C460.121 778.711 435.699 754.276 405.573 754.276C375.447 754.276 351.024 778.711 351.024 808.854C351.024 838.996 375.447 863.431 405.573 863.431Z" fill="#ECC94B"/>
<path d="M391.048 1043.27L411.279 1046.5L411.737 1046.57L442.492 1051.48L461.875 1054.59L490.367 1059.14L491.184 1059.27L495.417 1059.94L514.865 1063.05C516.732 1063.34 518.64 1062.88 520.17 1061.77C521.7 1060.66 522.727 1058.99 523.027 1057.12L524.725 1046.5L525.4 1042.27C525.4 1042.25 525.411 1042.23 525.411 1042.2H412.585C411.864 1042.2 411.172 1041.92 410.662 1041.41C410.152 1040.9 409.865 1040.2 409.865 1039.48V1037.34C409.865 1036.62 410.152 1035.92 410.662 1035.41C411.172 1034.9 411.864 1034.62 412.585 1034.62H448.238V1022.71L446.062 1022.37L435.309 1020.65L395.662 1014.32C393.794 1014.02 391.883 1014.48 390.351 1015.59C388.819 1016.7 387.789 1018.37 387.489 1020.24L386.607 1025.74L385.116 1035.11C384.824 1036.97 385.284 1038.88 386.396 1040.41C387.508 1041.95 389.18 1042.97 391.048 1043.27V1043.27Z" fill="#ECC94B"/>
<path d="M331.332 995.056C331.332 1039.55 335.849 1066.16 405.501 1058.54C405.599 1058.53 405.686 1058.52 405.784 1058.51C418.207 1057.28 430.493 1054.93 442.492 1051.48C448.728 1049.66 454.789 1047.28 460.602 1044.38C461.973 1043.69 463.29 1042.96 464.585 1042.21H412.585C411.864 1042.2 411.172 1041.92 410.662 1041.41C410.152 1040.9 409.865 1040.2 409.865 1039.48V1037.34C409.865 1036.62 410.152 1035.92 410.662 1035.41C411.172 1034.9 411.864 1034.62 412.585 1034.62H448.238V965.842C448.241 963.726 449.083 961.697 450.578 960.201C452.074 958.705 454.101 957.863 456.216 957.86H485.22C484.969 957.141 484.719 956.412 484.447 955.682C481.726 948.149 478.501 940.808 474.793 933.709C469.715 923.85 463.67 914.519 456.749 905.855C451.93 899.817 446.519 894.276 440.599 889.315C429.683 880.299 417.798 874.724 405.74 874.724C361.272 874.724 331.332 950.565 331.332 995.056Z" fill="#DA628D"/>
<path d="M404.427 829.082L404.37 827.042C408.162 826.937 411.506 826.699 414.018 824.862C414.73 824.312 415.316 823.615 415.734 822.818C416.153 822.021 416.396 821.143 416.445 820.244C416.489 819.695 416.406 819.143 416.202 818.631C415.999 818.119 415.68 817.661 415.27 817.293C413.602 815.884 410.919 816.34 408.963 817.237L407.276 818.011L410.511 794.362L412.53 794.639L409.779 814.755C410.905 814.337 412.118 814.208 413.307 814.379C414.496 814.55 415.623 815.016 416.586 815.735C417.234 816.301 417.742 817.009 418.071 817.803C418.4 818.598 418.54 819.458 418.482 820.316C418.423 821.524 418.1 822.704 417.536 823.774C416.973 824.844 416.182 825.777 415.22 826.509C411.992 828.87 407.798 828.987 404.427 829.082Z" fill="#DA628D"/>
<path d="M433.497 796.374H422.519V798.413H433.497V796.374Z" fill="#DA628D"/>
<path d="M398.843 796.374H387.864V798.413H398.843V796.374Z" fill="#DA628D"/>
<path d="M362.039 793.858C366.282 787.469 373.746 784.76 381.107 784.102C389.393 783.36 397.399 784.959 405.488 786.512C414.391 788.221 423.814 789.82 432.784 787.659C436.753 786.741 440.461 784.933 443.629 782.372C446.798 779.811 449.344 776.563 451.076 772.875C454.36 765.678 455.068 757.569 453.08 749.911C450.736 741.779 445.977 734.552 439.434 729.189C426.524 718.142 409.053 713.177 392.249 713.644C375.508 714.077 359.329 719.769 346.002 729.914C332.653 740.426 323.259 755.155 319.354 771.696C315.271 788.102 316.601 805.388 323.146 820.975C326.823 829.51 332.141 837.205 336.245 845.524C340.066 853.271 343.008 862.277 340.631 870.918C339.586 874.772 337.578 878.297 334.797 881.162C332.016 884.026 328.552 886.136 324.732 887.293C321.233 888.212 317.532 887.969 314.183 886.601C310.835 885.234 308.021 882.815 306.165 879.71C302.321 873.646 302.229 865.703 308 860.807C309.455 859.552 311.15 858.606 312.982 858.027C314.814 857.448 316.744 857.248 318.655 857.439C320.567 857.63 322.42 858.208 324.101 859.137C325.782 860.067 327.257 861.329 328.436 862.847C330.777 865.89 331.825 869.733 331.352 873.544C331.068 875.469 334.014 876.301 334.301 874.357C334.989 870.327 334.226 866.183 332.146 862.664C330.066 859.145 326.805 856.479 322.943 855.141C319.082 853.803 314.872 853.88 311.062 855.359C307.252 856.837 304.091 859.621 302.141 863.214C298.661 869.76 300.538 877.657 304.956 883.253C307.236 886.234 310.325 888.495 313.855 889.765C317.385 891.035 321.206 891.26 324.86 890.414C332.902 888.556 339.48 882.161 342.574 874.647C346.018 866.281 344.44 856.945 341.083 848.827C337.453 840.051 332.064 832.181 327.802 823.725C323.942 816.082 321.487 807.809 320.551 799.298C318.679 782.207 322.556 764.98 331.568 750.342C340.754 735.93 354.776 725.269 371.113 720.272C387.332 715.058 404.842 715.521 420.762 721.585C436.299 727.71 451.302 741.058 451.122 758.986C451.045 766.644 448.204 774.453 442.341 779.561C435.335 785.665 425.579 786.187 416.772 785.234C407.908 784.276 399.301 781.686 390.399 781.025C382.657 780.45 374.304 781.048 367.391 784.897C364.171 786.693 361.43 789.237 359.399 792.314C358.307 793.959 360.954 795.493 362.039 793.858L362.039 793.858Z" fill="#DA628D"/>
<path d="M370.719 927.436C370.805 927.634 370.903 927.827 371.012 928.013C371.121 928.209 371.241 928.398 371.371 928.58L395.227 962.934L397.077 965.602L416.536 993.608L435.309 1020.64L442.906 1031.6C443.11 1031.9 443.34 1032.18 443.592 1032.44C444.766 1033.67 446.346 1034.45 448.043 1034.62H448.238V987.891L446.062 984.755L421.651 949.606L395.434 911.854C394.354 910.302 392.703 909.241 390.842 908.904C388.982 908.567 387.064 908.982 385.508 910.058L377.466 915.644L373.145 918.649C371.779 919.6 370.788 920.999 370.345 922.604C369.902 924.209 370.034 925.919 370.719 927.436V927.436Z" fill="#ECC94B"/>
<path d="M366.986 926.598L368.063 928.765L368.074 928.776L368.368 929.353L385.857 964.088C386.843 965.704 388.428 966.863 390.266 967.312C392.103 967.761 394.044 967.463 395.663 966.484L396.795 965.776L397.077 965.602L419.627 951.447C420.432 950.959 421.133 950.317 421.688 949.557C422.244 948.797 422.643 947.935 422.864 947.019C423.084 946.104 423.121 945.154 422.973 944.225C422.825 943.295 422.494 942.404 422 941.603L397.23 908C394.802 904.707 391.315 902.351 387.355 901.328C383.395 900.304 379.203 900.676 375.485 902.381C374.646 902.76 373.838 903.204 373.069 903.71C369.428 906.117 366.798 909.777 365.676 913.996C364.555 918.216 365.021 922.7 366.986 926.598V926.598Z" fill="#DA628D"/>
<path d="M495.417 1042.21V1124.19C495.42 1126.08 496.172 1127.89 497.508 1129.23C498.844 1130.56 500.656 1131.32 502.546 1131.32H517.597C519.487 1131.32 521.298 1130.56 522.635 1129.23C523.971 1127.89 524.723 1126.08 524.725 1124.19V1042.21H495.417Z" fill="#ECC94B"/>
<path d="M407.688 1037.34V1039.48C407.69 1040.62 408.083 1041.71 408.801 1042.59C409.519 1043.47 410.518 1044.07 411.628 1044.3C411.78 1044.32 411.933 1044.35 412.085 1044.36C412.248 1044.37 412.412 1044.38 412.586 1044.38H580.36C583.054 1044.38 585.637 1043.31 587.543 1041.41C589.449 1039.5 590.521 1036.92 590.525 1034.22V965.841C590.521 963.146 589.449 960.563 587.543 958.658C585.637 956.753 583.054 955.683 580.36 955.682H456.216C453.524 955.685 450.943 956.756 449.039 958.661C447.136 960.566 446.065 963.148 446.062 965.841V1032.44H412.586C411.287 1032.44 410.041 1032.95 409.123 1033.87C408.205 1034.79 407.689 1036.04 407.688 1037.34V1037.34Z" fill="white"/>
<path d="M407.688 1037.34V1039.48C407.69 1040.62 408.083 1041.71 408.801 1042.59C409.519 1043.47 410.518 1044.07 411.628 1044.3C411.78 1044.32 411.933 1044.35 412.085 1044.36C412.248 1044.37 412.412 1044.38 412.586 1044.38H580.36C583.054 1044.38 585.637 1043.31 587.543 1041.41C589.449 1039.5 590.521 1036.92 590.525 1034.22V965.841C590.521 963.146 589.449 960.563 587.543 958.658C585.637 956.753 583.054 955.683 580.36 955.682H456.216C453.524 955.685 450.943 956.756 449.039 958.661C447.136 960.566 446.065 963.148 446.062 965.841V1032.44H412.586C411.287 1032.44 410.041 1032.95 409.123 1033.87C408.205 1034.79 407.689 1036.04 407.688 1037.34V1037.34ZM409.865 1039.48V1037.34C409.865 1036.62 410.152 1035.92 410.662 1035.41C411.173 1034.9 411.864 1034.62 412.586 1034.62H448.239V965.841C448.242 963.725 449.083 961.697 450.579 960.201C452.074 958.705 454.101 957.863 456.216 957.86H580.36C582.477 957.861 584.506 958.701 586.004 960.198C587.501 961.694 588.345 963.724 588.348 965.841V1034.22C588.345 1036.34 587.501 1038.37 586.004 1039.87C584.506 1041.36 582.477 1042.2 580.36 1042.2H412.586C411.864 1042.2 411.172 1041.92 410.662 1041.41C410.152 1040.9 409.865 1040.2 409.865 1039.48Z" fill="#3F3D56"/>
<path d="M518.292 1008.41C522.914 1008.41 526.661 1004.66 526.661 1000.03C526.661 995.409 522.914 991.66 518.292 991.66C513.67 991.66 509.923 995.409 509.923 1000.03C509.923 1004.66 513.67 1008.41 518.292 1008.41Z" fill="#ECC94B"/>
<path d="M448.271 1033.59H446.095V1043.39H448.271V1033.59Z" fill="#3F3D56"/>
<path d="M1331.66 373.038H752.52C752.165 373.038 751.824 372.897 751.572 372.645C751.321 372.394 751.18 372.053 751.18 371.697C751.18 371.341 751.321 371 751.572 370.748C751.824 370.497 752.165 370.355 752.52 370.355H1331.66C1332.01 370.355 1332.36 370.497 1332.61 370.748C1332.86 371 1333 371.341 1333 371.697C1333 372.053 1332.86 372.394 1332.61 372.645C1332.36 372.897 1332.01 373.038 1331.66 373.038Z" fill="#CACACA"/>
<path d="M803.441 354.26C810.136 354.26 815.564 348.829 815.564 342.13C815.564 335.431 810.136 330 803.441 330C796.745 330 791.317 335.431 791.317 342.13C791.317 348.829 796.745 354.26 803.441 354.26Z" fill="#3F3D56"/>
<path d="M845.322 354.26C852.017 354.26 857.445 348.829 857.445 342.13C857.445 335.431 852.017 330 845.322 330C838.626 330 833.198 335.431 833.198 342.13C833.198 348.829 838.626 354.26 845.322 354.26Z" fill="#3F3D56"/>
<path d="M887.203 354.26C893.898 354.26 899.326 348.829 899.326 342.13C899.326 335.431 893.898 330 887.203 330C880.507 330 875.079 335.431 875.079 342.13C875.079 348.829 880.507 354.26 887.203 354.26Z" fill="#3F3D56"/>
<path d="M862.897 579.844C848.808 579.844 835.036 575.664 823.322 567.833C811.608 560.002 802.478 548.871 797.086 535.849C791.695 522.826 790.284 508.496 793.033 494.671C795.781 480.846 802.565 468.147 812.527 458.179C822.489 448.212 835.182 441.424 848.999 438.674C862.817 435.924 877.139 437.336 890.155 442.73C903.171 448.124 914.296 457.259 922.123 468.979C929.951 480.699 934.128 494.478 934.128 508.574C934.107 527.47 926.596 545.585 913.242 558.946C899.888 572.307 881.782 579.823 862.897 579.844V579.844ZM862.897 439.987C849.338 439.987 836.085 444.01 824.812 451.546C813.538 459.083 804.752 469.795 799.563 482.327C794.375 494.86 793.017 508.65 795.662 521.955C798.308 535.26 804.836 547.481 814.423 557.073C824.01 566.665 836.225 573.197 849.523 575.844C862.82 578.49 876.604 577.132 889.13 571.941C901.656 566.749 912.362 557.958 919.894 546.679C927.427 535.4 931.447 522.139 931.447 508.574C931.426 490.39 924.198 472.957 911.346 460.099C898.495 447.241 881.071 440.008 862.897 439.987V439.987Z" fill="#CACACA"/>
<path d="M858.928 937.179C877.223 937.179 892.053 922.341 892.053 904.036C892.053 885.732 877.223 870.894 858.928 870.894C840.633 870.894 825.803 885.732 825.803 904.036C825.803 922.341 840.633 937.179 858.928 937.179Z" fill="#E4E4E4"/>
<path d="M840.528 916.321L840.493 915.082C842.796 915.018 844.826 914.873 846.352 913.758C846.785 913.424 847.14 913.001 847.394 912.517C847.649 912.033 847.796 911.5 847.826 910.954C847.853 910.62 847.802 910.285 847.679 909.974C847.555 909.663 847.361 909.385 847.112 909.161C846.536 908.812 845.876 908.624 845.202 908.618C844.528 908.612 843.865 908.788 843.282 909.128L842.258 909.597L844.222 895.236L845.449 895.404L843.778 907.621C844.462 907.367 845.198 907.288 845.92 907.392C846.642 907.496 847.327 907.779 847.911 908.216C848.305 908.559 848.613 908.989 848.813 909.472C849.013 909.954 849.098 910.476 849.063 910.997C849.027 911.731 848.831 912.448 848.489 913.097C848.146 913.747 847.666 914.314 847.082 914.758C845.122 916.192 842.575 916.263 840.528 916.321Z" fill="#DA628D"/>
<path d="M858.181 896.458H851.514V897.697H858.181V896.458Z" fill="#DA628D"/>
<path d="M837.137 896.458H830.47V897.697H837.137V896.458Z" fill="#DA628D"/>
<path d="M853.943 882.633C845.95 888.12 833.676 885.095 830.054 875.824C829.17 873.568 828.775 871.149 828.897 868.729C829.018 866.309 829.653 863.943 830.759 861.787C832.083 859.529 833.885 857.589 836.04 856.103C838.194 854.618 840.648 853.623 843.228 853.189C850.081 851.767 857.167 853.675 863.432 856.447C863.657 856.565 863.914 856.611 864.167 856.578C864.419 856.545 864.656 856.436 864.844 856.265C870.828 851.492 879.522 853.564 885.657 856.9C892.292 860.628 897.903 865.939 901.991 872.361C906.16 878.728 908.765 885.992 909.594 893.558C910.352 901.736 909.017 909.971 905.715 917.49C902.413 925.009 897.253 931.563 890.72 936.535C889.533 937.424 890.694 939.45 891.897 938.549C898.494 933.673 903.789 927.246 907.314 919.837C910.84 912.427 912.488 904.263 912.112 896.066C911.737 887.868 909.349 879.889 905.161 872.833C900.973 865.778 895.113 859.863 888.098 855.61C880.739 851.181 870.483 848.802 863.196 854.615L864.608 854.432C858.343 851.66 851.478 849.703 844.573 850.612C838.708 851.385 832.946 854.199 829.583 859.21C828.106 861.51 827.137 864.099 826.741 866.805C826.345 869.51 826.531 872.268 827.286 874.896C828.024 877.493 829.354 879.883 831.172 881.878C832.99 883.872 835.246 885.417 837.763 886.391C840.583 887.517 843.633 887.947 846.655 887.644C849.676 887.34 852.58 886.312 855.12 884.647C856.349 883.803 855.184 881.78 853.943 882.633V882.633Z" fill="#DA628D"/>
<path d="M861.245 552.01C879.304 552.01 893.943 537.362 893.943 519.294C893.943 501.226 879.304 486.579 861.245 486.579C843.186 486.579 828.547 501.226 828.547 519.294C828.547 537.362 843.186 552.01 861.245 552.01Z" fill="#E4E4E4"/>
<path d="M853.527 533.028C851.408 532.969 848.77 532.895 846.738 531.41C846.132 530.949 845.635 530.362 845.281 529.689C844.926 529.016 844.723 528.274 844.686 527.514C844.649 526.974 844.738 526.433 844.945 525.933C845.151 525.433 845.471 524.988 845.879 524.632C846.484 524.18 847.193 523.886 847.941 523.779C848.689 523.671 849.452 523.752 850.16 524.015L848.43 511.362L849.7 511.188L851.735 526.063L850.674 525.576C850.07 525.225 849.383 525.042 848.685 525.049C847.987 525.055 847.303 525.249 846.706 525.612C846.449 525.844 846.248 526.132 846.12 526.454C845.992 526.776 845.939 527.124 845.967 527.469C845.998 528.035 846.151 528.587 846.414 529.088C846.678 529.589 847.046 530.028 847.494 530.374C849.075 531.529 851.178 531.679 853.563 531.745L853.527 533.028Z" fill="#DA628D"/>
<path d="M842.146 512.453H835.24V513.736H842.146V512.453Z" fill="#DA628D"/>
<path d="M863.945 512.453H857.039V513.736H863.945V512.453Z" fill="#DA628D"/>
<path d="M864.278 495.111C860.305 500.309 853.999 503.796 847.333 502.97C844.24 502.652 841.327 501.364 839.011 499.29C836.694 497.215 835.093 494.46 834.435 491.42C833.862 488.424 834.016 485.334 834.886 482.41C835.756 479.486 837.316 476.814 839.434 474.619C843.927 469.891 850.357 467.348 856.721 466.476C862.739 465.768 868.839 466.339 874.621 468.152C880.404 469.965 885.738 472.98 890.275 476.998C894.853 480.938 898.507 485.838 900.978 491.351C903.358 496.823 904.491 502.756 904.296 508.721C904.138 514.653 902.779 520.491 900.301 525.883C897.823 531.275 894.279 536.108 889.881 540.09C888.775 541.058 887.618 541.965 886.414 542.807C885.398 543.52 884.436 541.852 885.443 541.145C889.924 537.87 893.698 533.724 896.539 528.955C899.379 524.185 901.228 518.891 901.974 513.389C902.81 507.876 902.437 502.247 900.881 496.892C899.325 491.538 896.624 486.586 892.964 482.38C889.269 478.165 884.771 474.728 879.733 472.271C874.695 469.815 869.219 468.387 863.624 468.072C852.372 467.581 838.312 472.607 836.206 485.138C835.263 490.755 837.361 496.658 842.505 499.47C845.229 500.841 848.298 501.372 851.324 500.995C854.349 500.618 857.195 499.351 859.5 497.354C860.659 496.405 861.705 495.327 862.617 494.139C863.359 493.169 865.031 494.126 864.278 495.111V495.111Z" fill="#DA628D"/>
<path d="M862.897 767.849C848.808 767.849 835.036 763.669 823.322 755.838C811.608 748.006 802.478 736.876 797.086 723.853C791.695 710.83 790.284 696.5 793.033 682.675C795.781 668.85 802.565 656.151 812.527 646.184C822.489 636.216 835.182 629.429 848.999 626.679C862.817 623.929 877.139 625.34 890.155 630.734C903.171 636.128 914.296 645.263 922.123 656.983C929.951 668.703 934.128 682.483 934.128 696.579C934.107 715.474 926.596 733.589 913.242 746.95C899.888 760.312 881.782 767.827 862.897 767.849V767.849ZM862.897 627.992C849.338 627.992 836.085 632.014 824.812 639.551C813.538 647.087 804.752 657.799 799.563 670.332C794.375 682.864 793.017 696.655 795.662 709.96C798.308 723.264 804.836 735.485 814.423 745.077C824.01 754.669 836.225 761.202 849.523 763.848C862.82 766.495 876.604 765.136 889.13 759.945C901.656 754.754 912.362 745.963 919.894 734.684C927.427 723.405 931.447 710.144 931.447 696.579C931.427 678.395 924.198 660.961 911.346 648.103C898.495 635.245 881.071 628.012 862.897 627.992V627.992Z" fill="#CACACA"/>
<path d="M862.897 968.462C848.808 968.462 835.036 964.283 823.322 956.451C811.608 948.62 802.478 937.489 797.086 924.467C791.695 911.444 790.284 897.114 793.033 883.289C795.781 869.464 802.566 856.765 812.528 846.797C822.49 836.83 835.182 830.042 849 827.292C862.817 824.542 877.14 825.954 890.156 831.348C903.172 836.742 914.297 845.877 922.124 857.597C929.951 869.318 934.128 883.097 934.128 897.193C934.107 916.088 926.595 934.203 913.241 947.564C899.888 960.925 881.782 968.441 862.897 968.462ZM862.897 828.606C849.338 828.605 836.085 832.628 824.812 840.164C813.539 847.701 804.752 858.413 799.564 870.945C794.375 883.478 793.017 897.268 795.662 910.573C798.307 923.878 804.836 936.099 814.423 945.691C824.01 955.283 836.225 961.815 849.522 964.462C862.82 967.108 876.603 965.75 889.129 960.559C901.655 955.368 912.362 946.577 919.894 935.298C927.427 924.019 931.447 910.758 931.447 897.193C931.427 879.009 924.198 861.575 911.347 848.717C898.495 835.859 881.071 828.626 862.897 828.606Z" fill="#CACACA"/>
<path d="M858.048 737.236C876.731 737.236 891.877 722.082 891.877 703.389C891.877 684.696 876.731 669.543 858.048 669.543C839.365 669.543 824.22 684.696 824.22 703.389C824.22 722.082 839.365 737.236 858.048 737.236Z" fill="#E4E4E4"/>
<path d="M846.79 717.598C844.597 717.537 841.868 717.461 839.766 715.924C839.14 715.448 838.625 714.84 838.259 714.144C837.892 713.448 837.682 712.68 837.643 711.894C837.605 711.335 837.697 710.776 837.911 710.258C838.125 709.741 838.456 709.28 838.877 708.912C839.504 708.444 840.237 708.141 841.011 708.029C841.785 707.918 842.574 708.002 843.307 708.274L841.516 695.183L842.831 695.003L844.936 710.393L843.838 709.889C843.214 709.525 842.503 709.337 841.781 709.343C841.058 709.35 840.351 709.551 839.734 709.926C839.467 710.166 839.259 710.464 839.127 710.797C838.994 711.13 838.94 711.49 838.969 711.847C839.001 712.432 839.159 713.004 839.431 713.522C839.704 714.041 840.085 714.494 840.548 714.852C842.185 716.048 844.36 716.202 846.827 716.271L846.79 717.598Z" fill="#DA628D"/>
<path d="M835.017 696.312H827.872V697.639H835.017V696.312Z" fill="#DA628D"/>
<path d="M857.57 696.312H850.425V697.639H857.57V696.312Z" fill="#DA628D"/>
<path d="M859.752 738.292L883.15 729.205C886.976 727.719 890.824 726.279 894.63 724.742C896.26 724.173 897.762 723.288 899.048 722.136C900.169 720.95 900.932 719.471 901.251 717.871C901.888 714.347 902.092 710.758 901.858 707.184C901.813 703.353 901.498 699.53 900.915 695.743C899.893 688.626 897.494 681.777 893.851 675.58C887.289 664.808 875.983 656.704 862.979 657.351C856.868 657.563 851.02 659.888 846.43 663.93C845.963 664.488 845.44 664.996 844.868 665.445C844.47 665.594 844.037 665.623 843.624 665.528C843.078 665.493 842.531 665.466 841.985 665.448C840.087 665.368 838.187 665.448 836.303 665.686C832.87 666.057 829.616 667.409 826.93 669.58C825.755 670.515 824.776 671.673 824.048 672.987C823.32 674.301 822.858 675.746 822.689 677.239C822.598 678.624 822.827 680.012 823.358 681.295C823.889 682.578 824.707 683.722 825.749 684.639C828.541 686.993 832.524 686.165 835.872 685.988L848.139 685.338L854.355 685.008C855.634 684.94 855.631 686.931 854.355 686.999L837.835 687.875C835.161 688.133 832.474 688.242 829.788 688.201C827.746 688.109 825.797 687.324 824.26 685.976C822.857 684.686 821.811 683.055 821.226 681.24C820.64 679.425 820.535 677.49 820.919 675.623C821.429 673.615 822.354 671.737 823.634 670.11C824.915 668.482 826.522 667.142 828.353 666.175C833.186 663.448 838.958 663.186 844.365 663.59L843.662 663.881C849.779 657.312 859.149 654.539 867.946 655.509C877.233 656.534 885.494 661.718 891.429 668.807C898.047 676.711 901.653 686.566 903.055 696.701C903.784 702.172 904.024 707.698 903.772 713.212C903.783 715.644 903.367 718.059 902.544 720.347C901.605 722.574 899.906 724.396 897.751 725.488C895.281 726.681 892.74 727.725 890.145 728.614L881.524 731.962L864.591 738.538L860.281 740.212C859.086 740.676 858.569 738.751 859.752 738.292V738.292Z" fill="#DA628D"/>
<path d="M886.26 660.347C886.26 658.313 886.863 656.324 887.992 654.632C889.122 652.941 890.728 651.622 892.607 650.844C894.485 650.065 896.552 649.861 898.547 650.258C900.541 650.655 902.373 651.635 903.811 653.073C905.249 654.512 906.228 656.345 906.625 658.34C907.021 660.336 906.818 662.404 906.04 664.284C905.261 666.163 903.944 667.77 902.253 668.9C900.562 670.031 898.574 670.634 896.541 670.634C893.815 670.631 891.202 669.546 889.274 667.618C887.347 665.689 886.263 663.074 886.26 660.347V660.347ZM888.25 660.347C888.25 661.988 888.736 663.592 889.647 664.956C890.558 666.32 891.853 667.384 893.368 668.011C894.883 668.639 896.55 668.804 898.158 668.483C899.767 668.163 901.244 667.373 902.404 666.213C903.563 665.053 904.353 663.575 904.673 661.966C904.993 660.356 904.829 658.688 904.201 657.173C903.574 655.657 902.511 654.361 901.147 653.45C899.784 652.538 898.181 652.052 896.541 652.052C894.343 652.054 892.235 652.929 890.681 654.484C889.126 656.039 888.252 658.148 888.25 660.347Z" fill="#DA628D"/>
<path d="M1280.15 538.489H1046.04C1043.12 538.489 1040.31 537.327 1038.25 535.258C1036.18 533.189 1035.02 530.383 1035.02 527.457C1035.02 524.531 1036.18 521.725 1038.25 519.656C1040.31 517.587 1043.12 516.424 1046.04 516.424H1280.15C1281.6 516.424 1283.03 516.71 1284.37 517.264C1285.71 517.819 1286.92 518.631 1287.95 519.656C1288.97 520.68 1289.78 521.896 1290.34 523.235C1290.89 524.573 1291.17 526.008 1291.17 527.457C1291.17 528.906 1290.89 530.34 1290.34 531.679C1289.78 533.017 1288.97 534.234 1287.95 535.258C1286.92 536.282 1285.71 537.095 1284.37 537.65C1283.03 538.204 1281.6 538.489 1280.15 538.489V538.489Z" fill="#E4E4E4"/>
<path d="M1204.66 500.724H1046.04C1043.12 500.724 1040.31 499.562 1038.25 497.493C1036.18 495.424 1035.02 492.618 1035.02 489.692C1035.02 486.766 1036.18 483.96 1038.25 481.891C1040.31 479.822 1043.12 478.659 1046.04 478.659H1204.66C1206.11 478.659 1207.54 478.945 1208.88 479.499C1210.22 480.053 1211.43 480.866 1212.45 481.891C1213.48 482.915 1214.29 484.131 1214.85 485.47C1215.4 486.808 1215.68 488.243 1215.68 489.692C1215.68 491.14 1215.4 492.575 1214.85 493.914C1214.29 495.252 1213.48 496.468 1212.45 497.493C1211.43 498.517 1210.22 499.33 1208.88 499.884C1207.54 500.439 1206.11 500.724 1204.66 500.724V500.724Z" fill="#E4E4E4"/>
<path d="M1280.15 726.494H1046.04C1043.12 726.494 1040.31 725.331 1038.25 723.262C1036.18 721.193 1035.02 718.387 1035.02 715.461C1035.02 712.535 1036.18 709.729 1038.25 707.66C1040.31 705.591 1043.12 704.429 1046.04 704.429H1280.15C1283.07 704.429 1285.88 705.591 1287.95 707.66C1290.01 709.729 1291.17 712.535 1291.17 715.461C1291.17 718.387 1290.01 721.193 1287.95 723.262C1285.88 725.331 1283.07 726.494 1280.15 726.494Z" fill="#E4E4E4"/>
<path d="M1204.66 688.729H1046.04C1043.12 688.725 1040.32 687.562 1038.25 685.493C1036.19 683.424 1035.03 680.62 1035.03 677.696C1035.03 674.772 1036.19 671.968 1038.25 669.899C1040.32 667.831 1043.12 666.667 1046.04 666.664H1204.66C1207.58 666.664 1210.39 667.826 1212.45 669.895C1214.52 671.964 1215.68 674.77 1215.68 677.696C1215.68 680.622 1214.52 683.428 1212.45 685.497C1210.39 687.566 1207.58 688.729 1204.66 688.729V688.729Z" fill="#E4E4E4"/>
<path d="M1280.15 927.108H1046.04C1043.12 927.108 1040.31 925.946 1038.25 923.877C1036.18 921.808 1035.02 919.002 1035.02 916.076C1035.02 913.15 1036.18 910.343 1038.25 908.274C1040.31 906.205 1043.12 905.043 1046.04 905.043H1280.15C1283.07 905.043 1285.88 906.205 1287.95 908.274C1290.01 910.343 1291.17 913.15 1291.17 916.076C1291.17 919.002 1290.01 921.808 1287.95 923.877C1285.88 925.946 1283.07 927.108 1280.15 927.108Z" fill="#E4E4E4"/>
<path d="M1204.66 889.343H1046.04C1043.12 889.343 1040.31 888.18 1038.25 886.111C1036.18 884.042 1035.02 881.236 1035.02 878.31C1035.02 875.384 1036.18 872.578 1038.25 870.509C1040.31 868.44 1043.12 867.278 1046.04 867.278H1204.66C1207.58 867.278 1210.39 868.44 1212.45 870.509C1214.52 872.578 1215.68 875.384 1215.68 878.31C1215.68 881.236 1214.52 884.042 1212.45 886.111C1210.39 888.18 1207.58 889.343 1204.66 889.343Z" fill="#E4E4E4"/>
<path d="M679.109 1171H168.341C167.985 1171 167.644 1170.86 167.393 1170.61C167.141 1170.36 167 1170.01 167 1169.66C167 1169.3 167.141 1168.96 167.393 1168.71C167.644 1168.46 167.985 1168.32 168.341 1168.32H679.109C679.465 1168.32 679.806 1168.46 680.057 1168.71C680.309 1168.96 680.45 1169.3 680.45 1169.66C680.45 1170.01 680.309 1170.36 680.057 1170.61C679.806 1170.86 679.465 1171 679.109 1171Z" fill="#3F3D56"/>
<path d="M640 471.193V619H256V471.193C255.931 429.596 269.41 389.111 294.394 355.873C311.154 333.499 332.591 315.058 357.207 301.834C381.824 288.611 409.026 280.926 436.917 279.314C440.578 279.1 444.272 278.995 448 279C450.117 279 452.235 279.031 454.329 279.107C503.046 280.652 549.337 300.746 583.758 335.291C584.798 336.331 585.814 337.379 586.838 338.435C592.1 343.952 597.031 349.774 601.606 355.873C626.587 389.113 640.065 429.597 640 471.193V471.193Z" fill="#E6E6E6"/>
<path d="M455 279.111V619H437V279.317C440.788 279.103 444.606 278.997 448.455 279C450.647 279 452.832 279.032 455 279.111Z" fill="white"/>
<path d="M602 356H294C298.585 350.053 303.528 344.377 308.804 339H587.196C592.472 344.377 597.415 350.053 602 356V356Z" fill="white"/>
<path d="M611 406H475V619H611V406Z" fill="white"/>
<path d="M519 445H499V466H519V445Z" fill="#E6E6E6"/>
<path d="M552 445H532V466H552V445Z" fill="#E6E6E6"/>
<path d="M586 445H565V466H586V445Z" fill="#E6E6E6"/>
<path d="M520 492H499V513H520V492Z" fill="#E6E6E6"/>
<path d="M553 492H532V513H553V492Z" fill="#E6E6E6"/>
<path d="M586 492H566V513H586V492Z" fill="#E6E6E6"/>
<path d="M520 539H500V560H520V539Z" fill="#E6E6E6"/>
<path d="M554 539H533V560H554V539Z" fill="#E6E6E6"/>
<path d="M587 539H566V560H587V539Z" fill="#E6E6E6"/>
<path d="M521 586H500V607H521V586Z" fill="#E6E6E6"/>
<path d="M554 586H534V607H554V586Z" fill="#E6E6E6"/>
<path d="M587 586H567V607H587V586Z" fill="#E6E6E6"/>
<path d="M521 586H500V607H521V586Z" fill="#E6E6E6"/>
<path d="M554 586H534V607H554V586Z" fill="#E6E6E6"/>
<path d="M587 586H567V607H587V586Z" fill="#E6E6E6"/>
<path d="M301.5 572C317.24 572 330 559.464 330 544C330 528.536 317.24 516 301.5 516C285.76 516 273 528.536 273 544C273 559.464 285.76 572 301.5 572Z" fill="#ECC94B"/>
<path d="M303 619H300L300.936 572.282L301.5 544H301.583L302.122 572.282L302.42 588.371L302.453 589.933L303 619Z" fill="white"/>
<path d="M306.939 587.936L306.285 586.693L301.59 589.165L302.245 590.407L306.939 587.936Z" fill="white"/>
<path d="M385 545C408.748 545 428 525.748 428 502C428 478.252 408.748 459 385 459C361.252 459 342 478.252 342 502C342 525.748 361.252 545 385 545Z" fill="#ECC94B"/>
<path d="M387 619H383L383.828 570.424L384.26 545.101L384.996 502H385.11L385.804 545.093L386.2 569.614L386.242 571.997L387 619Z" fill="white"/>
<path d="M393.17 568.847L392.175 566.957L385.036 570.716L386.031 572.605L393.17 568.847Z" fill="white"/>
<path d="M295.784 460.991L303 455.083C297.394 454.45 295.09 457.579 294.148 460.056C289.768 458.195 285 460.634 285 460.634L299.439 466C298.71 464.008 297.442 462.271 295.784 460.991V460.991Z" fill="#3F3D56"/>
<path d="M372.784 412.991L380 407.083C374.394 406.45 372.09 409.579 371.148 412.056C366.768 410.195 362 412.634 362 412.634L376.439 418C375.71 416.008 374.442 414.271 372.784 412.991V412.991Z" fill="#3F3D56"/>
<path d="M343.783 458.446L351 453.075C345.394 452.5 343.09 455.345 342.148 457.597C337.768 455.904 333 458.122 333 458.122L347.439 463C346.71 461.19 345.442 459.61 343.783 458.446V458.446Z" fill="#3F3D56"/>
</svg>
